<ttFont>
    <TTGlyph name=".notdef" xMin="-34" yMin="-303" xMax="1124" yMax="1513">
      <contour>
        <pt x="329" y="1513" on="1"/>
        <pt x="1124" y="1513" on="1"/>
        <pt x="761" y="-303" on="1"/>
        <pt x="-34" y="-303" on="1"/>
      </contour>
      <contour>
        <pt x="607" y="-122" on="1"/>
        <pt x="898" y="1332" on="1"/>
        <pt x="483" y="1332" on="1"/>
        <pt x="192" y="-122" on="1"/>
      </contour>
    </TTGlyph>
    <TTGlyph name="A" xMin="-20" yMin="0" xMax="868" yMax="1362">
      <contour>
        <pt x="640" y="1362" on="1"/>
        <pt x="757" y="1362" on="1"/>
        <pt x="868" y="0" on="1"/>
        <pt x="741" y="0" on="1"/>
        <pt x="714" y="403" on="1"/>
        <pt x="286" y="403" on="1"/>
        <pt x="93" y="0" on="1"/>
        <pt x="-20" y="0" on="1"/>
      </contour>
      <contour>
        <pt x="707" y="505" on="1"/>
        <pt x="661" y="1187" on="1"/>
        <pt x="334" y="505" on="1"/>
      </contour>
    </TTGlyph>
    <TTGlyph name="A.hex" xMin="-35" yMin="0" xMax="882" yMax="1210">
      <contour>
        <pt x="591" y="1210" on="1"/>
        <pt x="748" y="1210" on="1"/>
        <pt x="882" y="0" on="1"/>
        <pt x="714" y="0" on="1"/>
        <pt x="685" y="310" on="1"/>
        <pt x="274" y="310" on="1"/>
        <pt x="116" y="0" on="1"/>
        <pt x="-35" y="0" on="1"/>
      </contour>
      <contour>
        <pt x="672" y="446" on="1"/>
        <pt x="621" y="990" on="1"/>
        <pt x="343" y="446" on="1"/>
      </contour>
    </TTGlyph>
    <TTGlyph name="Aacute" xMin="-125" yMin="0" xMax="1006" yMax="1870">
      <component glyphName="A" x="-105" y="0" flags="0x0"/>
      <component glyphName="acutecomb.case" x="-105" y="0" flags="0x0"/>
    </TTGlyph>
    <TTGlyph name="Abreve" xMin="-125" yMin="0" xMax="974" yMax="1818">
      <component glyphName="A" x="-105" y="0" flags="0x0"/>
      <component glyphName="uni0306.case" x="-105" y="0" flags="0x0"/>
    </TTGlyph>
    <TTGlyph name="Acircumflex" xMin="-125" yMin="0" xMax="930" yMax="1870">
      <component glyphName="A" x="-105" y="0" flags="0x0"/>
      <component glyphName="uni0302.case" x="-105" y="0" flags="0x0"/>
    </TTGlyph>
    <TTGlyph name="Adieresis" xMin="-125" yMin="0" xMax="927" yMax="1696">
      <component glyphName="A" x="-105" y="0" flags="0x0"/>
      <component glyphName="uni0308.case" x="-105" y="0" flags="0x0"/>
    </TTGlyph>
    <TTGlyph name="Agrave" xMin="-125" yMin="0" xMax="763" yMax="1870">
      <component glyphName="A" x="-105" y="0" flags="0x0"/>
      <component glyphName="gravecomb.case" x="-105" y="0" flags="0x0"/>
    </TTGlyph>
    <TTGlyph name="Amacron" xMin="-125" yMin="0" xMax="955" yMax="1710">
      <component glyphName="A" x="-105" y="0" flags="0x0"/>
      <component glyphName="uni0304.case" x="-105" y="0" flags="0x0"/>
    </TTGlyph>
    <TTGlyph name="Aogonek" xMin="-20" yMin="-303" xMax="885" yMax="1362">
      <contour>
        <pt x="653" y="-303" on="0"/>
        <pt x="574" y="-246" on="0"/>
        <pt x="574" y="-194" on="1"/>
        <pt x="574" y="-181" on="0"/>
        <pt x="577" y="-164" on="1"/>
        <pt x="598" y="-60" on="0"/>
        <pt x="744" y="2" on="1"/>
        <pt x="741" y="0" on="1"/>
        <pt x="714" y="403" on="1"/>
        <pt x="286" y="403" on="1"/>
        <pt x="93" y="0" on="1"/>
        <pt x="-20" y="0" on="1"/>
        <pt x="640" y="1362" on="1"/>
        <pt x="757" y="1362" on="1"/>
        <pt x="865" y="37" on="1"/>
        <pt x="876" y="40" on="1"/>
        <pt x="885" y="-1" on="1"/>
        <pt x="797" y="-24" on="0"/>
        <pt x="697" y="-111" on="0"/>
        <pt x="697" y="-159" on="1"/>
        <pt x="697" y="-180" on="0"/>
        <pt x="728" y="-200" on="0"/>
        <pt x="762" y="-200" on="1"/>
        <pt x="788" y="-200" on="0"/>
        <pt x="836" y="-187" on="1"/>
        <pt x="841" y="-283" on="1"/>
        <pt x="779" y="-303" on="0"/>
        <pt x="721" y="-303" on="1"/>
      </contour>
      <contour>
        <pt x="707" y="505" on="1"/>
        <pt x="661" y="1187" on="1"/>
        <pt x="334" y="505" on="1"/>
      </contour>
    </TTGlyph>
    <TTGlyph name="Aring" xMin="-125" yMin="0" xMax="900" yMax="1902">
      <component glyphName="A" x="-105" y="0" flags="0x0"/>
      <component glyphName="uni030A.case" x="-105" y="0" flags="0x0"/>
    </TTGlyph>
    <TTGlyph name="Atilde" xMin="-125" yMin="0" xMax="1000" yMax="1789">
      <component glyphName="A" x="-105" y="0" flags="0x0"/>
      <component glyphName="tildecomb.case" x="-105" y="0" flags="0x0"/>
    </TTGlyph>
    <TTGlyph name="B" xMin="61" yMin="0" xMax="987" yMax="1362">
      <contour>
        <pt x="333" y="1362" on="1"/>
        <pt x="617" y="1362" on="1"/>
        <pt x="801" y="1362" on="0"/>
        <pt x="987" y="1219" on="0"/>
        <pt x="987" y="1090" on="1"/>
        <pt x="987" y="1055" on="0"/>
        <pt x="979" y="1010" on="1"/>
        <pt x="955" y="896" on="0"/>
        <pt x="805" y="732" on="0"/>
        <pt x="688" y="693" on="1"/>
        <pt x="781" y="664" on="0"/>
        <pt x="881" y="529" on="0"/>
        <pt x="881" y="432" on="1"/>
        <pt x="881" y="389" on="0"/>
        <pt x="873" y="352" on="1"/>
        <pt x="839" y="184" on="0"/>
        <pt x="591" y="0" on="0"/>
        <pt x="379" y="0" on="1"/>
        <pt x="61" y="0" on="1"/>
      </contour>
      <contour>
        <pt x="547" y="100" on="0"/>
        <pt x="734" y="248" on="0"/>
        <pt x="759" y="377" on="1"/>
        <pt x="766" y="411" on="0"/>
        <pt x="766" y="445" on="1"/>
        <pt x="766" y="540" on="0"/>
        <pt x="638" y="637" on="0"/>
        <pt x="516" y="637" on="1"/>
        <pt x="301" y="637" on="1"/>
        <pt x="193" y="99" on="1"/>
        <pt x="393" y="99" on="1"/>
      </contour>
      <contour>
        <pt x="646" y="739" on="0"/>
        <pt x="833" y="879" on="0"/>
        <pt x="859" y="1005" on="1"/>
        <pt x="866" y="1039" on="0"/>
        <pt x="866" y="1072" on="1"/>
        <pt x="866" y="1261" on="0"/>
        <pt x="608" y="1262" on="1"/>
        <pt x="426" y="1262" on="1"/>
        <pt x="321" y="739" on="1"/>
        <pt x="507" y="739" on="1"/>
      </contour>
    </TTGlyph>
    <TTGlyph name="B.hex" xMin="46" yMin="0" xMax="976" yMax="1210">
      <contour>
        <pt x="288" y="1210" on="1"/>
        <pt x="587" y="1210" on="1"/>
        <pt x="780" y="1210" on="0"/>
        <pt x="976" y="1078" on="0"/>
        <pt x="976" y="960" on="1"/>
        <pt x="976" y="926" on="0"/>
        <pt x="969" y="894" on="1"/>
        <pt x="950" y="800" on="0"/>
        <pt x="819" y="658" on="0"/>
        <pt x="714" y="620" on="1"/>
        <pt x="797" y="589" on="0"/>
        <pt x="888" y="466" on="0"/>
        <pt x="888" y="382" on="1"/>
        <pt x="888" y="348" on="0"/>
        <pt x="881" y="316" on="1"/>
        <pt x="850" y="165" on="0"/>
        <pt x="599" y="0" on="0"/>
        <pt x="379" y="0" on="1"/>
        <pt x="46" y="0" on="1"/>
      </contour>
      <contour>
        <pt x="542" y="132" on="0"/>
        <pt x="708" y="247" on="0"/>
        <pt x="728" y="346" on="1"/>
        <pt x="733" y="374" on="0"/>
        <pt x="733" y="394" on="1"/>
        <pt x="733" y="470" on="0"/>
        <pt x="616" y="545" on="0"/>
        <pt x="502" y="545" on="1"/>
        <pt x="307" y="545" on="1"/>
        <pt x="224" y="132" on="1"/>
        <pt x="401" y="132" on="1"/>
      </contour>
      <contour>
        <pt x="624" y="681" on="0"/>
        <pt x="789" y="784" on="0"/>
        <pt x="810" y="885" on="1"/>
        <pt x="815" y="912" on="0"/>
        <pt x="815" y="930" on="1"/>
        <pt x="815" y="1078" on="0"/>
        <pt x="572" y="1078" on="1"/>
        <pt x="413" y="1078" on="1"/>
        <pt x="334" y="681" on="1"/>
        <pt x="492" y="681" on="1"/>
      </contour>
    </TTGlyph>
    <TTGlyph name="C" xMin="141" yMin="-21" xMax="1031" yMax="1382">
      <contour>
        <pt x="301" y="-21" on="0"/>
        <pt x="141" y="182" on="0"/>
        <pt x="141" y="386" on="1"/>
        <pt x="141" y="516" on="0"/>
        <pt x="175" y="685" on="1"/>
        <pt x="245" y="1035" on="0"/>
        <pt x="537" y="1382" on="0"/>
        <pt x="749" y="1382" on="1"/>
        <pt x="832" y="1382" on="0"/>
        <pt x="967" y="1319" on="0"/>
        <pt x="1031" y="1264" on="1"/>
        <pt x="975" y="1189" on="1"/>
        <pt x="923" y="1230" on="0"/>
        <pt x="806" y="1280" on="0"/>
        <pt x="732" y="1280" on="1"/>
        <pt x="583" y="1280" on="0"/>
        <pt x="353" y="999" on="0"/>
        <pt x="289" y="677" on="1"/>
        <pt x="255" y="508" on="0"/>
        <pt x="255" y="387" on="1"/>
        <pt x="255" y="230" on="0"/>
        <pt x="370" y="81" on="0"/>
        <pt x="483" y="81" on="1"/>
        <pt x="533" y="81" on="0"/>
        <pt x="626" y="108" on="0"/>
        <pt x="706" y="148" on="0"/>
        <pt x="768" y="184" on="1"/>
        <pt x="804" y="101" on="1"/>
        <pt x="736" y="59" on="0"/>
        <pt x="638" y="10" on="0"/>
        <pt x="520" y="-21" on="0"/>
        <pt x="450" y="-21" on="1"/>
      </contour>
    </TTGlyph>
    <TTGlyph name="C.hex" xMin="118" yMin="-21" xMax="1016" yMax="1231">
      <contour>
        <pt x="290" y="-21" on="0"/>
        <pt x="118" y="173" on="0"/>
        <pt x="118" y="368" on="1"/>
        <pt x="118" y="474" on="0"/>
        <pt x="145" y="609" on="1"/>
        <pt x="208" y="922" on="0"/>
        <pt x="499" y="1231" on="0"/>
        <pt x="719" y="1231" on="1"/>
        <pt x="806" y="1231" on="0"/>
        <pt x="949" y="1168" on="0"/>
        <pt x="1016" y="1113" on="1"/>
        <pt x="938" y="1010" on="1"/>
        <pt x="884" y="1048" on="0"/>
        <pt x="768" y="1095" on="0"/>
        <pt x="693" y="1095" on="1"/>
        <pt x="559" y="1095" on="0"/>
        <pt x="353" y="873" on="0"/>
        <pt x="299" y="601" on="1"/>
        <pt x="273" y="468" on="0"/>
        <pt x="273" y="378" on="1"/>
        <pt x="273" y="242" on="0"/>
        <pt x="384" y="115" on="0"/>
        <pt x="496" y="115" on="1"/>
        <pt x="563" y="115" on="0"/>
        <pt x="684" y="162" on="0"/>
        <pt x="773" y="210" on="1"/>
        <pt x="818" y="102" on="1"/>
        <pt x="745" y="59" on="0"/>
        <pt x="646" y="10" on="0"/>
        <pt x="524" y="-21" on="0"/>
        <pt x="450" y="-21" on="1"/>
      </contour>
    </TTGlyph>
    <TTGlyph name="Cacute" xMin="36" yMin="-21" xMax="1050" yMax="1870">
      <component glyphName="C" x="-105" y="0" flags="0x0"/>
      <component glyphName="acutecomb.case" x="-61" y="0" flags="0x0"/>
    </TTGlyph>
    <TTGlyph name="Ccaron" xMin="36" yMin="-21" xMax="1053" yMax="1870">
      <component glyphName="C" x="-105" y="0" flags="0x0"/>
      <component glyphName="uni030C.case" x="-61" y="0" flags="0x0"/>
    </TTGlyph>
    <TTGlyph name="Ccedilla" xMin="141" yMin="-303" xMax="1031" yMax="1382">
      <contour>
        <pt x="301" y="-21" on="0"/>
        <pt x="141" y="182" on="0"/>
        <pt x="141" y="386" on="1"/>
        <pt x="141" y="516" on="0"/>
        <pt x="175" y="685" on="1"/>
        <pt x="245" y="1035" on="0"/>
        <pt x="537" y="1382" on="0"/>
        <pt x="749" y="1382" on="1"/>
        <pt x="832" y="1382" on="0"/>
        <pt x="967" y="1319" on="0"/>
        <pt x="1031" y="1264" on="1"/>
        <pt x="975" y="1189" on="1"/>
        <pt x="923" y="1230" on="0"/>
        <pt x="806" y="1280" on="0"/>
        <pt x="732" y="1280" on="1"/>
        <pt x="583" y="1280" on="0"/>
        <pt x="353" y="999" on="0"/>
        <pt x="289" y="677" on="1"/>
        <pt x="255" y="508" on="0"/>
        <pt x="255" y="387" on="1"/>
        <pt x="255" y="230" on="0"/>
        <pt x="370" y="81" on="0"/>
        <pt x="483" y="81" on="1"/>
        <pt x="533" y="81" on="0"/>
        <pt x="626" y="108" on="0"/>
        <pt x="706" y="148" on="0"/>
        <pt x="768" y="184" on="1"/>
        <pt x="804" y="101" on="1"/>
        <pt x="748" y="67" on="0"/>
        <pt x="664" y="22" on="0"/>
        <pt x="618" y="4" on="1"/>
        <pt x="616" y="-51" on="0"/>
        <pt x="609" y="-87" on="1"/>
        <pt x="588" y="-195" on="0"/>
        <pt x="437" y="-303" on="0"/>
        <pt x="332" y="-303" on="1"/>
        <pt x="271" y="-303" on="0"/>
        <pt x="210" y="-286" on="1"/>
        <pt x="242" y="-162" on="1"/>
        <pt x="270" y="-166" on="0"/>
        <pt x="320" y="-166" on="1"/>
        <pt x="388" y="-166" on="0"/>
        <pt x="465" y="-107" on="0"/>
        <pt x="477" y="-47" on="1"/>
        <pt x="485" y="-20" on="1"/>
        <pt x="473" y="-21" on="0"/>
        <pt x="450" y="-21" on="1"/>
      </contour>
    </TTGlyph>
    <TTGlyph name="Ccircumflex" xMin="36" yMin="-21" xMax="974" yMax="1870">
      <component glyphName="C" x="-105" y="0" flags="0x0"/>
      <component glyphName="uni0302.case" x="-61" y="0" flags="0x0"/>
    </TTGlyph>
    <TTGlyph name="Cdotaccent" xMin="36" yMin="-21" xMax="926" yMax="1842">
      <component glyphName="C" x="-105" y="0" flags="0x0"/>
      <component glyphName="uni0307" x="0" y="309" flags="0x4"/>
    </TTGlyph>
    <TTGlyph name="D" xMin="61" yMin="0" xMax="1000" yMax="1362">
      <contour>
        <pt x="1000" y="1362" on="0"/>
        <pt x="1000" y="949" on="1"/>
        <pt x="1000" y="831" on="0"/>
        <pt x="970" y="681" on="1"/>
        <pt x="925" y="458" on="0"/>
        <pt x="752" y="153" on="0"/>
        <pt x="517" y="0" on="0"/>
        <pt x="379" y="0" on="1"/>
        <pt x="61" y="0" on="1"/>
        <pt x="333" y="1362" on="1"/>
        <pt x="632" y="1362" on="1"/>
      </contour>
      <contour>
        <pt x="425" y="1259" on="1"/>
        <pt x="194" y="102" on="1"/>
        <pt x="397" y="102" on="1"/>
        <pt x="557" y="102" on="0"/>
        <pt x="790" y="383" on="0"/>
        <pt x="850" y="684" on="1"/>
        <pt x="882" y="847" on="0"/>
        <pt x="882" y="956" on="1"/>
        <pt x="882" y="1113" on="0"/>
        <pt x="755" y="1259" on="0"/>
        <pt x="625" y="1259" on="1"/>
      </contour>
    </TTGlyph>
    <TTGlyph name="D.hex" xMin="46" yMin="0" xMax="993" yMax="1210">
      <contour>
        <pt x="993" y="1210" on="0"/>
        <pt x="993" y="821" on="1"/>
        <pt x="993" y="724" on="0"/>
        <pt x="969" y="605" on="1"/>
        <pt x="929" y="407" on="0"/>
        <pt x="760" y="135" on="0"/>
        <pt x="522" y="0" on="0"/>
        <pt x="379" y="0" on="1"/>
        <pt x="46" y="0" on="1"/>
        <pt x="288" y="1210" on="1"/>
        <pt x="602" y="1210" on="1"/>
      </contour>
      <contour>
        <pt x="412" y="1074" on="1"/>
        <pt x="225" y="136" on="1"/>
        <pt x="406" y="136" on="1"/>
        <pt x="556" y="136" on="0"/>
        <pt x="760" y="356" on="0"/>
        <pt x="810" y="607" on="1"/>
        <pt x="834" y="729" on="0"/>
        <pt x="834" y="815" on="1"/>
        <pt x="834" y="953" on="0"/>
        <pt x="713" y="1074" on="0"/>
        <pt x="590" y="1074" on="1"/>
      </contour>
    </TTGlyph>
    <TTGlyph name="Dcaron" xMin="-44" yMin="0" xMax="994" yMax="1870">
      <component glyphName="D" x="-105" y="0" flags="0x0"/>
      <component glyphName="uni030C.case" x="-120" y="0" flags="0x0"/>
    </TTGlyph>
    <TTGlyph name="Dcroat" xMin="-68" yMin="0" xMax="895" yMax="1362">
      <component glyphName="Eth" x="-105" y="0" flags="0x0"/>
    </TTGlyph>
    <TTGlyph name="E" xMin="84" yMin="0" xMax="1036" yMax="1362">
      <contour>
        <pt x="356" y="1362" on="1"/>
        <pt x="1036" y="1362" on="1"/>
        <pt x="1015" y="1259" on="1"/>
        <pt x="448" y="1259" on="1"/>
        <pt x="344" y="736" on="1"/>
        <pt x="842" y="736" on="1"/>
        <pt x="821" y="633" on="1"/>
        <pt x="323" y="633" on="1"/>
        <pt x="217" y="102" on="1"/>
        <pt x="791" y="102" on="1"/>
        <pt x="771" y="0" on="1"/>
        <pt x="84" y="0" on="1"/>
      </contour>
    </TTGlyph>
    <TTGlyph name="E.hex" xMin="69" yMin="0" xMax="1020" yMax="1210">
      <contour>
        <pt x="311" y="1210" on="1"/>
        <pt x="1020" y="1210" on="1"/>
        <pt x="992" y="1074" on="1"/>
        <pt x="434" y="1074" on="1"/>
        <pt x="355" y="677" on="1"/>
        <pt x="845" y="677" on="1"/>
        <pt x="818" y="541" on="1"/>
        <pt x="328" y="541" on="1"/>
        <pt x="247" y="136" on="1"/>
        <pt x="813" y="136" on="1"/>
        <pt x="786" y="0" on="1"/>
        <pt x="69" y="0" on="1"/>
      </contour>
    </TTGlyph>
    <TTGlyph name="Eacute" xMin="-21" yMin="0" xMax="1016" yMax="1870">
      <component glyphName="E" x="-105" y="0" flags="0x0"/>
      <component glyphName="acutecomb.case" x="-95" y="0" flags="0x0"/>
    </TTGlyph>
    <TTGlyph name="Ebreve" xMin="-21" yMin="0" xMax="984" yMax="1818">
      <component glyphName="E" x="-105" y="0" flags="0x0"/>
      <component glyphName="uni0306.case" x="-95" y="0" flags="0x0"/>
    </TTGlyph>
    <TTGlyph name="Ecaron" xMin="-21" yMin="0" xMax="1019" yMax="1870">
      <component glyphName="E" x="-105" y="0" flags="0x0"/>
      <component glyphName="uni030C.case" x="-95" y="0" flags="0x0"/>
    </TTGlyph>
    <TTGlyph name="Ecircumflex" xMin="-21" yMin="0" xMax="940" yMax="1870">
      <component glyphName="E" x="-105" y="0" flags="0x0"/>
      <component glyphName="uni0302.case" x="-95" y="0" flags="0x0"/>
    </TTGlyph>
    <TTGlyph name="Edieresis" xMin="-21" yMin="0" xMax="937" yMax="1696">
      <component glyphName="E" x="-105" y="0" flags="0x0"/>
      <component glyphName="uni0308.case" x="-95" y="0" flags="0x0"/>
    </TTGlyph>
    <TTGlyph name="Edotaccent" xMin="-21" yMin="0" xMax="931" yMax="1842">
      <component glyphName="E" x="-105" y="0" flags="0x0"/>
      <component glyphName="uni0307" x="-34" y="309" flags="0x4"/>
    </TTGlyph>
    <TTGlyph name="Egrave" xMin="-21" yMin="0" xMax="931" yMax="1870">
      <component glyphName="E" x="-105" y="0" flags="0x0"/>
      <component glyphName="gravecomb.case" x="-95" y="0" flags="0x0"/>
    </TTGlyph>
    <TTGlyph name="Emacron" xMin="-21" yMin="0" xMax="965" yMax="1710">
      <component glyphName="E" x="-105" y="0" flags="0x0"/>
      <component glyphName="uni0304.case" x="-95" y="0" flags="0x0"/>
    </TTGlyph>
    <TTGlyph name="Eogonek" xMin="84" yMin="-303" xMax="1036" yMax="1362">
      <contour>
        <pt x="356" y="1362" on="1"/>
        <pt x="1036" y="1362" on="1"/>
        <pt x="1015" y="1259" on="1"/>
        <pt x="448" y="1259" on="1"/>
        <pt x="344" y="736" on="1"/>
        <pt x="842" y="736" on="1"/>
        <pt x="821" y="633" on="1"/>
        <pt x="323" y="633" on="1"/>
        <pt x="217" y="102" on="1"/>
        <pt x="791" y="102" on="1"/>
        <pt x="774" y="-1" on="1"/>
        <pt x="686" y="-24" on="0"/>
        <pt x="586" y="-111" on="0"/>
        <pt x="586" y="-159" on="1"/>
        <pt x="586" y="-180" on="0"/>
        <pt x="617" y="-200" on="0"/>
        <pt x="651" y="-200" on="1"/>
        <pt x="677" y="-200" on="0"/>
        <pt x="725" y="-187" on="1"/>
        <pt x="730" y="-283" on="1"/>
        <pt x="668" y="-303" on="0"/>
        <pt x="610" y="-303" on="1"/>
        <pt x="542" y="-303" on="0"/>
        <pt x="463" y="-246" on="0"/>
        <pt x="463" y="-194" on="1"/>
        <pt x="463" y="-181" on="0"/>
        <pt x="466" y="-164" on="1"/>
        <pt x="487" y="-60" on="0"/>
        <pt x="633" y="2" on="1"/>
        <pt x="84" y="0" on="1"/>
      </contour>
    </TTGlyph>
    <TTGlyph name="Eth" xMin="37" yMin="0" xMax="1000" yMax="1362">
      <contour>
        <pt x="57" y="739" on="1"/>
        <pt x="208" y="739" on="1"/>
        <pt x="333" y="1362" on="1"/>
        <pt x="632" y="1362" on="1"/>
        <pt x="1000" y="1362" on="0"/>
        <pt x="1000" y="949" on="1"/>
        <pt x="1000" y="831" on="0"/>
        <pt x="970" y="681" on="1"/>
        <pt x="925" y="458" on="0"/>
        <pt x="752" y="153" on="0"/>
        <pt x="517" y="0" on="0"/>
        <pt x="379" y="0" on="1"/>
        <pt x="61" y="0" on="1"/>
        <pt x="188" y="637" on="1"/>
        <pt x="37" y="637" on="1"/>
      </contour>
      <contour>
        <pt x="425" y="1259" on="1"/>
        <pt x="321" y="739" on="1"/>
        <pt x="591" y="739" on="1"/>
        <pt x="571" y="637" on="1"/>
        <pt x="301" y="637" on="1"/>
        <pt x="194" y="102" on="1"/>
        <pt x="397" y="102" on="1"/>
        <pt x="557" y="102" on="0"/>
        <pt x="790" y="383" on="0"/>
        <pt x="850" y="684" on="1"/>
        <pt x="882" y="847" on="0"/>
        <pt x="882" y="956" on="1"/>
        <pt x="882" y="1113" on="0"/>
        <pt x="755" y="1259" on="0"/>
        <pt x="625" y="1259" on="1"/>
      </contour>
    </TTGlyph>
    <TTGlyph name="F" xMin="99" yMin="0" xMax="1060" yMax="1362">
      <contour>
        <pt x="371" y="1362" on="1"/>
        <pt x="1060" y="1362" on="1"/>
        <pt x="1039" y="1259" on="1"/>
        <pt x="463" y="1259" on="1"/>
        <pt x="356" y="720" on="1"/>
        <pt x="781" y="720" on="1"/>
        <pt x="760" y="618" on="1"/>
        <pt x="335" y="618" on="1"/>
        <pt x="212" y="0" on="1"/>
        <pt x="99" y="0" on="1"/>
      </contour>
    </TTGlyph>
    <TTGlyph name="F.hex" xMin="84" yMin="0" xMax="1045" yMax="1210">
      <contour>
        <pt x="326" y="1210" on="1"/>
        <pt x="1045" y="1210" on="1"/>
        <pt x="1017" y="1074" on="1"/>
        <pt x="449" y="1074" on="1"/>
        <pt x="365" y="654" on="1"/>
        <pt x="781" y="654" on="1"/>
        <pt x="754" y="518" on="1"/>
        <pt x="338" y="518" on="1"/>
        <pt x="235" y="0" on="1"/>
        <pt x="84" y="0" on="1"/>
      </contour>
    </TTGlyph>
    <TTGlyph name="G" xMin="142" yMin="-21" xMax="1032" yMax="1382">
      <contour>
        <pt x="142" y="-21" on="0"/>
        <pt x="142" y="388" on="1"/>
        <pt x="142" y="517" on="0"/>
        <pt x="175" y="685" on="1"/>
        <pt x="245" y="1032" on="0"/>
        <pt x="536" y="1382" on="0"/>
        <pt x="757" y="1382" on="1"/>
        <pt x="830" y="1382" on="0"/>
        <pt x="965" y="1339" on="0"/>
        <pt x="1032" y="1295" on="1"/>
        <pt x="982" y="1210" on="1"/>
        <pt x="919" y="1247" on="0"/>
        <pt x="805" y="1280" on="0"/>
        <pt x="745" y="1280" on="1"/>
        <pt x="410" y="1280" on="0"/>
        <pt x="289" y="677" on="1"/>
        <pt x="255" y="511" on="0"/>
        <pt x="255" y="389" on="1"/>
        <pt x="255" y="232" on="0"/>
        <pt x="375" y="81" on="0"/>
        <pt x="499" y="81" on="1"/>
        <pt x="589" y="81" on="0"/>
        <pt x="694" y="115" on="1"/>
        <pt x="772" y="486" on="1"/>
        <pt x="510" y="486" on="1"/>
        <pt x="530" y="588" on="1"/>
        <pt x="905" y="588" on="1"/>
        <pt x="800" y="45" on="1"/>
        <pt x="636" y="-21" on="0"/>
        <pt x="476" y="-21" on="1"/>
      </contour>
    </TTGlyph>
    <TTGlyph name="Gbreve" xMin="37" yMin="-21" xMax="1034" yMax="1900">
      <component glyphName="G" x="-105" y="0" flags="0x0"/>
      <component glyphName="uni0306" x="0" y="309" flags="0x4"/>
    </TTGlyph>
    <TTGlyph name="Gcaron" xMin="37" yMin="-21" xMax="1053" yMax="1870">
      <component glyphName="G" x="-105" y="0" flags="0x0"/>
      <component glyphName="uni030C.case" x="-61" y="0" flags="0x0"/>
    </TTGlyph>
    <TTGlyph name="Gcircumflex" xMin="37" yMin="-21" xMax="974" yMax="1870">
      <component glyphName="G" x="-105" y="0" flags="0x0"/>
      <component glyphName="uni0302.case" x="-61" y="0" flags="0x0"/>
    </TTGlyph>
    <TTGlyph name="Gdotaccent" xMin="37" yMin="-21" xMax="927" yMax="1842">
      <component glyphName="G" x="-105" y="0" flags="0x0"/>
      <component glyphName="uni0307" x="0" y="309" flags="0x4"/>
    </TTGlyph>
    <TTGlyph name="H" xMin="61" yMin="0" xMax="1060" yMax="1362">
      <contour>
        <pt x="333" y="1362" on="1"/>
        <pt x="446" y="1362" on="1"/>
        <pt x="321" y="739" on="1"/>
        <pt x="822" y="739" on="1"/>
        <pt x="947" y="1362" on="1"/>
        <pt x="1060" y="1362" on="1"/>
        <pt x="788" y="0" on="1"/>
        <pt x="675" y="0" on="1"/>
        <pt x="802" y="637" on="1"/>
        <pt x="301" y="637" on="1"/>
        <pt x="174" y="0" on="1"/>
        <pt x="61" y="0" on="1"/>
      </contour>
    </TTGlyph>
    <TTGlyph name="Hbar" xMin="61" yMin="0" xMax="1177" yMax="1362">
      <contour>
        <pt x="279" y="1091" on="1"/>
        <pt x="128" y="1091" on="1"/>
        <pt x="148" y="1193" on="1"/>
        <pt x="299" y="1193" on="1"/>
        <pt x="333" y="1362" on="1"/>
        <pt x="446" y="1362" on="1"/>
        <pt x="412" y="1193" on="1"/>
        <pt x="913" y="1193" on="1"/>
        <pt x="947" y="1362" on="1"/>
        <pt x="1060" y="1362" on="1"/>
        <pt x="1026" y="1193" on="1"/>
        <pt x="1177" y="1193" on="1"/>
        <pt x="1157" y="1091" on="1"/>
        <pt x="1006" y="1091" on="1"/>
        <pt x="788" y="0" on="1"/>
        <pt x="675" y="0" on="1"/>
        <pt x="802" y="637" on="1"/>
        <pt x="301" y="637" on="1"/>
        <pt x="174" y="0" on="1"/>
        <pt x="61" y="0" on="1"/>
      </contour>
      <contour>
        <pt x="822" y="739" on="1"/>
        <pt x="893" y="1091" on="1"/>
        <pt x="392" y="1091" on="1"/>
        <pt x="321" y="739" on="1"/>
      </contour>
    </TTGlyph>
    <TTGlyph name="Hcircumflex" xMin="-44" yMin="0" xMax="955" yMax="1870">
      <component glyphName="H" x="-105" y="0" flags="0x0"/>
      <component glyphName="uni0302.case" x="-105" y="0" flags="0x0"/>
    </TTGlyph>
    <TTGlyph name="I" xMin="61" yMin="0" xMax="909" yMax="1362">
      <contour>
        <pt x="79" y="91" on="1"/>
        <pt x="312" y="102" on="1"/>
        <pt x="543" y="1259" on="1"/>
        <pt x="315" y="1271" on="1"/>
        <pt x="333" y="1362" on="1"/>
        <pt x="909" y="1362" on="1"/>
        <pt x="891" y="1271" on="1"/>
        <pt x="657" y="1259" on="1"/>
        <pt x="426" y="102" on="1"/>
        <pt x="655" y="91" on="1"/>
        <pt x="637" y="0" on="1"/>
        <pt x="61" y="0" on="1"/>
      </contour>
    </TTGlyph>
    <TTGlyph name="I.sans" xMin="84" yMin="0" xMax="470" yMax="1362">
      <contour>
        <pt x="356" y="1362" on="1"/>
        <pt x="470" y="1362" on="1"/>
        <pt x="198" y="0" on="1"/>
        <pt x="84" y="0" on="1"/>
      </contour>
    </TTGlyph>
    <TTGlyph name="I.sans.prop" xMin="368" yMin="0" xMax="753" yMax="1362">
      <contour>
        <pt x="640" y="1362" on="1"/>
        <pt x="753" y="1362" on="1"/>
        <pt x="481" y="0" on="1"/>
        <pt x="368" y="0" on="1"/>
      </contour>
    </TTGlyph>
    <TTGlyph name="Iacute" xMin="-44" yMin="0" xMax="931" yMax="1870">
      <component glyphName="I" x="-105" y="0" flags="0x0"/>
      <component glyphName="acutecomb.case" x="-180" y="0" flags="0x0"/>
    </TTGlyph>
    <TTGlyph name="Ibreve" xMin="-44" yMin="0" xMax="899" yMax="1818">
      <component glyphName="I" x="-105" y="0" flags="0x0"/>
      <component glyphName="uni0306.case" x="-180" y="0" flags="0x0"/>
    </TTGlyph>
    <TTGlyph name="Icircumflex" xMin="-44" yMin="0" xMax="855" yMax="1870">
      <component glyphName="I" x="-105" y="0" flags="0x0"/>
      <component glyphName="uni0302.case" x="-180" y="0" flags="0x0"/>
    </TTGlyph>
    <TTGlyph name="Idieresis" xMin="-44" yMin="0" xMax="852" yMax="1696">
      <component glyphName="I" x="-105" y="0" flags="0x0"/>
      <component glyphName="uni0308.case" x="-180" y="0" flags="0x0"/>
    </TTGlyph>
    <TTGlyph name="Idotaccent" xMin="-44" yMin="0" xMax="804" yMax="1842">
      <component glyphName="I" x="-105" y="0" flags="0x0"/>
      <component glyphName="uni0307" x="-119" y="309" flags="0x4"/>
    </TTGlyph>
    <TTGlyph name="Igrave" xMin="-44" yMin="0" xMax="804" yMax="1870">
      <component glyphName="I" x="-105" y="0" flags="0x0"/>
      <component glyphName="gravecomb.case" x="-180" y="0" flags="0x0"/>
    </TTGlyph>
    <TTGlyph name="Imacron" xMin="-44" yMin="0" xMax="880" yMax="1710">
      <component glyphName="I" x="-105" y="0" flags="0x0"/>
      <component glyphName="uni0304.case" x="-180" y="0" flags="0x0"/>
    </TTGlyph>
    <TTGlyph name="Iogonek" xMin="61" yMin="-303" xMax="909" yMax="1362">
      <contour>
        <pt x="79" y="91" on="1"/>
        <pt x="312" y="102" on="1"/>
        <pt x="543" y="1259" on="1"/>
        <pt x="315" y="1271" on="1"/>
        <pt x="333" y="1362" on="1"/>
        <pt x="909" y="1362" on="1"/>
        <pt x="891" y="1271" on="1"/>
        <pt x="657" y="1259" on="1"/>
        <pt x="426" y="102" on="1"/>
        <pt x="655" y="91" on="1"/>
        <pt x="637" y="0" on="1"/>
        <pt x="639" y="-1" on="1"/>
        <pt x="551" y="-24" on="0"/>
        <pt x="451" y="-111" on="0"/>
        <pt x="451" y="-159" on="1"/>
        <pt x="451" y="-180" on="0"/>
        <pt x="482" y="-200" on="0"/>
        <pt x="516" y="-200" on="1"/>
        <pt x="542" y="-200" on="0"/>
        <pt x="590" y="-187" on="1"/>
        <pt x="595" y="-283" on="1"/>
        <pt x="533" y="-303" on="0"/>
        <pt x="475" y="-303" on="1"/>
        <pt x="407" y="-303" on="0"/>
        <pt x="328" y="-246" on="0"/>
        <pt x="328" y="-194" on="1"/>
        <pt x="328" y="-181" on="0"/>
        <pt x="331" y="-164" on="1"/>
        <pt x="352" y="-60" on="0"/>
        <pt x="498" y="2" on="1"/>
        <pt x="61" y="0" on="1"/>
      </contour>
    </TTGlyph>
    <TTGlyph name="Itilde" xMin="-44" yMin="0" xMax="925" yMax="1789">
      <component glyphName="I" x="-105" y="0" flags="0x0"/>
      <component glyphName="tildecomb.case" x="-180" y="0" flags="0x0"/>
    </TTGlyph>
    <TTGlyph name="J" xMin="1" yMin="-23" xMax="924" yMax="1362">
      <contour>
        <pt x="198" y="-23" on="0"/>
        <pt x="56" y="85" on="0"/>
        <pt x="1" y="193" on="1"/>
        <pt x="85" y="248" on="1"/>
        <pt x="130" y="164" on="0"/>
        <pt x="236" y="79" on="0"/>
        <pt x="315" y="80" on="1"/>
        <pt x="386" y="80" on="0"/>
        <pt x="508" y="150" on="0"/>
        <pt x="595" y="285" on="0"/>
        <pt x="614" y="378" on="1"/>
        <pt x="790" y="1259" on="1"/>
        <pt x="343" y="1259" on="1"/>
        <pt x="364" y="1362" on="1"/>
        <pt x="924" y="1362" on="1"/>
        <pt x="728" y="380" on="1"/>
        <pt x="702" y="255" on="0"/>
        <pt x="581" y="73" on="0"/>
        <pt x="408" y="-23" on="0"/>
        <pt x="306" y="-23" on="1"/>
      </contour>
    </TTGlyph>
    <TTGlyph name="Jcircumflex" xMin="-104" yMin="-23" xMax="885" yMax="1870">
      <component glyphName="J" x="-105" y="0" flags="0x0"/>
      <component glyphName="uni0302.case" x="-150" y="0" flags="0x0"/>
    </TTGlyph>
    <TTGlyph name="K" xMin="61" yMin="0" xMax="1047" yMax="1362">
      <contour>
        <pt x="333" y="1362" on="1"/>
        <pt x="446" y="1362" on="1"/>
        <pt x="319" y="725" on="1"/>
        <pt x="916" y="1362" on="1"/>
        <pt x="1047" y="1362" on="1"/>
        <pt x="417" y="703" on="1"/>
        <pt x="805" y="0" on="1"/>
        <pt x="663" y="0" on="1"/>
        <pt x="307" y="666" on="1"/>
        <pt x="174" y="0" on="1"/>
        <pt x="61" y="0" on="1"/>
      </contour>
    </TTGlyph>
    <TTGlyph name="L" xMin="61" yMin="0" xMax="733" yMax="1362">
      <contour>
        <pt x="333" y="1362" on="1"/>
        <pt x="446" y="1362" on="1"/>
        <pt x="194" y="102" on="1"/>
        <pt x="733" y="102" on="1"/>
        <pt x="713" y="0" on="1"/>
        <pt x="61" y="0" on="1"/>
      </contour>
    </TTGlyph>
    <TTGlyph name="Lacute" xMin="-44" yMin="0" xMax="723" yMax="1870">
      <component glyphName="L" x="-105" y="0" flags="0x0"/>
      <component glyphName="acutecomb.case" x="-388" y="0" flags="0x0"/>
    </TTGlyph>
    <TTGlyph name="M" xMin="44" yMin="0" xMax="1273" yMax="1362">
      <contour>
        <pt x="611" y="157" on="1"/>
        <pt x="1113" y="1362" on="1"/>
        <pt x="1273" y="1362" on="1"/>
        <pt x="1108" y="0" on="1"/>
        <pt x="1000" y="0" on="1"/>
        <pt x="1144" y="1193" on="1"/>
        <pt x="648" y="0" on="1"/>
        <pt x="504" y="0" on="1"/>
        <pt x="484" y="1193" on="1"/>
        <pt x="152" y="0" on="1"/>
        <pt x="44" y="0" on="1"/>
        <pt x="423" y="1362" on="1"/>
        <pt x="591" y="1362" on="1"/>
      </contour>
    </TTGlyph>
    <TTGlyph name="N" xMin="61" yMin="0" xMax="1060" yMax="1362">
      <contour>
        <pt x="333" y="1362" on="1"/>
        <pt x="459" y="1362" on="1"/>
        <pt x="742" y="295" on="1"/>
        <pt x="955" y="1362" on="1"/>
        <pt x="1060" y="1362" on="1"/>
        <pt x="788" y="0" on="1"/>
        <pt x="694" y="0" on="1"/>
        <pt x="393" y="1137" on="1"/>
        <pt x="166" y="0" on="1"/>
        <pt x="61" y="0" on="1"/>
      </contour>
    </TTGlyph>
    <TTGlyph name="Nacute" xMin="-44" yMin="0" xMax="1006" yMax="1870">
      <component glyphName="N" x="-105" y="0" flags="0x0"/>
      <component glyphName="acutecomb.case" x="-105" y="0" flags="0x0"/>
    </TTGlyph>
    <TTGlyph name="Ncaron" xMin="-44" yMin="0" xMax="1009" yMax="1870">
      <component glyphName="N" x="-105" y="0" flags="0x0"/>
      <component glyphName="uni030C.case" x="-105" y="0" flags="0x0"/>
    </TTGlyph>
    <TTGlyph name="Ntilde" xMin="-44" yMin="0" xMax="1000" yMax="1789">
      <component glyphName="N" x="-105" y="0" flags="0x0"/>
      <component glyphName="tildecomb.case" x="-105" y="0" flags="0x0"/>
    </TTGlyph>
    <TTGlyph name="O" xMin="113" yMin="-19" xMax="1008" yMax="1380">
      <contour>
        <pt x="113" y="-19" on="0"/>
        <pt x="113" y="374" on="1"/>
        <pt x="113" y="507" on="0"/>
        <pt x="149" y="685" on="1"/>
        <pt x="217" y="1028" on="0"/>
        <pt x="494" y="1380" on="0"/>
        <pt x="696" y="1380" on="1"/>
        <pt x="853" y="1380" on="0"/>
        <pt x="1008" y="1188" on="0"/>
        <pt x="1008" y="992" on="1"/>
        <pt x="1008" y="859" on="0"/>
        <pt x="972" y="677" on="1"/>
        <pt x="928" y="456" on="0"/>
        <pt x="770" y="144" on="0"/>
        <pt x="554" y="-19" on="0"/>
        <pt x="424" y="-19" on="1"/>
      </contour>
      <contour>
        <pt x="734" y="82" on="0"/>
        <pt x="855" y="685" on="1"/>
        <pt x="894" y="880" on="0"/>
        <pt x="894" y="1006" on="1"/>
        <pt x="894" y="1148" on="0"/>
        <pt x="792" y="1280" on="0"/>
        <pt x="684" y="1281" on="1"/>
        <pt x="581" y="1280" on="0"/>
        <pt x="425" y="1153" on="0"/>
        <pt x="308" y="887" on="0"/>
        <pt x="266" y="677" on="1"/>
        <pt x="229" y="495" on="0"/>
        <pt x="229" y="367" on="1"/>
        <pt x="229" y="221" on="0"/>
        <pt x="331" y="81" on="0"/>
        <pt x="436" y="80" on="1"/>
      </contour>
    </TTGlyph>
    <TTGlyph name="Oacute" xMin="8" yMin="-19" xMax="1006" yMax="1870">
      <component glyphName="O" x="-105" y="0" flags="0x0"/>
      <component glyphName="acutecomb.case" x="-105" y="0" flags="0x0"/>
    </TTGlyph>
    <TTGlyph name="Obreve" xMin="8" yMin="-19" xMax="974" yMax="1818">
      <component glyphName="O" x="-105" y="0" flags="0x0"/>
      <component glyphName="uni0306.case" x="-105" y="0" flags="0x0"/>
    </TTGlyph>
    <TTGlyph name="Ocircumflex" xMin="8" yMin="-19" xMax="930" yMax="1870">
      <component glyphName="O" x="-105" y="0" flags="0x0"/>
      <component glyphName="uni0302.case" x="-105" y="0" flags="0x0"/>
    </TTGlyph>
    <TTGlyph name="Odieresis" xMin="8" yMin="-19" xMax="927" yMax="1696">
      <component glyphName="O" x="-105" y="0" flags="0x0"/>
      <component glyphName="uni0308.case" x="-105" y="0" flags="0x0"/>
    </TTGlyph>
    <TTGlyph name="Ograve" xMin="8" yMin="-19" xMax="903" yMax="1870">
      <component glyphName="O" x="-105" y="0" flags="0x0"/>
      <component glyphName="gravecomb.case" x="-105" y="0" flags="0x0"/>
    </TTGlyph>
    <TTGlyph name="Omacron" xMin="8" yMin="-19" xMax="955" yMax="1710">
      <component glyphName="O" x="-105" y="0" flags="0x0"/>
      <component glyphName="uni0304.case" x="-105" y="0" flags="0x0"/>
    </TTGlyph>
    <TTGlyph name="Otilde" xMin="8" yMin="-19" xMax="1000" yMax="1789">
      <component glyphName="O" x="-105" y="0" flags="0x0"/>
      <component glyphName="tildecomb.case" x="-105" y="0" flags="0x0"/>
    </TTGlyph>
    <TTGlyph name="P" xMin="61" yMin="0" xMax="978" yMax="1362">
      <contour>
        <pt x="333" y="1362" on="1"/>
        <pt x="621" y="1362" on="1"/>
        <pt x="798" y="1362" on="0"/>
        <pt x="978" y="1194" on="0"/>
        <pt x="978" y="1042" on="1"/>
        <pt x="978" y="990" on="0"/>
        <pt x="965" y="920" on="1"/>
        <pt x="924" y="719" on="0"/>
        <pt x="652" y="486" on="0"/>
        <pt x="432" y="486" on="1"/>
        <pt x="352" y="486" on="0"/>
        <pt x="276" y="494" on="1"/>
        <pt x="174" y="0" on="1"/>
        <pt x="61" y="0" on="1"/>
      </contour>
      <contour>
        <pt x="375" y="588" on="0"/>
        <pt x="438" y="588" on="1"/>
        <pt x="617" y="588" on="0"/>
        <pt x="812" y="758" on="0"/>
        <pt x="846" y="922" on="1"/>
        <pt x="858" y="982" on="0"/>
        <pt x="858" y="1033" on="1"/>
        <pt x="858" y="1143" on="0"/>
        <pt x="738" y="1259" on="0"/>
        <pt x="610" y="1259" on="1"/>
        <pt x="425" y="1259" on="1"/>
        <pt x="288" y="594" on="1"/>
      </contour>
    </TTGlyph>
    <TTGlyph name="Q" xMin="113" yMin="-310" xMax="1008" yMax="1380">
      <contour>
        <pt x="478" y="-310" on="0"/>
        <pt x="366" y="-188" on="0"/>
        <pt x="366" y="-61" on="1"/>
        <pt x="366" y="-47" on="0"/>
        <pt x="368" y="-15" on="1"/>
        <pt x="113" y="20" on="0"/>
        <pt x="113" y="375" on="1"/>
        <pt x="113" y="508" on="0"/>
        <pt x="149" y="685" on="1"/>
        <pt x="217" y="1028" on="0"/>
        <pt x="494" y="1380" on="0"/>
        <pt x="696" y="1380" on="1"/>
        <pt x="853" y="1380" on="0"/>
        <pt x="1008" y="1188" on="0"/>
        <pt x="1008" y="992" on="1"/>
        <pt x="1008" y="859" on="0"/>
        <pt x="972" y="677" on="1"/>
        <pt x="910" y="366" on="0"/>
        <pt x="652" y="6" on="0"/>
        <pt x="470" y="-20" on="1"/>
        <pt x="469" y="-39" on="0"/>
        <pt x="468" y="-57" on="1"/>
        <pt x="468" y="-137" on="0"/>
        <pt x="541" y="-208" on="0"/>
        <pt x="617" y="-208" on="1"/>
        <pt x="660" y="-208" on="0"/>
        <pt x="738" y="-192" on="1"/>
        <pt x="742" y="-286" on="1"/>
        <pt x="676" y="-310" on="0"/>
        <pt x="582" y="-310" on="1"/>
      </contour>
      <contour>
        <pt x="734" y="82" on="0"/>
        <pt x="855" y="685" on="1"/>
        <pt x="894" y="880" on="0"/>
        <pt x="894" y="1006" on="1"/>
        <pt x="894" y="1148" on="0"/>
        <pt x="792" y="1280" on="0"/>
        <pt x="684" y="1281" on="1"/>
        <pt x="581" y="1280" on="0"/>
        <pt x="425" y="1153" on="0"/>
        <pt x="308" y="887" on="0"/>
        <pt x="266" y="677" on="1"/>
        <pt x="229" y="495" on="0"/>
        <pt x="229" y="367" on="1"/>
        <pt x="229" y="221" on="0"/>
        <pt x="331" y="81" on="0"/>
        <pt x="436" y="80" on="1"/>
      </contour>
    </TTGlyph>
    <TTGlyph name="R" xMin="61" yMin="0" xMax="985" yMax="1362">
      <contour>
        <pt x="333" y="1362" on="1"/>
        <pt x="621" y="1362" on="1"/>
        <pt x="802" y="1362" on="0"/>
        <pt x="985" y="1208" on="0"/>
        <pt x="985" y="1069" on="1"/>
        <pt x="985" y="1021" on="0"/>
        <pt x="975" y="972" on="1"/>
        <pt x="943" y="816" on="0"/>
        <pt x="746" y="618" on="0"/>
        <pt x="585" y="596" on="1"/>
        <pt x="820" y="0" on="1"/>
        <pt x="680" y="0" on="1"/>
        <pt x="462" y="584" on="1"/>
        <pt x="290" y="584" on="1"/>
        <pt x="174" y="0" on="1"/>
        <pt x="61" y="0" on="1"/>
      </contour>
      <contour>
        <pt x="652" y="686" on="0"/>
        <pt x="828" y="835" on="0"/>
        <pt x="857" y="974" on="1"/>
        <pt x="866" y="1019" on="0"/>
        <pt x="866" y="1056" on="1"/>
        <pt x="866" y="1156" on="0"/>
        <pt x="742" y="1259" on="0"/>
        <pt x="610" y="1259" on="1"/>
        <pt x="425" y="1259" on="1"/>
        <pt x="311" y="686" on="1"/>
        <pt x="506" y="686" on="1"/>
      </contour>
    </TTGlyph>
    <TTGlyph name="Racute" xMin="-44" yMin="0" xMax="972" yMax="1870">
      <component glyphName="R" x="-105" y="0" flags="0x0"/>
      <component glyphName="acutecomb.case" x="-139" y="0" flags="0x0"/>
    </TTGlyph>
    <TTGlyph name="Rcaron" xMin="-44" yMin="0" xMax="975" yMax="1870">
      <component glyphName="R" x="-105" y="0" flags="0x0"/>
      <component glyphName="uni030C.case" x="-139" y="0" flags="0x0"/>
    </TTGlyph>
    <TTGlyph name="S" xMin="15" yMin="-17" xMax="923" yMax="1380">
      <contour>
        <pt x="228" y="-17" on="0"/>
        <pt x="86" y="32" on="0"/>
        <pt x="15" y="83" on="1"/>
        <pt x="62" y="166" on="1"/>
        <pt x="122" y="127" on="0"/>
        <pt x="253" y="85" on="0"/>
        <pt x="315" y="85" on="1"/>
        <pt x="390" y="85" on="0"/>
        <pt x="517" y="144" on="0"/>
        <pt x="603" y="250" on="0"/>
        <pt x="616" y="318" on="1"/>
        <pt x="621" y="341" on="0"/>
        <pt x="621" y="370" on="1"/>
        <pt x="621" y="427" on="0"/>
        <pt x="572" y="522" on="0"/>
        <pt x="500" y="597" on="0"/>
        <pt x="438" y="652" on="1"/>
        <pt x="371" y="711" on="0"/>
        <pt x="290" y="797" on="0"/>
        <pt x="234" y="912" on="0"/>
        <pt x="234" y="981" on="1"/>
        <pt x="234" y="1017" on="0"/>
        <pt x="241" y="1052" on="1"/>
        <pt x="260" y="1147" on="0"/>
        <pt x="372" y="1297" on="0"/>
        <pt x="534" y="1380" on="0"/>
        <pt x="627" y="1380" on="1"/>
        <pt x="703" y="1380" on="0"/>
        <pt x="858" y="1332" on="0"/>
        <pt x="923" y="1290" on="1"/>
        <pt x="873" y="1208" on="1"/>
        <pt x="755" y="1278" on="0"/>
        <pt x="625" y="1278" on="1"/>
        <pt x="562" y="1278" on="0"/>
        <pt x="449" y="1219" on="0"/>
        <pt x="370" y="1117" on="0"/>
        <pt x="357" y="1053" on="1"/>
        <pt x="352" y="1031" on="0"/>
        <pt x="352" y="1000" on="1"/>
        <pt x="352" y="944" on="0"/>
        <pt x="401" y="850" on="0"/>
        <pt x="470" y="778" on="0"/>
        <pt x="533" y="723" on="1"/>
        <pt x="600" y="665" on="0"/>
        <pt x="682" y="579" on="0"/>
        <pt x="739" y="462" on="0"/>
        <pt x="739" y="390" on="1"/>
        <pt x="739" y="356" on="0"/>
        <pt x="731" y="313" on="1"/>
        <pt x="711" y="217" on="0"/>
        <pt x="591" y="67" on="0"/>
        <pt x="413" y="-17" on="0"/>
        <pt x="309" y="-17" on="1"/>
      </contour>
    </TTGlyph>
    <TTGlyph name="Sacute" xMin="-90" yMin="-17" xMax="940" yMax="1870">
      <component glyphName="S" x="-105" y="0" flags="0x0"/>
      <component glyphName="acutecomb.case" x="-171" y="0" flags="0x0"/>
    </TTGlyph>
    <TTGlyph name="Scaron" xMin="-90" yMin="-17" xMax="943" yMax="1870">
      <component glyphName="S" x="-105" y="0" flags="0x0"/>
      <component glyphName="uni030C.case" x="-171" y="0" flags="0x0"/>
    </TTGlyph>
    <TTGlyph name="Scedilla" xMin="15" yMin="-303" xMax="923" yMax="1380">
      <contour>
        <pt x="228" y="-17" on="0"/>
        <pt x="86" y="32" on="0"/>
        <pt x="15" y="83" on="1"/>
        <pt x="62" y="166" on="1"/>
        <pt x="122" y="127" on="0"/>
        <pt x="253" y="85" on="0"/>
        <pt x="315" y="85" on="1"/>
        <pt x="390" y="85" on="0"/>
        <pt x="517" y="144" on="0"/>
        <pt x="603" y="250" on="0"/>
        <pt x="616" y="318" on="1"/>
        <pt x="621" y="341" on="0"/>
        <pt x="621" y="370" on="1"/>
        <pt x="621" y="427" on="0"/>
        <pt x="572" y="522" on="0"/>
        <pt x="500" y="597" on="0"/>
        <pt x="438" y="652" on="1"/>
        <pt x="371" y="711" on="0"/>
        <pt x="290" y="797" on="0"/>
        <pt x="234" y="912" on="0"/>
        <pt x="234" y="981" on="1"/>
        <pt x="234" y="1017" on="0"/>
        <pt x="241" y="1052" on="1"/>
        <pt x="260" y="1147" on="0"/>
        <pt x="372" y="1297" on="0"/>
        <pt x="534" y="1380" on="0"/>
        <pt x="627" y="1380" on="1"/>
        <pt x="703" y="1380" on="0"/>
        <pt x="858" y="1332" on="0"/>
        <pt x="923" y="1290" on="1"/>
        <pt x="873" y="1208" on="1"/>
        <pt x="755" y="1278" on="0"/>
        <pt x="625" y="1278" on="1"/>
        <pt x="562" y="1278" on="0"/>
        <pt x="449" y="1219" on="0"/>
        <pt x="370" y="1117" on="0"/>
        <pt x="357" y="1053" on="1"/>
        <pt x="352" y="1031" on="0"/>
        <pt x="352" y="1000" on="1"/>
        <pt x="352" y="944" on="0"/>
        <pt x="401" y="850" on="0"/>
        <pt x="470" y="778" on="0"/>
        <pt x="533" y="723" on="1"/>
        <pt x="600" y="665" on="0"/>
        <pt x="682" y="579" on="0"/>
        <pt x="739" y="462" on="0"/>
        <pt x="739" y="390" on="1"/>
        <pt x="739" y="356" on="0"/>
        <pt x="731" y="313" on="1"/>
        <pt x="710" y="211" on="0"/>
        <pt x="579" y="55" on="0"/>
        <pt x="479" y="13" on="1"/>
        <pt x="479" y="-42" on="0"/>
        <pt x="470" y="-87" on="1"/>
        <pt x="449" y="-195" on="0"/>
        <pt x="298" y="-303" on="0"/>
        <pt x="193" y="-303" on="1"/>
        <pt x="132" y="-303" on="0"/>
        <pt x="71" y="-286" on="1"/>
        <pt x="103" y="-162" on="1"/>
        <pt x="131" y="-166" on="0"/>
        <pt x="181" y="-166" on="1"/>
        <pt x="249" y="-166" on="0"/>
        <pt x="326" y="-107" on="0"/>
        <pt x="338" y="-47" on="1"/>
        <pt x="347" y="-16" on="1"/>
        <pt x="309" y="-17" on="1"/>
      </contour>
    </TTGlyph>
    <TTGlyph name="Scircumflex" xMin="-90" yMin="-17" xMax="864" yMax="1870">
      <component glyphName="S" x="-105" y="0" flags="0x0"/>
      <component glyphName="uni0302.case" x="-171" y="0" flags="0x0"/>
    </TTGlyph>
    <TTGlyph name="T" xMin="280" yMin="0" xMax="1092" yMax="1362">
      <contour>
        <pt x="619" y="1259" on="1"/>
        <pt x="280" y="1259" on="1"/>
        <pt x="301" y="1362" on="1"/>
        <pt x="1092" y="1362" on="1"/>
        <pt x="1071" y="1259" on="1"/>
        <pt x="732" y="1259" on="1"/>
        <pt x="481" y="0" on="1"/>
        <pt x="368" y="0" on="1"/>
      </contour>
    </TTGlyph>
    <TTGlyph name="Tcaron" xMin="175" yMin="0" xMax="1009" yMax="1870">
      <component glyphName="T" x="-105" y="0" flags="0x0"/>
      <component glyphName="uni030C.case" x="-105" y="0" flags="0x0"/>
    </TTGlyph>
    <TTGlyph name="Thorn" xMin="61" yMin="0" xMax="930" yMax="1362">
      <contour>
        <pt x="333" y="1362" on="1"/>
        <pt x="446" y="1362" on="1"/>
        <pt x="388" y="1073" on="1"/>
        <pt x="563" y="1073" on="1"/>
        <pt x="744" y="1072" on="0"/>
        <pt x="930" y="924" on="0"/>
        <pt x="930" y="790" on="1"/>
        <pt x="930" y="749" on="0"/>
        <pt x="921" y="702" on="1"/>
        <pt x="898" y="588" on="0"/>
        <pt x="765" y="419" on="0"/>
        <pt x="548" y="326" on="0"/>
        <pt x="403" y="326" on="1"/>
        <pt x="316" y="326" on="0"/>
        <pt x="244" y="335" on="1"/>
        <pt x="174" y="0" on="1"/>
        <pt x="61" y="0" on="1"/>
      </contour>
      <contour>
        <pt x="329" y="430" on="0"/>
        <pt x="406" y="428" on="1"/>
        <pt x="582" y="429" on="0"/>
        <pt x="774" y="568" on="0"/>
        <pt x="803" y="704" on="1"/>
        <pt x="811" y="746" on="0"/>
        <pt x="811" y="778" on="1"/>
        <pt x="811" y="873" on="0"/>
        <pt x="686" y="970" on="0"/>
        <pt x="553" y="971" on="1"/>
        <pt x="368" y="971" on="1"/>
        <pt x="257" y="435" on="1"/>
      </contour>
    </TTGlyph>
    <TTGlyph name="U" xMin="122" yMin="-23" xMax="1054" yMax="1362">
      <contour>
        <pt x="276" y="-23" on="0"/>
        <pt x="122" y="120" on="0"/>
        <pt x="122" y="255" on="1"/>
        <pt x="122" y="308" on="0"/>
        <pt x="134" y="369" on="1"/>
        <pt x="333" y="1362" on="1"/>
        <pt x="446" y="1362" on="1"/>
        <pt x="246" y="364" on="1"/>
        <pt x="236" y="307" on="0"/>
        <pt x="236" y="272" on="1"/>
        <pt x="236" y="84" on="0"/>
        <pt x="439" y="82" on="1"/>
        <pt x="557" y="83" on="0"/>
        <pt x="725" y="240" on="0"/>
        <pt x="754" y="386" on="1"/>
        <pt x="949" y="1362" on="1"/>
        <pt x="1054" y="1362" on="1"/>
        <pt x="857" y="378" on="1"/>
        <pt x="832" y="251" on="0"/>
        <pt x="709" y="71" on="0"/>
        <pt x="530" y="-23" on="0"/>
        <pt x="423" y="-23" on="1"/>
      </contour>
    </TTGlyph>
    <TTGlyph name="Uacute" xMin="17" yMin="-23" xMax="1016" yMax="1870">
      <component glyphName="U" x="-105" y="0" flags="0x0"/>
      <component glyphName="acutecomb.case" x="-95" y="0" flags="0x0"/>
    </TTGlyph>
    <TTGlyph name="Ubreve" xMin="17" yMin="-23" xMax="984" yMax="1818">
      <component glyphName="U" x="-105" y="0" flags="0x0"/>
      <component glyphName="uni0306.case" x="-95" y="0" flags="0x0"/>
    </TTGlyph>
    <TTGlyph name="Ucircumflex" xMin="17" yMin="-23" xMax="949" yMax="1870">
      <component glyphName="U" x="-105" y="0" flags="0x0"/>
      <component glyphName="uni0302.case" x="-95" y="0" flags="0x0"/>
    </TTGlyph>
    <TTGlyph name="Udieresis" xMin="17" yMin="-23" xMax="949" yMax="1696">
      <component glyphName="U" x="-105" y="0" flags="0x0"/>
      <component glyphName="uni0308.case" x="-95" y="0" flags="0x0"/>
    </TTGlyph>
    <TTGlyph name="Ugrave" xMin="17" yMin="-23" xMax="949" yMax="1870">
      <component glyphName="U" x="-105" y="0" flags="0x0"/>
      <component glyphName="gravecomb.case" x="-95" y="0" flags="0x0"/>
    </TTGlyph>
    <TTGlyph name="Umacron" xMin="17" yMin="-23" xMax="965" yMax="1710">
      <component glyphName="U" x="-105" y="0" flags="0x0"/>
      <component glyphName="uni0304.case" x="-95" y="0" flags="0x0"/>
    </TTGlyph>
    <TTGlyph name="Uogonek" xMin="122" yMin="-303" xMax="1054" yMax="1362">
      <contour>
        <pt x="330" y="-303" on="0"/>
        <pt x="251" y="-246" on="0"/>
        <pt x="251" y="-194" on="1"/>
        <pt x="251" y="-181" on="0"/>
        <pt x="254" y="-164" on="1"/>
        <pt x="271" y="-75" on="0"/>
        <pt x="383" y="-21" on="1"/>
        <pt x="256" y="-12" on="0"/>
        <pt x="122" y="130" on="0"/>
        <pt x="122" y="256" on="1"/>
        <pt x="122" y="308" on="0"/>
        <pt x="134" y="369" on="1"/>
        <pt x="333" y="1362" on="1"/>
        <pt x="446" y="1362" on="1"/>
        <pt x="246" y="364" on="1"/>
        <pt x="236" y="307" on="0"/>
        <pt x="236" y="272" on="1"/>
        <pt x="236" y="84" on="0"/>
        <pt x="439" y="82" on="1"/>
        <pt x="557" y="83" on="0"/>
        <pt x="725" y="240" on="0"/>
        <pt x="754" y="386" on="1"/>
        <pt x="949" y="1362" on="1"/>
        <pt x="1054" y="1362" on="1"/>
        <pt x="857" y="378" on="1"/>
        <pt x="825" y="219" on="0"/>
        <pt x="651" y="18" on="0"/>
        <pt x="525" y="-13" on="1"/>
        <pt x="453" y="-38" on="0"/>
        <pt x="374" y="-116" on="0"/>
        <pt x="374" y="-159" on="1"/>
        <pt x="374" y="-180" on="0"/>
        <pt x="405" y="-200" on="0"/>
        <pt x="439" y="-200" on="1"/>
        <pt x="465" y="-200" on="0"/>
        <pt x="513" y="-187" on="1"/>
        <pt x="518" y="-283" on="1"/>
        <pt x="456" y="-303" on="0"/>
        <pt x="398" y="-303" on="1"/>
      </contour>
    </TTGlyph>
    <TTGlyph name="Uring" xMin="17" yMin="-23" xMax="949" yMax="1902">
      <component glyphName="U" x="-105" y="0" flags="0x0"/>
      <component glyphName="uni030A.case" x="-95" y="0" flags="0x0"/>
    </TTGlyph>
    <TTGlyph name="Utilde" xMin="17" yMin="-23" xMax="1010" yMax="1789">
      <component glyphName="U" x="-105" y="0" flags="0x0"/>
      <component glyphName="tildecomb.case" x="-95" y="0" flags="0x0"/>
    </TTGlyph>
    <TTGlyph name="V" xMin="256" yMin="0" xMax="1136" yMax="1362">
      <contour>
        <pt x="256" y="1362" on="1"/>
        <pt x="382" y="1362" on="1"/>
        <pt x="457" y="172" on="1"/>
        <pt x="1022" y="1362" on="1"/>
        <pt x="1136" y="1362" on="1"/>
        <pt x="480" y="0" on="1"/>
        <pt x="362" y="0" on="1"/>
      </contour>
    </TTGlyph>
    <TTGlyph name="W" xMin="225" yMin="0" xMax="1402" yMax="1362">
      <contour>
        <pt x="803" y="1161" on="1"/>
        <pt x="384" y="0" on="1"/>
        <pt x="225" y="0" on="1"/>
        <pt x="294" y="1362" on="1"/>
        <pt x="401" y="1362" on="1"/>
        <pt x="340" y="154" on="1"/>
        <pt x="777" y="1362" on="1"/>
        <pt x="919" y="1362" on="1"/>
        <pt x="873" y="157" on="1"/>
        <pt x="1294" y="1362" on="1"/>
        <pt x="1402" y="1362" on="1"/>
        <pt x="926" y="0" on="1"/>
        <pt x="759" y="0" on="1"/>
      </contour>
    </TTGlyph>
    <TTGlyph name="Wacute" xMin="120" yMin="0" xMax="1297" yMax="1870">
      <component glyphName="W" x="-105" y="0" flags="0x0"/>
      <component glyphName="acutecomb.case" x="47" y="0" flags="0x0"/>
    </TTGlyph>
    <TTGlyph name="Wcircumflex" xMin="120" yMin="0" xMax="1297" yMax="1870">
      <component glyphName="W" x="-105" y="0" flags="0x0"/>
      <component glyphName="uni0302.case" x="47" y="0" flags="0x0"/>
    </TTGlyph>
    <TTGlyph name="Wdieresis" xMin="120" yMin="0" xMax="1297" yMax="1696">
      <component glyphName="W" x="-105" y="0" flags="0x0"/>
      <component glyphName="uni0308.case" x="47" y="0" flags="0x0"/>
    </TTGlyph>
    <TTGlyph name="Wgrave" xMin="120" yMin="0" xMax="1297" yMax="1870">
      <component glyphName="W" x="-105" y="0" flags="0x0"/>
      <component glyphName="gravecomb.case" x="47" y="0" flags="0x0"/>
    </TTGlyph>
    <TTGlyph name="X" xMin="-19" yMin="0" xMax="1056" yMax="1362">
      <contour>
        <pt x="500" y="601" on="1"/>
        <pt x="100" y="0" on="1"/>
        <pt x="-19" y="0" on="1"/>
        <pt x="469" y="715" on="1"/>
        <pt x="291" y="1362" on="1"/>
        <pt x="417" y="1362" on="1"/>
        <pt x="569" y="811" on="1"/>
        <pt x="937" y="1362" on="1"/>
        <pt x="1056" y="1362" on="1"/>
        <pt x="600" y="697" on="1"/>
        <pt x="792" y="0" on="1"/>
        <pt x="666" y="0" on="1"/>
      </contour>
    </TTGlyph>
    <TTGlyph name="Y" xMin="208" yMin="0" xMax="1045" yMax="1362">
      <contour>
        <pt x="413" y="605" on="1"/>
        <pt x="208" y="1362" on="1"/>
        <pt x="336" y="1362" on="1"/>
        <pt x="500" y="723" on="1"/>
        <pt x="929" y="1362" on="1"/>
        <pt x="1045" y="1362" on="1"/>
        <pt x="527" y="605" on="1"/>
        <pt x="406" y="0" on="1"/>
        <pt x="292" y="0" on="1"/>
      </contour>
    </TTGlyph>
    <TTGlyph name="Yacute" xMin="103" yMin="0" xMax="940" yMax="1870">
      <component glyphName="Y" x="-105" y="0" flags="0x0"/>
      <component glyphName="acutecomb.case" x="-171" y="0" flags="0x0"/>
    </TTGlyph>
    <TTGlyph name="Ycircumflex" xMin="103" yMin="0" xMax="940" yMax="1870">
      <component glyphName="Y" x="-105" y="0" flags="0x0"/>
      <component glyphName="uni0302.case" x="-171" y="0" flags="0x0"/>
    </TTGlyph>
    <TTGlyph name="Ydieresis" xMin="103" yMin="0" xMax="940" yMax="1696">
      <component glyphName="Y" x="-105" y="0" flags="0x0"/>
      <component glyphName="uni0308.case" x="-171" y="0" flags="0x0"/>
    </TTGlyph>
    <TTGlyph name="Ygrave" xMin="103" yMin="0" xMax="940" yMax="1870">
      <component glyphName="Y" x="-105" y="0" flags="0x0"/>
      <component glyphName="gravecomb.case" x="-171" y="0" flags="0x0"/>
    </TTGlyph>
    <TTGlyph name="Z" xMin="34" yMin="0" xMax="935" yMax="1362">
      <contour>
        <pt x="51" y="88" on="1"/>
        <pt x="791" y="1259" on="1"/>
        <pt x="285" y="1259" on="1"/>
        <pt x="306" y="1362" on="1"/>
        <pt x="935" y="1362" on="1"/>
        <pt x="917" y="1273" on="1"/>
        <pt x="178" y="102" on="1"/>
        <pt x="683" y="102" on="1"/>
        <pt x="663" y="0" on="1"/>
        <pt x="34" y="0" on="1"/>
      </contour>
    </TTGlyph>
    <TTGlyph name="Zacute" xMin="-71" yMin="0" xMax="940" yMax="1870">
      <component glyphName="Z" x="-105" y="0" flags="0x0"/>
      <component glyphName="acutecomb.case" x="-171" y="0" flags="0x0"/>
    </TTGlyph>
    <TTGlyph name="Zcaron" xMin="-71" yMin="0" xMax="943" yMax="1870">
      <component glyphName="Z" x="-105" y="0" flags="0x0"/>
      <component glyphName="uni030C.case" x="-171" y="0" flags="0x0"/>
    </TTGlyph>
    <TTGlyph name="Zdotaccent" xMin="-71" yMin="0" xMax="830" yMax="1842">
      <component glyphName="Z" x="-105" y="0" flags="0x0"/>
      <component glyphName="uni0307" x="-110" y="309" flags="0x4"/>
    </TTGlyph>
    <TTGlyph name="a" xMin="71" yMin="-15" xMax="915" yMax="1081">
      <contour>
        <pt x="186" y="-15" on="0"/>
        <pt x="71" y="98" on="0"/>
        <pt x="71" y="192" on="1"/>
        <pt x="71" y="221" on="0"/>
        <pt x="77" y="254" on="1"/>
        <pt x="99" y="362" on="0"/>
        <pt x="255" y="514" on="0"/>
        <pt x="509" y="594" on="0"/>
        <pt x="676" y="594" on="1"/>
        <pt x="766" y="594" on="1"/>
        <pt x="789" y="707" on="1"/>
        <pt x="800" y="765" on="0"/>
        <pt x="800" y="806" on="1"/>
        <pt x="800" y="894" on="0"/>
        <pt x="705" y="978" on="0"/>
        <pt x="607" y="978" on="1"/>
        <pt x="494" y="978" on="0"/>
        <pt x="307" y="922" on="1"/>
        <pt x="292" y="1015" on="1"/>
        <pt x="511" y="1080" on="0"/>
        <pt x="642" y="1081" on="1"/>
        <pt x="777" y="1080" on="0"/>
        <pt x="915" y="949" on="0"/>
        <pt x="915" y="823" on="1"/>
        <pt x="915" y="771" on="0"/>
        <pt x="903" y="708" on="1"/>
        <pt x="762" y="0" on="1"/>
        <pt x="648" y="0" on="1"/>
        <pt x="691" y="217" on="1"/>
        <pt x="619" y="149" on="1"/>
        <pt x="515" y="59" on="0"/>
        <pt x="361" y="-15" on="0"/>
        <pt x="282" y="-15" on="1"/>
      </contour>
      <contour>
        <pt x="375" y="87" on="0"/>
        <pt x="507" y="159" on="0"/>
        <pt x="602" y="242" on="1"/>
        <pt x="715" y="336" on="1"/>
        <pt x="748" y="503" on="1"/>
        <pt x="673" y="503" on="1"/>
        <pt x="540" y="503" on="0"/>
        <pt x="337" y="444" on="0"/>
        <pt x="212" y="332" on="0"/>
        <pt x="196" y="254" on="1"/>
        <pt x="191" y="226" on="0"/>
        <pt x="191" y="206" on="1"/>
        <pt x="191" y="149" on="0"/>
        <pt x="255" y="87" on="0"/>
        <pt x="316" y="87" on="1"/>
      </contour>
    </TTGlyph>
    <TTGlyph name="a.sc" xMin="-140" yMin="0" xMax="777" yMax="1210">
      <component glyphName="A.hex" x="-105" y="0" flags="0x0"/>
    </TTGlyph>
    <TTGlyph name="aacute" xMin="-34" yMin="-15" xMax="960" yMax="1643">
      <component glyphName="a" x="-105" y="0" flags="0x0"/>
      <component glyphName="acutecomb" x="-105" y="0" flags="0x0"/>
    </TTGlyph>
    <TTGlyph name="aacute.sc" xMin="-245" yMin="0" xMax="991" yMax="1800">
      <component glyphName="a.sc" x="-105" y="0" flags="0x0"/>
      <component glyphName="acutecomb" x="-74" y="157" flags="0x4"/>
    </TTGlyph>
    <TTGlyph name="abreve" xMin="-34" yMin="-15" xMax="929" yMax="1591">
      <component glyphName="a" x="-105" y="0" flags="0x0"/>
      <component glyphName="uni0306" x="-105" y="0" flags="0x0"/>
    </TTGlyph>
    <TTGlyph name="abreve.sc" xMin="-245" yMin="0" xMax="960" yMax="1748">
      <component glyphName="a.sc" x="-105" y="0" flags="0x0"/>
      <component glyphName="uni0306" x="-74" y="157" flags="0x4"/>
    </TTGlyph>
    <TTGlyph name="acircumflex" xMin="-34" yMin="-15" xMax="884" yMax="1643">
      <component glyphName="a" x="-105" y="0" flags="0x0"/>
      <component glyphName="uni0302" x="-105" y="0" flags="0x0"/>
    </TTGlyph>
    <TTGlyph name="acircumflex.sc" xMin="-245" yMin="0" xMax="915" yMax="1800">
      <component glyphName="a.sc" x="-105" y="0" flags="0x0"/>
      <component glyphName="uni0302" x="-74" y="157" flags="0x4"/>
    </TTGlyph>
    <TTGlyph name="acute" xMin="392" yMin="756" xMax="925" yMax="1362">
      <contour>
        <pt x="392" y="756" on="1"/>
        <pt x="651" y="1362" on="1"/>
        <pt x="925" y="1362" on="1"/>
        <pt x="519" y="756" on="1"/>
      </contour>
    </TTGlyph>
    <TTGlyph name="acutecomb" xMin="581" yMin="1248" xMax="1065" yMax="1643">
      <contour>
        <pt x="805" y="1643" on="1"/>
        <pt x="1065" y="1643" on="1"/>
        <pt x="723" y="1248" on="1"/>
        <pt x="581" y="1248" on="1"/>
      </contour>
    </TTGlyph>
    <TTGlyph name="acutecomb.case" xMin="627" yMin="1475" xMax="1111" yMax="1870">
      <contour>
        <pt x="851" y="1870" on="1"/>
        <pt x="1111" y="1870" on="1"/>
        <pt x="769" y="1475" on="1"/>
        <pt x="627" y="1475" on="1"/>
      </contour>
    </TTGlyph>
    <TTGlyph name="adieresis" xMin="-34" yMin="-15" xMax="892" yMax="1522">
      <component glyphName="a" x="-105" y="0" flags="0x0"/>
      <component glyphName="uni0308" x="-105" y="0" flags="0x0"/>
    </TTGlyph>
    <TTGlyph name="adieresis.sc" xMin="-245" yMin="0" xMax="923" yMax="1679">
      <component glyphName="a.sc" x="-105" y="0" flags="0x0"/>
      <component glyphName="uni0308" x="-74" y="157" flags="0x4"/>
    </TTGlyph>
    <TTGlyph name="agrave" xMin="-34" yMin="-15" xMax="810" yMax="1643">
      <component glyphName="a" x="-105" y="0" flags="0x0"/>
      <component glyphName="gravecomb" x="-105" y="0" flags="0x0"/>
    </TTGlyph>
    <TTGlyph name="agrave.sc" xMin="-245" yMin="0" xMax="692" yMax="1800">
      <component glyphName="a.sc" x="-105" y="0" flags="0x0"/>
      <component glyphName="gravecomb" x="-74" y="157" flags="0x4"/>
    </TTGlyph>
    <TTGlyph name="amacron" xMin="-34" yMin="-15" xMax="894" yMax="1482">
      <component glyphName="a" x="-105" y="0" flags="0x0"/>
      <component glyphName="uni0304" x="-105" y="0" flags="0x0"/>
    </TTGlyph>
    <TTGlyph name="amacron.sc" xMin="-245" yMin="0" xMax="925" yMax="1639">
      <component glyphName="a.sc" x="-105" y="0" flags="0x0"/>
      <component glyphName="uni0304" x="-74" y="157" flags="0x4"/>
    </TTGlyph>
    <TTGlyph name="ampersand" xMin="-10" yMin="-17" xMax="1068" yMax="1377">
      <contour>
        <pt x="176" y="-17" on="0"/>
        <pt x="-10" y="123" on="0"/>
        <pt x="-10" y="249" on="1"/>
        <pt x="-10" y="282" on="0"/>
        <pt x="-2" y="325" on="1"/>
        <pt x="21" y="442" on="0"/>
        <pt x="163" y="608" on="0"/>
        <pt x="278" y="681" on="1"/>
        <pt x="249" y="738" on="0"/>
        <pt x="221" y="846" on="0"/>
        <pt x="221" y="904" on="1"/>
        <pt x="221" y="963" on="0"/>
        <pt x="234" y="1025" on="1"/>
        <pt x="256" y="1135" on="0"/>
        <pt x="375" y="1294" on="0"/>
        <pt x="538" y="1377" on="0"/>
        <pt x="627" y="1377" on="1"/>
        <pt x="709" y="1377" on="0"/>
        <pt x="825" y="1316" on="0"/>
        <pt x="883" y="1209" on="0"/>
        <pt x="883" y="1142" on="1"/>
        <pt x="883" y="1115" on="0"/>
        <pt x="876" y="1076" on="1"/>
        <pt x="857" y="982" on="0"/>
        <pt x="746" y="839" on="0"/>
        <pt x="605" y="740" on="0"/>
        <pt x="489" y="672" on="1"/>
        <pt x="465" y="658" on="1"/>
        <pt x="507" y="595" on="0"/>
        <pt x="576" y="511" on="1"/>
        <pt x="740" y="323" on="1"/>
        <pt x="806" y="408" on="0"/>
        <pt x="897" y="632" on="0"/>
        <pt x="919" y="760" on="1"/>
        <pt x="1068" y="752" on="1"/>
        <pt x="1039" y="592" on="0"/>
        <pt x="917" y="317" on="0"/>
        <pt x="827" y="214" on="1"/>
        <pt x="1007" y="0" on="1"/>
        <pt x="803" y="0" on="1"/>
        <pt x="713" y="108" on="1"/>
        <pt x="548" y="-17" on="0"/>
        <pt x="341" y="-17" on="1"/>
      </contour>
      <contour>
        <pt x="148" y="304" on="0"/>
        <pt x="148" y="275" on="1"/>
        <pt x="148" y="202" on="0"/>
        <pt x="253" y="119" on="0"/>
        <pt x="360" y="119" on="1"/>
        <pt x="504" y="119" on="0"/>
        <pt x="628" y="211" on="1"/>
        <pt x="452" y="430" on="1"/>
        <pt x="424" y="464" on="0"/>
        <pt x="365" y="539" on="1"/>
        <pt x="338" y="573" on="1"/>
        <pt x="263" y="519" on="0"/>
        <pt x="168" y="400" on="0"/>
        <pt x="153" y="325" on="1"/>
      </contour>
      <contour>
        <pt x="374" y="962" on="0"/>
        <pt x="374" y="915" on="1"/>
        <pt x="374" y="833" on="0"/>
        <pt x="409" y="763" on="1"/>
        <pt x="499" y="816" on="0"/>
        <pt x="615" y="901" on="0"/>
        <pt x="701" y="1010" on="0"/>
        <pt x="715" y="1078" on="1"/>
        <pt x="720" y="1105" on="0"/>
        <pt x="720" y="1123" on="1"/>
        <pt x="720" y="1180" on="0"/>
        <pt x="656" y="1244" on="0"/>
        <pt x="601" y="1244" on="1"/>
        <pt x="523" y="1244" on="0"/>
        <pt x="406" y="1123" on="0"/>
        <pt x="384" y="1011" on="1"/>
      </contour>
    </TTGlyph>
    <TTGlyph name="aogonek" xMin="71" yMin="-303" xMax="915" yMax="1081">
      <contour>
        <pt x="186" y="-15" on="0"/>
        <pt x="71" y="98" on="0"/>
        <pt x="71" y="192" on="1"/>
        <pt x="71" y="221" on="0"/>
        <pt x="77" y="254" on="1"/>
        <pt x="99" y="362" on="0"/>
        <pt x="255" y="514" on="0"/>
        <pt x="509" y="594" on="0"/>
        <pt x="676" y="594" on="1"/>
        <pt x="766" y="594" on="1"/>
        <pt x="789" y="707" on="1"/>
        <pt x="800" y="765" on="0"/>
        <pt x="800" y="806" on="1"/>
        <pt x="800" y="894" on="0"/>
        <pt x="705" y="978" on="0"/>
        <pt x="607" y="978" on="1"/>
        <pt x="494" y="978" on="0"/>
        <pt x="307" y="922" on="1"/>
        <pt x="292" y="1015" on="1"/>
        <pt x="511" y="1080" on="0"/>
        <pt x="642" y="1081" on="1"/>
        <pt x="777" y="1080" on="0"/>
        <pt x="915" y="949" on="0"/>
        <pt x="915" y="823" on="1"/>
        <pt x="915" y="771" on="0"/>
        <pt x="903" y="708" on="1"/>
        <pt x="762" y="0" on="1"/>
        <pt x="764" y="-1" on="1"/>
        <pt x="676" y="-24" on="0"/>
        <pt x="576" y="-111" on="0"/>
        <pt x="576" y="-159" on="1"/>
        <pt x="576" y="-180" on="0"/>
        <pt x="607" y="-200" on="0"/>
        <pt x="641" y="-200" on="1"/>
        <pt x="667" y="-200" on="0"/>
        <pt x="715" y="-187" on="1"/>
        <pt x="720" y="-283" on="1"/>
        <pt x="658" y="-303" on="0"/>
        <pt x="600" y="-303" on="1"/>
        <pt x="532" y="-303" on="0"/>
        <pt x="453" y="-246" on="0"/>
        <pt x="453" y="-194" on="1"/>
        <pt x="453" y="-181" on="0"/>
        <pt x="456" y="-164" on="1"/>
        <pt x="478" y="-52" on="0"/>
        <pt x="646" y="11" on="1"/>
        <pt x="691" y="217" on="1"/>
        <pt x="619" y="149" on="1"/>
        <pt x="515" y="59" on="0"/>
        <pt x="361" y="-15" on="0"/>
        <pt x="282" y="-15" on="1"/>
      </contour>
      <contour>
        <pt x="375" y="87" on="0"/>
        <pt x="507" y="159" on="0"/>
        <pt x="602" y="242" on="1"/>
        <pt x="715" y="336" on="1"/>
        <pt x="748" y="503" on="1"/>
        <pt x="673" y="503" on="1"/>
        <pt x="540" y="503" on="0"/>
        <pt x="337" y="444" on="0"/>
        <pt x="212" y="332" on="0"/>
        <pt x="196" y="254" on="1"/>
        <pt x="191" y="226" on="0"/>
        <pt x="191" y="206" on="1"/>
        <pt x="191" y="149" on="0"/>
        <pt x="255" y="87" on="0"/>
        <pt x="316" y="87" on="1"/>
      </contour>
    </TTGlyph>
    <TTGlyph name="aogonek.sc" xMin="-35" yMin="-303" xMax="885" yMax="1210">
      <contour>
        <pt x="653" y="-303" on="0"/>
        <pt x="574" y="-246" on="0"/>
        <pt x="574" y="-194" on="1"/>
        <pt x="574" y="-181" on="0"/>
        <pt x="577" y="-164" on="1"/>
        <pt x="598" y="-60" on="0"/>
        <pt x="744" y="2" on="1"/>
        <pt x="714" y="0" on="1"/>
        <pt x="685" y="310" on="1"/>
        <pt x="274" y="310" on="1"/>
        <pt x="116" y="0" on="1"/>
        <pt x="-35" y="0" on="1"/>
        <pt x="591" y="1210" on="1"/>
        <pt x="748" y="1210" on="1"/>
        <pt x="885" y="-1" on="1"/>
        <pt x="797" y="-24" on="0"/>
        <pt x="697" y="-111" on="0"/>
        <pt x="697" y="-159" on="1"/>
        <pt x="697" y="-180" on="0"/>
        <pt x="728" y="-200" on="0"/>
        <pt x="762" y="-200" on="1"/>
        <pt x="788" y="-200" on="0"/>
        <pt x="836" y="-187" on="1"/>
        <pt x="841" y="-283" on="1"/>
        <pt x="779" y="-303" on="0"/>
        <pt x="721" y="-303" on="1"/>
      </contour>
      <contour>
        <pt x="672" y="446" on="1"/>
        <pt x="621" y="990" on="1"/>
        <pt x="343" y="446" on="1"/>
      </contour>
    </TTGlyph>
    <TTGlyph name="aring" xMin="-34" yMin="-15" xMax="855" yMax="1675">
      <component glyphName="a" x="-105" y="0" flags="0x0"/>
      <component glyphName="uni030A" x="-105" y="0" flags="0x0"/>
    </TTGlyph>
    <TTGlyph name="aring.sc" xMin="-245" yMin="0" xMax="886" yMax="1832">
      <component glyphName="a.sc" x="-105" y="0" flags="0x0"/>
      <component glyphName="uni030A" x="-74" y="157" flags="0x4"/>
    </TTGlyph>
    <TTGlyph name="arrowdown" xMin="35" yMin="-43" xMax="972" yMax="1362">
      <contour>
        <pt x="35" y="399" on="1"/>
        <pt x="138" y="488" on="1"/>
        <pt x="386" y="189" on="1"/>
        <pt x="621" y="1362" on="1"/>
        <pt x="772" y="1362" on="1"/>
        <pt x="537" y="189" on="1"/>
        <pt x="905" y="488" on="1"/>
        <pt x="972" y="399" on="1"/>
        <pt x="453" y="-43" on="1"/>
        <pt x="378" y="-43" on="1"/>
      </contour>
    </TTGlyph>
    <TTGlyph name="arrowleft" xMin="-20" yMin="202" xMax="1101" yMax="1140">
      <contour>
        <pt x="-20" y="643" on="1"/>
        <pt x="-8" y="700" on="1"/>
        <pt x="522" y="1140" on="1"/>
        <pt x="594" y="1055" on="1"/>
        <pt x="225" y="738" on="1"/>
        <pt x="1101" y="738" on="1"/>
        <pt x="1075" y="605" on="1"/>
        <pt x="199" y="605" on="1"/>
        <pt x="440" y="287" on="1"/>
        <pt x="334" y="202" on="1"/>
      </contour>
    </TTGlyph>
    <TTGlyph name="arrowright" xMin="16" yMin="202" xMax="1137" yMax="1140">
      <contour>
        <pt x="523" y="287" on="1"/>
        <pt x="892" y="605" on="1"/>
        <pt x="16" y="605" on="1"/>
        <pt x="42" y="738" on="1"/>
        <pt x="918" y="738" on="1"/>
        <pt x="677" y="1055" on="1"/>
        <pt x="783" y="1140" on="1"/>
        <pt x="1137" y="700" on="1"/>
        <pt x="1125" y="643" on="1"/>
        <pt x="595" y="202" on="1"/>
      </contour>
    </TTGlyph>
    <TTGlyph name="arrowup" xMin="148" yMin="0" xMax="1085" yMax="1405">
      <contour>
        <pt x="583" y="1172" on="1"/>
        <pt x="215" y="874" on="1"/>
        <pt x="148" y="963" on="1"/>
        <pt x="668" y="1405" on="1"/>
        <pt x="743" y="1405" on="1"/>
        <pt x="1085" y="963" on="1"/>
        <pt x="982" y="874" on="1"/>
        <pt x="734" y="1172" on="1"/>
        <pt x="500" y="0" on="1"/>
        <pt x="349" y="0" on="1"/>
      </contour>
    </TTGlyph>
    <TTGlyph name="asciicircum" xMin="110" yMin="303" xMax="866" yMax="1210">
      <contour>
        <pt x="254" y="303" on="1"/>
        <pt x="626" y="1027" on="1"/>
        <pt x="708" y="303" on="1"/>
        <pt x="866" y="303" on="1"/>
        <pt x="746" y="1210" on="1"/>
        <pt x="595" y="1210" on="1"/>
        <pt x="110" y="303" on="1"/>
      </contour>
    </TTGlyph>
    <TTGlyph name="asciitilde" xMin="3" yMin="457" xMax="1122" yMax="904">
      <contour>
        <pt x="39" y="699" on="0"/>
        <pt x="229" y="904" on="0"/>
        <pt x="381" y="904" on="1"/>
        <pt x="453" y="904" on="0"/>
        <pt x="549" y="853" on="0"/>
        <pt x="604" y="780" on="0"/>
        <pt x="635" y="723" on="1"/>
        <pt x="658" y="680" on="0"/>
        <pt x="693" y="631" on="0"/>
        <pt x="743" y="598" on="0"/>
        <pt x="778" y="598" on="1"/>
        <pt x="852" y="598" on="0"/>
        <pt x="956" y="738" on="0"/>
        <pt x="984" y="904" on="1"/>
        <pt x="1122" y="896" on="1"/>
        <pt x="1085" y="664" on="0"/>
        <pt x="890" y="458" on="0"/>
        <pt x="739" y="458" on="1"/>
        <pt x="667" y="458" on="0"/>
        <pt x="572" y="510" on="0"/>
        <pt x="516" y="582" on="0"/>
        <pt x="483" y="640" on="1"/>
        <pt x="460" y="682" on="0"/>
        <pt x="425" y="732" on="0"/>
        <pt x="376" y="764" on="0"/>
        <pt x="342" y="764" on="1"/>
        <pt x="264" y="764" on="0"/>
        <pt x="166" y="624" on="0"/>
        <pt x="141" y="457" on="1"/>
        <pt x="3" y="465" on="1"/>
      </contour>
    </TTGlyph>
    <TTGlyph name="asterisk" xMin="45" yMin="179" xMax="1100" yMax="1184">
      <contour>
        <pt x="124" y="893" on="1"/>
        <pt x="503" y="752" on="1"/>
        <pt x="581" y="1184" on="1"/>
        <pt x="740" y="1184" on="1"/>
        <pt x="646" y="753" on="1"/>
        <pt x="1081" y="894" on="1"/>
        <pt x="1100" y="743" on="1"/>
        <pt x="663" y="618" on="1"/>
        <pt x="854" y="273" on="1"/>
        <pt x="707" y="179" on="1"/>
        <pt x="531" y="533" on="1"/>
        <pt x="213" y="180" on="1"/>
        <pt x="103" y="273" on="1"/>
        <pt x="431" y="617" on="1"/>
        <pt x="45" y="742" on="1"/>
      </contour>
    </TTGlyph>
    <TTGlyph name="at" xMin="99" yMin="-172" xMax="984" yMax="1231">
      <contour>
        <pt x="299" y="-172" on="0"/>
        <pt x="99" y="30" on="0"/>
        <pt x="99" y="247" on="1"/>
        <pt x="99" y="363" on="0"/>
        <pt x="128" y="505" on="1"/>
        <pt x="202" y="877" on="0"/>
        <pt x="478" y="1231" on="0"/>
        <pt x="684" y="1231" on="1"/>
        <pt x="837" y="1231" on="0"/>
        <pt x="984" y="1086" on="0"/>
        <pt x="984" y="959" on="1"/>
        <pt x="984" y="908" on="0"/>
        <pt x="972" y="849" on="1"/>
        <pt x="866" y="300" on="1"/>
        <pt x="811" y="284" on="0"/>
        <pt x="687" y="265" on="0"/>
        <pt x="633" y="265" on="1"/>
        <pt x="530" y="265" on="0"/>
        <pt x="428" y="349" on="0"/>
        <pt x="428" y="440" on="1"/>
        <pt x="428" y="483" on="0"/>
        <pt x="438" y="533" on="1"/>
        <pt x="463" y="659" on="0"/>
        <pt x="600" y="794" on="0"/>
        <pt x="722" y="794" on="1"/>
        <pt x="765" y="794" on="0"/>
        <pt x="805" y="791" on="1"/>
        <pt x="824" y="866" on="1"/>
        <pt x="833" y="913" on="0"/>
        <pt x="833" y="949" on="1"/>
        <pt x="833" y="1027" on="0"/>
        <pt x="746" y="1099" on="0"/>
        <pt x="657" y="1099" on="1"/>
        <pt x="572" y="1099" on="0"/>
        <pt x="437" y="990" on="0"/>
        <pt x="324" y="726" on="0"/>
        <pt x="278" y="497" on="1"/>
        <pt x="249" y="353" on="0"/>
        <pt x="249" y="247" on="1"/>
        <pt x="249" y="94" on="0"/>
        <pt x="377" y="-40" on="0"/>
        <pt x="507" y="-40" on="1"/>
        <pt x="603" y="-40" on="0"/>
        <pt x="749" y="-10" on="1"/>
        <pt x="751" y="-133" on="1"/>
        <pt x="592" y="-172" on="0"/>
        <pt x="480" y="-172" on="1"/>
      </contour>
      <contour>
        <pt x="579" y="480" on="0"/>
        <pt x="579" y="454" on="1"/>
        <pt x="579" y="417" on="0"/>
        <pt x="615" y="393" on="0"/>
        <pt x="659" y="393" on="1"/>
        <pt x="687" y="393" on="0"/>
        <pt x="727" y="400" on="1"/>
        <pt x="783" y="664" on="1"/>
        <pt x="728" y="666" on="1"/>
        <pt x="667" y="666" on="0"/>
        <pt x="603" y="604" on="0"/>
        <pt x="588" y="525" on="1"/>
      </contour>
    </TTGlyph>
    <TTGlyph name="atilde" xMin="-34" yMin="-15" xMax="955" yMax="1562">
      <component glyphName="a" x="-105" y="0" flags="0x0"/>
      <component glyphName="tildecomb" x="-105" y="0" flags="0x0"/>
    </TTGlyph>
    <TTGlyph name="atilde.sc" xMin="-245" yMin="0" xMax="986" yMax="1719">
      <component glyphName="a.sc" x="-105" y="0" flags="0x0"/>
      <component glyphName="tildecomb" x="-74" y="157" flags="0x4"/>
    </TTGlyph>
    <TTGlyph name="b" xMin="71" yMin="-21" xMax="976" yMax="1513">
      <contour>
        <pt x="233" y="-21" on="0"/>
        <pt x="71" y="35" on="1"/>
        <pt x="363" y="1513" on="1"/>
        <pt x="476" y="1513" on="1"/>
        <pt x="339" y="826" on="1"/>
        <pt x="406" y="898" on="1"/>
        <pt x="485" y="980" on="0"/>
        <pt x="650" y="1068" on="0"/>
        <pt x="739" y="1069" on="1"/>
        <pt x="855" y="1068" on="0"/>
        <pt x="976" y="918" on="0"/>
        <pt x="976" y="777" on="1"/>
        <pt x="976" y="699" on="0"/>
        <pt x="956" y="597" on="1"/>
        <pt x="916" y="398" on="0"/>
        <pt x="742" y="119" on="0"/>
        <pt x="509" y="-21" on="0"/>
        <pt x="380" y="-21" on="1"/>
      </contour>
      <contour>
        <pt x="480" y="76" on="0"/>
        <pt x="666" y="192" on="0"/>
        <pt x="803" y="426" on="0"/>
        <pt x="837" y="596" on="1"/>
        <pt x="858" y="703" on="0"/>
        <pt x="858" y="775" on="1"/>
        <pt x="858" y="874" on="0"/>
        <pt x="783" y="966" on="0"/>
        <pt x="709" y="967" on="1"/>
        <pt x="641" y="966" on="0"/>
        <pt x="505" y="884" on="0"/>
        <pt x="422" y="802" on="1"/>
        <pt x="314" y="701" on="1"/>
        <pt x="190" y="101" on="1"/>
        <pt x="227" y="90" on="0"/>
        <pt x="324" y="76" on="0"/>
        <pt x="371" y="76" on="1"/>
      </contour>
    </TTGlyph>
    <TTGlyph name="b.sc" xMin="-59" yMin="0" xMax="871" yMax="1210">
      <component glyphName="B.hex" x="-105" y="0" flags="0x0"/>
    </TTGlyph>
    <TTGlyph name="backslash" xMin="343" yMin="-303" xMax="747" yMax="1513">
      <contour>
        <pt x="343" y="1513" on="1"/>
        <pt x="503" y="1513" on="1"/>
        <pt x="747" y="-303" on="1"/>
        <pt x="589" y="-303" on="1"/>
      </contour>
    </TTGlyph>
    <TTGlyph name="bar" xMin="454" yMin="-303" xMax="605" yMax="1513">
      <contour>
        <pt x="454" y="1513" on="1"/>
        <pt x="605" y="1513" on="1"/>
        <pt x="605" y="-303" on="1"/>
        <pt x="454" y="-303" on="1"/>
      </contour>
    </TTGlyph>
    <TTGlyph name="block" xMin="-166" yMin="-303" xMax="1256" yMax="1513">
      <contour>
        <pt x="197" y="1513" on="1"/>
        <pt x="1256" y="1513" on="1"/>
        <pt x="893" y="-303" on="1"/>
        <pt x="-166" y="-303" on="1"/>
      </contour>
    </TTGlyph>
    <TTGlyph name="braceleft" xMin="115" yMin="-290" xMax="1097" yMax="1500">
      <contour>
        <pt x="262" y="678" on="0"/>
        <pt x="412" y="726" on="0"/>
        <pt x="491" y="809" on="0"/>
        <pt x="506" y="880" on="1"/>
        <pt x="509" y="896" on="0"/>
        <pt x="518" y="962" on="1"/>
        <pt x="526" y="1039" on="0"/>
        <pt x="537" y="1091" on="1"/>
        <pt x="567" y="1240" on="0"/>
        <pt x="714" y="1410" on="0"/>
        <pt x="933" y="1485" on="0"/>
        <pt x="1097" y="1500" on="1"/>
        <pt x="1093" y="1378" on="1"/>
        <pt x="961" y="1360" on="0"/>
        <pt x="813" y="1311" on="0"/>
        <pt x="711" y="1194" on="0"/>
        <pt x="688" y="1081" on="1"/>
        <pt x="678" y="1035" on="0"/>
        <pt x="670" y="970" on="1"/>
        <pt x="666" y="949" on="0"/>
        <pt x="660" y="907" on="0"/>
        <pt x="656" y="887" on="1"/>
        <pt x="639" y="803" on="0"/>
        <pt x="560" y="692" on="0"/>
        <pt x="424" y="623" on="0"/>
        <pt x="319" y="604" on="1"/>
        <pt x="437" y="580" on="0"/>
        <pt x="550" y="476" on="0"/>
        <pt x="550" y="388" on="1"/>
        <pt x="550" y="357" on="0"/>
        <pt x="542" y="315" on="1"/>
        <pt x="538" y="294" on="0"/>
        <pt x="523" y="237" on="1"/>
        <pt x="503" y="161" on="0"/>
        <pt x="496" y="121" on="1"/>
        <pt x="486" y="71" on="0"/>
        <pt x="486" y="29" on="1"/>
        <pt x="486" y="-43" on="0"/>
        <pt x="553" y="-120" on="0"/>
        <pt x="668" y="-154" on="0"/>
        <pt x="776" y="-170" on="1"/>
        <pt x="747" y="-290" on="1"/>
        <pt x="612" y="-278" on="0"/>
        <pt x="432" y="-216" on="0"/>
        <pt x="332" y="-90" on="0"/>
        <pt x="332" y="15" on="1"/>
        <pt x="332" y="66" on="0"/>
        <pt x="344" y="127" on="1"/>
        <pt x="353" y="172" on="0"/>
        <pt x="374" y="246" on="1"/>
        <pt x="381" y="271" on="0"/>
        <pt x="394" y="320" on="0"/>
        <pt x="397" y="338" on="1"/>
        <pt x="403" y="368" on="0"/>
        <pt x="403" y="392" on="1"/>
        <pt x="403" y="441" on="0"/>
        <pt x="346" y="500" on="0"/>
        <pt x="225" y="537" on="0"/>
        <pt x="115" y="553" on="1"/>
        <pt x="128" y="659" on="1"/>
      </contour>
    </TTGlyph>
    <TTGlyph name="braceright" xMin="-7" yMin="-290" xMax="975" yMax="1500">
      <contour>
        <pt x="828" y="532" on="0"/>
        <pt x="678" y="484" on="0"/>
        <pt x="599" y="401" on="0"/>
        <pt x="585" y="330" on="1"/>
        <pt x="581" y="311" on="0"/>
        <pt x="572" y="243" on="1"/>
        <pt x="561" y="158" on="0"/>
        <pt x="553" y="119" on="1"/>
        <pt x="523" y="-30" on="0"/>
        <pt x="376" y="-200" on="0"/>
        <pt x="157" y="-275" on="0"/>
        <pt x="-7" y="-290" on="1"/>
        <pt x="-3" y="-168" on="1"/>
        <pt x="129" y="-150" on="0"/>
        <pt x="277" y="-101" on="0"/>
        <pt x="379" y="16" on="0"/>
        <pt x="402" y="129" on="1"/>
        <pt x="413" y="182" on="0"/>
        <pt x="422" y="248" on="1"/>
        <pt x="432" y="313" on="0"/>
        <pt x="434" y="323" on="1"/>
        <pt x="451" y="407" on="0"/>
        <pt x="530" y="518" on="0"/>
        <pt x="666" y="587" on="0"/>
        <pt x="771" y="606" on="1"/>
        <pt x="653" y="630" on="0"/>
        <pt x="541" y="733" on="0"/>
        <pt x="541" y="821" on="1"/>
        <pt x="541" y="852" on="0"/>
        <pt x="549" y="895" on="1"/>
        <pt x="554" y="925" on="0"/>
        <pt x="569" y="980" on="1"/>
        <pt x="587" y="1055" on="0"/>
        <pt x="594" y="1089" on="1"/>
        <pt x="604" y="1139" on="0"/>
        <pt x="604" y="1181" on="1"/>
        <pt x="604" y="1253" on="0"/>
        <pt x="537" y="1330" on="0"/>
        <pt x="422" y="1364" on="0"/>
        <pt x="314" y="1380" on="1"/>
        <pt x="344" y="1500" on="1"/>
        <pt x="478" y="1488" on="0"/>
        <pt x="658" y="1426" on="0"/>
        <pt x="758" y="1300" on="0"/>
        <pt x="758" y="1195" on="1"/>
        <pt x="758" y="1145" on="0"/>
        <pt x="746" y="1083" on="1"/>
        <pt x="737" y="1035" on="0"/>
        <pt x="714" y="954" on="1"/>
        <pt x="697" y="893" on="0"/>
        <pt x="693" y="872" on="1"/>
        <pt x="687" y="844" on="0"/>
        <pt x="687" y="819" on="1"/>
        <pt x="687" y="770" on="0"/>
        <pt x="744" y="710" on="0"/>
        <pt x="865" y="673" on="0"/>
        <pt x="975" y="657" on="1"/>
        <pt x="962" y="551" on="1"/>
      </contour>
    </TTGlyph>
    <TTGlyph name="bracketleft" xMin="137" yMin="-303" xMax="1105" yMax="1513">
      <contour>
        <pt x="500" y="1513" on="1"/>
        <pt x="1105" y="1513" on="1"/>
        <pt x="1079" y="1380" on="1"/>
        <pt x="625" y="1380" on="1"/>
        <pt x="315" y="-170" on="1"/>
        <pt x="769" y="-170" on="1"/>
        <pt x="742" y="-303" on="1"/>
        <pt x="137" y="-303" on="1"/>
      </contour>
    </TTGlyph>
    <TTGlyph name="bracketright" xMin="-15" yMin="-303" xMax="953" yMax="1513">
      <contour>
        <pt x="12" y="-170" on="1"/>
        <pt x="466" y="-170" on="1"/>
        <pt x="776" y="1380" on="1"/>
        <pt x="322" y="1380" on="1"/>
        <pt x="348" y="1513" on="1"/>
        <pt x="953" y="1513" on="1"/>
        <pt x="590" y="-303" on="1"/>
        <pt x="-15" y="-303" on="1"/>
      </contour>
    </TTGlyph>
    <TTGlyph name="breve" xMin="326" yMin="1244" xMax="929" yMax="1591">
      <component glyphName="uni0306" x="-105" y="0" flags="0x0"/>
    </TTGlyph>
    <TTGlyph name="bullet" xMin="368" yMin="484" xMax="747" yMax="856">
      <contour>
        <pt x="455" y="484" on="0"/>
        <pt x="368" y="569" on="0"/>
        <pt x="368" y="634" on="1"/>
        <pt x="368" y="656" on="0"/>
        <pt x="372" y="673" on="1"/>
        <pt x="382" y="724" on="0"/>
        <pt x="446" y="808" on="0"/>
        <pt x="540" y="856" on="0"/>
        <pt x="591" y="856" on="1"/>
        <pt x="637" y="856" on="0"/>
        <pt x="708" y="817" on="0"/>
        <pt x="747" y="747" on="0"/>
        <pt x="747" y="704" on="1"/>
        <pt x="747" y="682" on="0"/>
        <pt x="743" y="665" on="1"/>
        <pt x="734" y="614" on="0"/>
        <pt x="669" y="531" on="0"/>
        <pt x="575" y="484" on="0"/>
        <pt x="524" y="484" on="1"/>
      </contour>
    </TTGlyph>
    <TTGlyph name="c" xMin="132" yMin="-19" xMax="954" yMax="1074">
      <contour>
        <pt x="840" y="927" on="0"/>
        <pt x="723" y="972" on="0"/>
        <pt x="642" y="972" on="1"/>
        <pt x="499" y="972" on="0"/>
        <pt x="311" y="748" on="0"/>
        <pt x="267" y="525" on="1"/>
        <pt x="247" y="423" on="0"/>
        <pt x="247" y="349" on="1"/>
        <pt x="247" y="83" on="0"/>
        <pt x="486" y="83" on="1"/>
        <pt x="553" y="83" on="0"/>
        <pt x="664" y="113" on="0"/>
        <pt x="733" y="141" on="1"/>
        <pt x="754" y="47" on="1"/>
        <pt x="681" y="14" on="0"/>
        <pt x="543" y="-19" on="0"/>
        <pt x="462" y="-19" on="1"/>
        <pt x="301" y="-19" on="0"/>
        <pt x="132" y="168" on="0"/>
        <pt x="132" y="344" on="1"/>
        <pt x="132" y="434" on="0"/>
        <pt x="152" y="533" on="1"/>
        <pt x="205" y="797" on="0"/>
        <pt x="462" y="1074" on="0"/>
        <pt x="655" y="1074" on="1"/>
        <pt x="824" y="1074" on="0"/>
        <pt x="954" y="969" on="1"/>
        <pt x="895" y="886" on="1"/>
      </contour>
    </TTGlyph>
    <TTGlyph name="c.sc" xMin="13" yMin="-21" xMax="911" yMax="1231">
      <component glyphName="C.hex" x="-105" y="0" flags="0x0"/>
    </TTGlyph>
    <TTGlyph name="cacute" xMin="27" yMin="-19" xMax="989" yMax="1643">
      <component glyphName="c" x="-105" y="0" flags="0x0"/>
      <component glyphName="acutecomb" x="-76" y="0" flags="0x0"/>
    </TTGlyph>
    <TTGlyph name="cacute.sc" xMin="-92" yMin="-21" xMax="1035" yMax="1800">
      <component glyphName="c.sc" x="-105" y="0" flags="0x0"/>
      <component glyphName="acutecomb" x="-30" y="157" flags="0x4"/>
    </TTGlyph>
    <TTGlyph name="caron" xMin="332" yMin="1248" xMax="963" yMax="1643">
      <component glyphName="uni030C" x="-105" y="0" flags="0x0"/>
    </TTGlyph>
    <TTGlyph name="ccaron" xMin="27" yMin="-19" xMax="992" yMax="1643">
      <component glyphName="c" x="-105" y="0" flags="0x0"/>
      <component glyphName="uni030C" x="-76" y="0" flags="0x0"/>
    </TTGlyph>
    <TTGlyph name="ccaron.sc" xMin="-92" yMin="-21" xMax="1038" yMax="1800">
      <component glyphName="c.sc" x="-105" y="0" flags="0x0"/>
      <component glyphName="uni030C" x="-30" y="157" flags="0x4"/>
    </TTGlyph>
    <TTGlyph name="ccedilla" xMin="132" yMin="-303" xMax="954" yMax="1074">
      <contour>
        <pt x="840" y="927" on="0"/>
        <pt x="723" y="972" on="0"/>
        <pt x="642" y="972" on="1"/>
        <pt x="499" y="972" on="0"/>
        <pt x="311" y="748" on="0"/>
        <pt x="267" y="525" on="1"/>
        <pt x="247" y="423" on="0"/>
        <pt x="247" y="349" on="1"/>
        <pt x="247" y="83" on="0"/>
        <pt x="486" y="83" on="1"/>
        <pt x="553" y="83" on="0"/>
        <pt x="664" y="113" on="0"/>
        <pt x="733" y="141" on="1"/>
        <pt x="754" y="47" on="1"/>
        <pt x="697" y="22" on="0"/>
        <pt x="618" y="-3" on="1"/>
        <pt x="616" y="-54" on="0"/>
        <pt x="609" y="-87" on="1"/>
        <pt x="588" y="-195" on="0"/>
        <pt x="437" y="-303" on="0"/>
        <pt x="332" y="-303" on="1"/>
        <pt x="271" y="-303" on="0"/>
        <pt x="210" y="-286" on="1"/>
        <pt x="242" y="-162" on="1"/>
        <pt x="270" y="-166" on="0"/>
        <pt x="320" y="-166" on="1"/>
        <pt x="388" y="-166" on="0"/>
        <pt x="465" y="-107" on="0"/>
        <pt x="477" y="-47" on="1"/>
        <pt x="481" y="-19" on="1"/>
        <pt x="462" y="-19" on="1"/>
        <pt x="301" y="-19" on="0"/>
        <pt x="132" y="168" on="0"/>
        <pt x="132" y="344" on="1"/>
        <pt x="132" y="434" on="0"/>
        <pt x="152" y="533" on="1"/>
        <pt x="205" y="797" on="0"/>
        <pt x="462" y="1074" on="0"/>
        <pt x="655" y="1074" on="1"/>
        <pt x="824" y="1074" on="0"/>
        <pt x="954" y="969" on="1"/>
        <pt x="895" y="886" on="1"/>
      </contour>
    </TTGlyph>
    <TTGlyph name="ccedilla.sc" xMin="118" yMin="-303" xMax="1016" yMax="1231">
      <contour>
        <pt x="290" y="-21" on="0"/>
        <pt x="118" y="173" on="0"/>
        <pt x="118" y="368" on="1"/>
        <pt x="118" y="474" on="0"/>
        <pt x="145" y="609" on="1"/>
        <pt x="208" y="922" on="0"/>
        <pt x="499" y="1231" on="0"/>
        <pt x="719" y="1231" on="1"/>
        <pt x="806" y="1231" on="0"/>
        <pt x="949" y="1168" on="0"/>
        <pt x="1016" y="1113" on="1"/>
        <pt x="938" y="1010" on="1"/>
        <pt x="884" y="1048" on="0"/>
        <pt x="768" y="1095" on="0"/>
        <pt x="693" y="1095" on="1"/>
        <pt x="559" y="1095" on="0"/>
        <pt x="353" y="873" on="0"/>
        <pt x="299" y="601" on="1"/>
        <pt x="273" y="468" on="0"/>
        <pt x="273" y="378" on="1"/>
        <pt x="273" y="242" on="0"/>
        <pt x="384" y="115" on="0"/>
        <pt x="496" y="115" on="1"/>
        <pt x="563" y="115" on="0"/>
        <pt x="684" y="162" on="0"/>
        <pt x="773" y="210" on="1"/>
        <pt x="818" y="102" on="1"/>
        <pt x="746" y="60" on="0"/>
        <pt x="667" y="18" on="0"/>
        <pt x="618" y="2" on="1"/>
        <pt x="616" y="-52" on="0"/>
        <pt x="609" y="-87" on="1"/>
        <pt x="588" y="-195" on="0"/>
        <pt x="437" y="-303" on="0"/>
        <pt x="332" y="-303" on="1"/>
        <pt x="271" y="-303" on="0"/>
        <pt x="210" y="-286" on="1"/>
        <pt x="242" y="-162" on="1"/>
        <pt x="270" y="-166" on="0"/>
        <pt x="320" y="-166" on="1"/>
        <pt x="388" y="-166" on="0"/>
        <pt x="465" y="-107" on="0"/>
        <pt x="477" y="-47" on="1"/>
        <pt x="485" y="-20" on="1"/>
        <pt x="473" y="-21" on="0"/>
        <pt x="450" y="-21" on="1"/>
      </contour>
    </TTGlyph>
    <TTGlyph name="ccircumflex" xMin="27" yMin="-19" xMax="913" yMax="1643">
      <component glyphName="c" x="-105" y="0" flags="0x0"/>
      <component glyphName="uni0302" x="-76" y="0" flags="0x0"/>
    </TTGlyph>
    <TTGlyph name="ccircumflex.sc" xMin="-92" yMin="-21" xMax="959" yMax="1800">
      <component glyphName="c.sc" x="-105" y="0" flags="0x0"/>
      <component glyphName="uni0302" x="-30" y="157" flags="0x4"/>
    </TTGlyph>
    <TTGlyph name="cdotaccent" xMin="27" yMin="-19" xMax="849" yMax="1533">
      <component glyphName="c" x="-105" y="0" flags="0x0"/>
      <component glyphName="uni0307" x="-76" y="0" flags="0x0"/>
    </TTGlyph>
    <TTGlyph name="cdotaccent.sc" xMin="-92" yMin="-21" xMax="806" yMax="1690">
      <component glyphName="c.sc" x="-105" y="0" flags="0x0"/>
      <component glyphName="uni0307" x="-30" y="157" flags="0x4"/>
    </TTGlyph>
    <TTGlyph name="cedilla" xMin="105" yMin="-303" xMax="513" yMax="30">
      <component glyphName="uni0327" x="-105" y="0" flags="0x0"/>
    </TTGlyph>
    <TTGlyph name="circumflex" xMin="253" yMin="1248" xMax="884" yMax="1643">
      <component glyphName="uni0302" x="-105" y="0" flags="0x0"/>
    </TTGlyph>
    <TTGlyph name="colon" xMin="-21" yMin="-18" xMax="403" yMax="1009">
      <component glyphName="period" x="-105" y="0" flags="0x0"/>
      <component glyphName="period" x="46" y="756" flags="0x4"/>
    </TTGlyph>
    <TTGlyph name="comma" xMin="135" yMin="-303" xMax="668" yMax="303">
      <contour>
        <pt x="135" y="-303" on="1"/>
        <pt x="394" y="303" on="1"/>
        <pt x="668" y="303" on="1"/>
        <pt x="261" y="-303" on="1"/>
      </contour>
    </TTGlyph>
    <TTGlyph name="copyright" xMin="-12" yMin="-174" xMax="1103" yMax="1384">
      <contour>
        <pt x="265" y="-174" on="0"/>
        <pt x="83" y="-51" on="0"/>
        <pt x="-12" y="181" on="0"/>
        <pt x="-12" y="342" on="1"/>
        <pt x="-12" y="468" on="0"/>
        <pt x="16" y="609" on="1"/>
        <pt x="64" y="847" on="0"/>
        <pt x="260" y="1196" on="0"/>
        <pt x="535" y="1384" on="0"/>
        <pt x="696" y="1384" on="1"/>
        <pt x="825" y="1384" on="0"/>
        <pt x="1008" y="1261" on="0"/>
        <pt x="1103" y="1030" on="0"/>
        <pt x="1103" y="869" on="1"/>
        <pt x="1103" y="749" on="0"/>
        <pt x="1074" y="601" on="1"/>
        <pt x="1026" y="364" on="0"/>
        <pt x="829" y="14" on="0"/>
        <pt x="555" y="-174" on="0"/>
        <pt x="393" y="-174" on="1"/>
      </contour>
      <contour>
        <pt x="540" y="-38" on="0"/>
        <pt x="743" y="125" on="0"/>
        <pt x="886" y="416" on="0"/>
        <pt x="925" y="611" on="1"/>
        <pt x="955" y="760" on="0"/>
        <pt x="955" y="880" on="1"/>
        <pt x="955" y="1056" on="0"/>
        <pt x="819" y="1248" on="0"/>
        <pt x="679" y="1248" on="1"/>
        <pt x="553" y="1248" on="0"/>
        <pt x="349" y="1087" on="0"/>
        <pt x="205" y="797" on="0"/>
        <pt x="166" y="603" on="1"/>
        <pt x="137" y="455" on="0"/>
        <pt x="137" y="337" on="1"/>
        <pt x="137" y="158" on="0"/>
        <pt x="274" y="-38" on="0"/>
        <pt x="414" y="-38" on="1"/>
      </contour>
      <contour>
        <pt x="441" y="303" on="0"/>
        <pt x="334" y="364" on="0"/>
        <pt x="281" y="470" on="0"/>
        <pt x="281" y="537" on="1"/>
        <pt x="281" y="574" on="0"/>
        <pt x="288" y="609" on="1"/>
        <pt x="317" y="753" on="0"/>
        <pt x="501" y="908" on="0"/>
        <pt x="639" y="908" on="1"/>
        <pt x="679" y="908" on="0"/>
        <pt x="783" y="890" on="0"/>
        <pt x="819" y="878" on="1"/>
        <pt x="774" y="757" on="1"/>
        <pt x="712" y="772" on="0"/>
        <pt x="628" y="772" on="1"/>
        <pt x="560" y="772" on="0"/>
        <pt x="456" y="690" on="0"/>
        <pt x="439" y="601" on="1"/>
        <pt x="433" y="574" on="0"/>
        <pt x="433" y="552" on="1"/>
        <pt x="433" y="500" on="0"/>
        <pt x="497" y="448" on="0"/>
        <pt x="564" y="448" on="1"/>
        <pt x="636" y="448" on="0"/>
        <pt x="710" y="466" on="1"/>
        <pt x="718" y="346" on="1"/>
        <pt x="622" y="303" on="0"/>
        <pt x="519" y="303" on="1"/>
      </contour>
    </TTGlyph>
    <TTGlyph name="d" xMin="83" yMin="-15" xMax="1090" yMax="1513">
      <contour>
        <pt x="204" y="-15" on="0"/>
        <pt x="83" y="135" on="0"/>
        <pt x="83" y="277" on="1"/>
        <pt x="83" y="354" on="0"/>
        <pt x="103" y="457" on="1"/>
        <pt x="143" y="656" on="0"/>
        <pt x="317" y="934" on="0"/>
        <pt x="550" y="1074" on="0"/>
        <pt x="679" y="1075" on="1"/>
        <pt x="774" y="1074" on="0"/>
        <pt x="880" y="1048" on="1"/>
        <pt x="977" y="1513" on="1"/>
        <pt x="1090" y="1513" on="1"/>
        <pt x="788" y="0" on="1"/>
        <pt x="675" y="0" on="1"/>
        <pt x="720" y="228" on="1"/>
        <pt x="653" y="157" on="1"/>
        <pt x="572" y="75" on="0"/>
        <pt x="408" y="-15" on="0"/>
        <pt x="320" y="-15" on="1"/>
      </contour>
      <contour>
        <pt x="418" y="87" on="0"/>
        <pt x="552" y="168" on="0"/>
        <pt x="637" y="252" on="1"/>
        <pt x="745" y="353" on="1"/>
        <pt x="869" y="953" on="1"/>
        <pt x="830" y="964" on="0"/>
        <pt x="734" y="978" on="0"/>
        <pt x="688" y="978" on="1"/>
        <pt x="579" y="978" on="0"/>
        <pt x="393" y="861" on="0"/>
        <pt x="256" y="628" on="0"/>
        <pt x="222" y="458" on="1"/>
        <pt x="201" y="353" on="0"/>
        <pt x="201" y="280" on="1"/>
        <pt x="201" y="180" on="0"/>
        <pt x="276" y="87" on="0"/>
        <pt x="350" y="87" on="1"/>
      </contour>
    </TTGlyph>
    <TTGlyph name="d.sc" xMin="-59" yMin="0" xMax="888" yMax="1210">
      <component glyphName="D.hex" x="-105" y="0" flags="0x0"/>
    </TTGlyph>
    <TTGlyph name="dagger" xMin="124" yMin="-113" xMax="1060" yMax="1324">
      <contour>
        <pt x="503" y="772" on="1"/>
        <pt x="124" y="768" on="1"/>
        <pt x="153" y="911" on="1"/>
        <pt x="530" y="907" on="1"/>
        <pt x="607" y="1324" on="1"/>
        <pt x="770" y="1324" on="1"/>
        <pt x="681" y="907" on="1"/>
        <pt x="1060" y="911" on="1"/>
        <pt x="1031" y="768" on="1"/>
        <pt x="654" y="772" on="1"/>
        <pt x="477" y="-113" on="1"/>
        <pt x="326" y="-113" on="1"/>
      </contour>
    </TTGlyph>
    <TTGlyph name="dcaron.sc" xMin="-164" yMin="0" xMax="979" yMax="1800">
      <component glyphName="d.sc" x="-105" y="0" flags="0x0"/>
      <component glyphName="uni030C" x="-89" y="157" flags="0x4"/>
    </TTGlyph>
    <TTGlyph name="dcroat" xMin="83" yMin="-15" xMax="1207" yMax="1513">
      <contour>
        <pt x="204" y="-15" on="0"/>
        <pt x="83" y="135" on="0"/>
        <pt x="83" y="277" on="1"/>
        <pt x="83" y="354" on="0"/>
        <pt x="103" y="457" on="1"/>
        <pt x="143" y="656" on="0"/>
        <pt x="317" y="934" on="0"/>
        <pt x="550" y="1074" on="0"/>
        <pt x="679" y="1075" on="1"/>
        <pt x="774" y="1074" on="0"/>
        <pt x="880" y="1048" on="1"/>
        <pt x="923" y="1240" on="1"/>
        <pt x="653" y="1240" on="1"/>
        <pt x="673" y="1342" on="1"/>
        <pt x="943" y="1342" on="1"/>
        <pt x="977" y="1513" on="1"/>
        <pt x="1090" y="1513" on="1"/>
        <pt x="1056" y="1342" on="1"/>
        <pt x="1207" y="1342" on="1"/>
        <pt x="1187" y="1240" on="1"/>
        <pt x="1036" y="1240" on="1"/>
        <pt x="788" y="0" on="1"/>
        <pt x="675" y="0" on="1"/>
        <pt x="720" y="228" on="1"/>
        <pt x="653" y="157" on="1"/>
        <pt x="572" y="75" on="0"/>
        <pt x="408" y="-15" on="0"/>
        <pt x="320" y="-15" on="1"/>
      </contour>
      <contour>
        <pt x="418" y="87" on="0"/>
        <pt x="552" y="168" on="0"/>
        <pt x="637" y="252" on="1"/>
        <pt x="745" y="353" on="1"/>
        <pt x="869" y="953" on="1"/>
        <pt x="830" y="964" on="0"/>
        <pt x="734" y="978" on="0"/>
        <pt x="688" y="978" on="1"/>
        <pt x="579" y="978" on="0"/>
        <pt x="393" y="861" on="0"/>
        <pt x="256" y="628" on="0"/>
        <pt x="222" y="458" on="1"/>
        <pt x="201" y="353" on="0"/>
        <pt x="201" y="280" on="1"/>
        <pt x="201" y="180" on="0"/>
        <pt x="276" y="87" on="0"/>
        <pt x="350" y="87" on="1"/>
      </contour>
    </TTGlyph>
    <TTGlyph name="dcroat.sc" xMin="-101" yMin="0" xMax="888" yMax="1210">
      <component glyphName="eth.sc" x="-105" y="0" flags="0x0"/>
    </TTGlyph>
    <TTGlyph name="dieresis" xMin="314" yMin="1318" xMax="892" yMax="1522">
      <component glyphName="uni0308" x="-105" y="0" flags="0x0"/>
    </TTGlyph>
    <TTGlyph name="dollar" xMin="78" yMin="-303" xMax="1015" yMax="1664">
      <contour>
        <pt x="335" y="-14" on="1"/>
        <pt x="263" y="-8" on="0"/>
        <pt x="139" y="42" on="0"/>
        <pt x="78" y="83" on="1"/>
        <pt x="144" y="195" on="1"/>
        <pt x="197" y="162" on="0"/>
        <pt x="332" y="119" on="0"/>
        <pt x="396" y="119" on="1"/>
        <pt x="465" y="119" on="0"/>
        <pt x="582" y="170" on="0"/>
        <pt x="659" y="264" on="0"/>
        <pt x="671" y="325" on="1"/>
        <pt x="676" y="352" on="0"/>
        <pt x="676" y="371" on="1"/>
        <pt x="676" y="423" on="0"/>
        <pt x="629" y="513" on="0"/>
        <pt x="561" y="584" on="0"/>
        <pt x="500" y="638" on="1"/>
        <pt x="433" y="697" on="0"/>
        <pt x="352" y="784" on="0"/>
        <pt x="295" y="900" on="0"/>
        <pt x="295" y="971" on="1"/>
        <pt x="295" y="1008" on="0"/>
        <pt x="302" y="1044" on="1"/>
        <pt x="318" y="1122" on="0"/>
        <pt x="404" y="1260" on="0"/>
        <pt x="540" y="1358" on="0"/>
        <pt x="627" y="1374" on="1"/>
        <pt x="688" y="1664" on="1"/>
        <pt x="840" y="1664" on="1"/>
        <pt x="779" y="1375" on="1"/>
        <pt x="848" y="1365" on="0"/>
        <pt x="969" y="1319" on="0"/>
        <pt x="1015" y="1290" on="1"/>
        <pt x="945" y="1180" on="1"/>
        <pt x="824" y="1244" on="0"/>
        <pt x="699" y="1244" on="1"/>
        <pt x="635" y="1244" on="0"/>
        <pt x="533" y="1186" on="0"/>
        <pt x="468" y="1096" on="0"/>
        <pt x="458" y="1047" on="1"/>
        <pt x="453" y="1019" on="0"/>
        <pt x="453" y="999" on="1"/>
        <pt x="453" y="946" on="0"/>
        <pt x="499" y="858" on="0"/>
        <pt x="567" y="789" on="0"/>
        <pt x="627" y="737" on="1"/>
        <pt x="695" y="679" on="0"/>
        <pt x="776" y="594" on="0"/>
        <pt x="833" y="476" on="0"/>
        <pt x="833" y="402" on="1"/>
        <pt x="833" y="360" on="0"/>
        <pt x="825" y="321" on="1"/>
        <pt x="810" y="245" on="0"/>
        <pt x="720" y="108" on="0"/>
        <pt x="578" y="10" on="0"/>
        <pt x="487" y="-8" on="1"/>
        <pt x="424" y="-303" on="1"/>
        <pt x="273" y="-303" on="1"/>
      </contour>
    </TTGlyph>
    <TTGlyph name="dotaccent" xMin="488" yMin="1307" xMax="719" yMax="1533">
      <component glyphName="uni0307" x="-105" y="0" flags="0x0"/>
    </TTGlyph>
    <TTGlyph name="dotlessi" xMin="18" yMin="0" xMax="697" yMax="1063">
      <contour>
        <pt x="680" y="0" on="1"/>
        <pt x="18" y="0" on="1"/>
        <pt x="35" y="85" on="1"/>
        <pt x="311" y="99" on="1"/>
        <pt x="484" y="963" on="1"/>
        <pt x="229" y="963" on="1"/>
        <pt x="246" y="1049" on="1"/>
        <pt x="566" y="1063" on="1"/>
        <pt x="618" y="1063" on="1"/>
        <pt x="425" y="99" on="1"/>
        <pt x="697" y="85" on="1"/>
      </contour>
    </TTGlyph>
    <TTGlyph name="dotlessi.sans" xMin="84" yMin="0" xMax="408" yMax="1054">
      <contour>
        <pt x="294" y="1054" on="1"/>
        <pt x="408" y="1054" on="1"/>
        <pt x="198" y="0" on="1"/>
        <pt x="84" y="0" on="1"/>
      </contour>
    </TTGlyph>
    <TTGlyph name="dotlessi.sans.prop" xMin="368" yMin="0" xMax="691" yMax="1054">
      <contour>
        <pt x="578" y="1054" on="1"/>
        <pt x="691" y="1054" on="1"/>
        <pt x="481" y="0" on="1"/>
        <pt x="368" y="0" on="1"/>
      </contour>
    </TTGlyph>
    <TTGlyph name="dotlessi.sc" xMin="-59" yMin="0" xMax="788" yMax="1210">
      <component glyphName="i.sc" x="-105" y="0" flags="0x0"/>
    </TTGlyph>
    <TTGlyph name="e" xMin="109" yMin="-19" xMax="903" yMax="1069">
      <contour>
        <pt x="288" y="-19" on="0"/>
        <pt x="109" y="170" on="0"/>
        <pt x="109" y="348" on="1"/>
        <pt x="109" y="428" on="0"/>
        <pt x="129" y="531" on="1"/>
        <pt x="163" y="700" on="0"/>
        <pt x="304" y="941" on="0"/>
        <pt x="505" y="1069" on="0"/>
        <pt x="628" y="1069" on="1"/>
        <pt x="760" y="1068" on="0"/>
        <pt x="903" y="912" on="0"/>
        <pt x="903" y="774" on="1"/>
        <pt x="903" y="661" on="0"/>
        <pt x="856" y="526" on="1"/>
        <pt x="246" y="530" on="1"/>
        <pt x="244" y="523" on="1"/>
        <pt x="224" y="423" on="0"/>
        <pt x="224" y="351" on="1"/>
        <pt x="224" y="216" on="0"/>
        <pt x="350" y="83" on="0"/>
        <pt x="478" y="83" on="1"/>
        <pt x="532" y="83" on="0"/>
        <pt x="654" y="112" on="0"/>
        <pt x="733" y="142" on="1"/>
        <pt x="750" y="45" on="1"/>
        <pt x="666" y="12" on="0"/>
        <pt x="525" y="-19" on="0"/>
        <pt x="459" y="-19" on="1"/>
      </contour>
      <contour>
        <pt x="771" y="634" on="1"/>
        <pt x="789" y="714" on="0"/>
        <pt x="789" y="774" on="1"/>
        <pt x="789" y="871" on="0"/>
        <pt x="700" y="970" on="0"/>
        <pt x="611" y="970" on="1"/>
        <pt x="495" y="970" on="0"/>
        <pt x="318" y="793" on="0"/>
        <pt x="269" y="626" on="1"/>
      </contour>
    </TTGlyph>
    <TTGlyph name="e.sc" xMin="-36" yMin="0" xMax="915" yMax="1210">
      <component glyphName="E.hex" x="-105" y="0" flags="0x0"/>
    </TTGlyph>
    <TTGlyph name="eacute" xMin="4" yMin="-19" xMax="951" yMax="1643">
      <component glyphName="e" x="-105" y="0" flags="0x0"/>
      <component glyphName="acutecomb" x="-114" y="0" flags="0x0"/>
    </TTGlyph>
    <TTGlyph name="eacute.sc" xMin="-141" yMin="0" xMax="1001" yMax="1800">
      <component glyphName="e.sc" x="-105" y="0" flags="0x0"/>
      <component glyphName="acutecomb" x="-64" y="157" flags="0x4"/>
    </TTGlyph>
    <TTGlyph name="ebreve" xMin="4" yMin="-19" xMax="920" yMax="1591">
      <component glyphName="e" x="-105" y="0" flags="0x0"/>
      <component glyphName="uni0306" x="-114" y="0" flags="0x0"/>
    </TTGlyph>
    <TTGlyph name="ebreve.sc" xMin="-141" yMin="0" xMax="970" yMax="1748">
      <component glyphName="e.sc" x="-105" y="0" flags="0x0"/>
      <component glyphName="uni0306" x="-64" y="157" flags="0x4"/>
    </TTGlyph>
    <TTGlyph name="ecaron" xMin="4" yMin="-19" xMax="954" yMax="1643">
      <component glyphName="e" x="-105" y="0" flags="0x0"/>
      <component glyphName="uni030C" x="-114" y="0" flags="0x0"/>
    </TTGlyph>
    <TTGlyph name="ecaron.sc" xMin="-141" yMin="0" xMax="1004" yMax="1800">
      <component glyphName="e.sc" x="-105" y="0" flags="0x0"/>
      <component glyphName="uni030C" x="-64" y="157" flags="0x4"/>
    </TTGlyph>
    <TTGlyph name="ecircumflex" xMin="4" yMin="-19" xMax="875" yMax="1643">
      <component glyphName="e" x="-105" y="0" flags="0x0"/>
      <component glyphName="uni0302" x="-114" y="0" flags="0x0"/>
    </TTGlyph>
    <TTGlyph name="ecircumflex.sc" xMin="-141" yMin="0" xMax="925" yMax="1800">
      <component glyphName="e.sc" x="-105" y="0" flags="0x0"/>
      <component glyphName="uni0302" x="-64" y="157" flags="0x4"/>
    </TTGlyph>
    <TTGlyph name="edieresis" xMin="4" yMin="-19" xMax="883" yMax="1522">
      <component glyphName="e" x="-105" y="0" flags="0x0"/>
      <component glyphName="uni0308" x="-114" y="0" flags="0x0"/>
    </TTGlyph>
    <TTGlyph name="edieresis.sc" xMin="-141" yMin="0" xMax="933" yMax="1679">
      <component glyphName="e.sc" x="-105" y="0" flags="0x0"/>
      <component glyphName="uni0308" x="-64" y="157" flags="0x4"/>
    </TTGlyph>
    <TTGlyph name="edotaccent" xMin="4" yMin="-19" xMax="798" yMax="1533">
      <component glyphName="e" x="-105" y="0" flags="0x0"/>
      <component glyphName="uni0307" x="-114" y="0" flags="0x0"/>
    </TTGlyph>
    <TTGlyph name="edotaccent.sc" xMin="-141" yMin="0" xMax="810" yMax="1690">
      <component glyphName="e.sc" x="-105" y="0" flags="0x0"/>
      <component glyphName="uni0307" x="-64" y="157" flags="0x4"/>
    </TTGlyph>
    <TTGlyph name="egrave" xMin="4" yMin="-19" xMax="798" yMax="1643">
      <component glyphName="e" x="-105" y="0" flags="0x0"/>
      <component glyphName="gravecomb" x="-114" y="0" flags="0x0"/>
    </TTGlyph>
    <TTGlyph name="egrave.sc" xMin="-141" yMin="0" xMax="810" yMax="1800">
      <component glyphName="e.sc" x="-105" y="0" flags="0x0"/>
      <component glyphName="gravecomb" x="-64" y="157" flags="0x4"/>
    </TTGlyph>
    <TTGlyph name="eight" xMin="48" yMin="-19" xMax="1021" yMax="1380">
      <contour>
        <pt x="295" y="-19" on="0"/>
        <pt x="128" y="49" on="0"/>
        <pt x="48" y="169" on="0"/>
        <pt x="48" y="247" on="1"/>
        <pt x="48" y="274" on="0"/>
        <pt x="55" y="314" on="1"/>
        <pt x="81" y="444" on="0"/>
        <pt x="274" y="627" on="0"/>
        <pt x="427" y="710" on="1"/>
        <pt x="366" y="773" on="1"/>
        <pt x="304" y="830" on="0"/>
        <pt x="242" y="929" on="0"/>
        <pt x="242" y="998" on="1"/>
        <pt x="242" y="1031" on="0"/>
        <pt x="249" y="1063" on="1"/>
        <pt x="267" y="1152" on="0"/>
        <pt x="391" y="1297" on="0"/>
        <pt x="582" y="1380" on="0"/>
        <pt x="696" y="1380" on="1"/>
        <pt x="794" y="1380" on="0"/>
        <pt x="942" y="1311" on="0"/>
        <pt x="1021" y="1187" on="0"/>
        <pt x="1021" y="1108" on="1"/>
        <pt x="1021" y="1074" on="0"/>
        <pt x="1014" y="1042" on="1"/>
        <pt x="999" y="967" on="0"/>
        <pt x="915" y="847" on="0"/>
        <pt x="796" y="750" on="0"/>
        <pt x="698" y="683" on="1"/>
        <pt x="772" y="610" on="1"/>
        <pt x="848" y="539" on="0"/>
        <pt x="914" y="420" on="0"/>
        <pt x="914" y="359" on="1"/>
        <pt x="914" y="331" on="0"/>
        <pt x="908" y="302" on="1"/>
        <pt x="891" y="218" on="0"/>
        <pt x="763" y="71" on="0"/>
        <pt x="553" y="-19" on="0"/>
        <pt x="421" y="-19" on="1"/>
      </contour>
      <contour>
        <pt x="211" y="295" on="0"/>
        <pt x="211" y="279" on="1"/>
        <pt x="211" y="237" on="0"/>
        <pt x="257" y="164" on="0"/>
        <pt x="359" y="117" on="0"/>
        <pt x="440" y="117" on="1"/>
        <pt x="525" y="117" on="0"/>
        <pt x="657" y="166" on="0"/>
        <pt x="739" y="253" on="0"/>
        <pt x="750" y="308" on="1"/>
        <pt x="755" y="333" on="0"/>
        <pt x="755" y="349" on="1"/>
        <pt x="755" y="384" on="0"/>
        <pt x="714" y="452" on="0"/>
        <pt x="662" y="500" on="1"/>
        <pt x="526" y="620" on="1"/>
        <pt x="384" y="550" on="0"/>
        <pt x="233" y="404" on="0"/>
        <pt x="214" y="310" on="1"/>
      </contour>
      <contour>
        <pt x="403" y="1035" on="0"/>
        <pt x="403" y="1016" on="1"/>
        <pt x="403" y="977" on="0"/>
        <pt x="439" y="916" on="0"/>
        <pt x="479" y="878" on="1"/>
        <pt x="608" y="767" on="1"/>
        <pt x="691" y="827" on="0"/>
        <pt x="777" y="897" on="0"/>
        <pt x="846" y="991" on="0"/>
        <pt x="858" y="1050" on="1"/>
        <pt x="862" y="1076" on="0"/>
        <pt x="862" y="1089" on="1"/>
        <pt x="862" y="1156" on="0"/>
        <pt x="770" y="1246" on="0"/>
        <pt x="674" y="1246" on="1"/>
        <pt x="604" y="1246" on="0"/>
        <pt x="490" y="1199" on="0"/>
        <pt x="419" y="1116" on="0"/>
        <pt x="408" y="1063" on="1"/>
      </contour>
    </TTGlyph>
    <TTGlyph name="ellipsis" xMin="29" yMin="-23" xMax="852" yMax="189">
      <contour>
        <pt x="80" y="-23" on="0"/>
        <pt x="29" y="26" on="0"/>
        <pt x="29" y="65" on="1"/>
        <pt x="29" y="73" on="0"/>
        <pt x="31" y="87" on="1"/>
        <pt x="41" y="134" on="0"/>
        <pt x="108" y="189" on="0"/>
        <pt x="155" y="189" on="1"/>
        <pt x="195" y="189" on="0"/>
        <pt x="247" y="140" on="0"/>
        <pt x="247" y="102" on="1"/>
        <pt x="247" y="87" on="0"/>
        <pt x="245" y="79" on="1"/>
        <pt x="236" y="33" on="0"/>
        <pt x="168" y="-23" on="0"/>
        <pt x="121" y="-23" on="1"/>
      </contour>
      <contour>
        <pt x="383" y="-23" on="0"/>
        <pt x="332" y="27" on="0"/>
        <pt x="332" y="65" on="1"/>
        <pt x="332" y="71" on="0"/>
        <pt x="334" y="87" on="1"/>
        <pt x="344" y="134" on="0"/>
        <pt x="410" y="189" on="0"/>
        <pt x="457" y="189" on="1"/>
        <pt x="498" y="189" on="0"/>
        <pt x="549" y="140" on="0"/>
        <pt x="549" y="102" on="1"/>
        <pt x="549" y="87" on="0"/>
        <pt x="547" y="79" on="1"/>
        <pt x="538" y="33" on="0"/>
        <pt x="470" y="-23" on="0"/>
        <pt x="423" y="-23" on="1"/>
      </contour>
      <contour>
        <pt x="685" y="-23" on="0"/>
        <pt x="634" y="26" on="0"/>
        <pt x="634" y="65" on="1"/>
        <pt x="634" y="73" on="0"/>
        <pt x="636" y="87" on="1"/>
        <pt x="646" y="134" on="0"/>
        <pt x="713" y="189" on="0"/>
        <pt x="760" y="189" on="1"/>
        <pt x="800" y="189" on="0"/>
        <pt x="852" y="140" on="0"/>
        <pt x="852" y="102" on="1"/>
        <pt x="852" y="87" on="0"/>
        <pt x="850" y="79" on="1"/>
        <pt x="841" y="33" on="0"/>
        <pt x="773" y="-23" on="0"/>
        <pt x="726" y="-23" on="1"/>
      </contour>
    </TTGlyph>
    <TTGlyph name="emacron" xMin="4" yMin="-19" xMax="885" yMax="1482">
      <component glyphName="e" x="-105" y="0" flags="0x0"/>
      <component glyphName="uni0304" x="-114" y="0" flags="0x0"/>
    </TTGlyph>
    <TTGlyph name="emacron.sc" xMin="-141" yMin="0" xMax="935" yMax="1639">
      <component glyphName="e.sc" x="-105" y="0" flags="0x0"/>
      <component glyphName="uni0304" x="-64" y="157" flags="0x4"/>
    </TTGlyph>
    <TTGlyph name="emdash" xMin="19" yMin="622" xMax="1098" yMax="721">
      <contour>
        <pt x="39" y="721" on="1"/>
        <pt x="1098" y="721" on="1"/>
        <pt x="1078" y="622" on="1"/>
        <pt x="19" y="622" on="1"/>
      </contour>
    </TTGlyph>
    <TTGlyph name="endash" xMin="19" yMin="622" xMax="1098" yMax="721">
      <contour>
        <pt x="39" y="721" on="1"/>
        <pt x="1098" y="721" on="1"/>
        <pt x="1078" y="622" on="1"/>
        <pt x="19" y="622" on="1"/>
      </contour>
    </TTGlyph>
    <TTGlyph name="eogonek" xMin="109" yMin="-303" xMax="903" yMax="1069">
      <contour>
        <pt x="288" y="-19" on="0"/>
        <pt x="109" y="170" on="0"/>
        <pt x="109" y="348" on="1"/>
        <pt x="109" y="428" on="0"/>
        <pt x="129" y="531" on="1"/>
        <pt x="163" y="700" on="0"/>
        <pt x="304" y="941" on="0"/>
        <pt x="505" y="1069" on="0"/>
        <pt x="628" y="1069" on="1"/>
        <pt x="760" y="1068" on="0"/>
        <pt x="903" y="912" on="0"/>
        <pt x="903" y="774" on="1"/>
        <pt x="903" y="661" on="0"/>
        <pt x="856" y="526" on="1"/>
        <pt x="246" y="530" on="1"/>
        <pt x="244" y="523" on="1"/>
        <pt x="224" y="423" on="0"/>
        <pt x="224" y="351" on="1"/>
        <pt x="224" y="216" on="0"/>
        <pt x="350" y="83" on="0"/>
        <pt x="478" y="83" on="1"/>
        <pt x="532" y="83" on="0"/>
        <pt x="654" y="112" on="0"/>
        <pt x="733" y="142" on="1"/>
        <pt x="750" y="45" on="1"/>
        <pt x="661" y="-7" on="0"/>
        <pt x="568" y="-103" on="0"/>
        <pt x="568" y="-155" on="1"/>
        <pt x="568" y="-178" on="0"/>
        <pt x="599" y="-200" on="0"/>
        <pt x="632" y="-200" on="1"/>
        <pt x="658" y="-200" on="0"/>
        <pt x="706" y="-187" on="1"/>
        <pt x="711" y="-283" on="1"/>
        <pt x="649" y="-303" on="0"/>
        <pt x="591" y="-303" on="1"/>
        <pt x="523" y="-303" on="0"/>
        <pt x="444" y="-245" on="0"/>
        <pt x="444" y="-193" on="1"/>
        <pt x="444" y="-179" on="0"/>
        <pt x="447" y="-162" on="1"/>
        <pt x="465" y="-68" on="0"/>
        <pt x="577" y="-8" on="1"/>
        <pt x="521" y="-19" on="0"/>
        <pt x="459" y="-19" on="1"/>
      </contour>
      <contour>
        <pt x="771" y="634" on="1"/>
        <pt x="789" y="714" on="0"/>
        <pt x="789" y="774" on="1"/>
        <pt x="789" y="871" on="0"/>
        <pt x="700" y="970" on="0"/>
        <pt x="611" y="970" on="1"/>
        <pt x="495" y="970" on="0"/>
        <pt x="318" y="793" on="0"/>
        <pt x="269" y="626" on="1"/>
      </contour>
    </TTGlyph>
    <TTGlyph name="eogonek.sc" xMin="69" yMin="-303" xMax="1020" yMax="1210">
      <contour>
        <pt x="311" y="1210" on="1"/>
        <pt x="1020" y="1210" on="1"/>
        <pt x="992" y="1074" on="1"/>
        <pt x="434" y="1074" on="1"/>
        <pt x="355" y="677" on="1"/>
        <pt x="845" y="677" on="1"/>
        <pt x="818" y="541" on="1"/>
        <pt x="328" y="541" on="1"/>
        <pt x="247" y="136" on="1"/>
        <pt x="813" y="136" on="1"/>
        <pt x="789" y="-1" on="1"/>
        <pt x="701" y="-24" on="0"/>
        <pt x="601" y="-111" on="0"/>
        <pt x="601" y="-159" on="1"/>
        <pt x="601" y="-180" on="0"/>
        <pt x="632" y="-200" on="0"/>
        <pt x="666" y="-200" on="1"/>
        <pt x="692" y="-200" on="0"/>
        <pt x="740" y="-187" on="1"/>
        <pt x="745" y="-283" on="1"/>
        <pt x="683" y="-303" on="0"/>
        <pt x="625" y="-303" on="1"/>
        <pt x="557" y="-303" on="0"/>
        <pt x="478" y="-246" on="0"/>
        <pt x="478" y="-194" on="1"/>
        <pt x="478" y="-181" on="0"/>
        <pt x="481" y="-164" on="1"/>
        <pt x="502" y="-60" on="0"/>
        <pt x="648" y="2" on="1"/>
        <pt x="69" y="0" on="1"/>
      </contour>
    </TTGlyph>
    <TTGlyph name="equal" xMin="25" yMin="461" xMax="1096" yMax="900">
      <contour>
        <pt x="113" y="900" on="1"/>
        <pt x="1096" y="900" on="1"/>
        <pt x="1068" y="764" on="1"/>
        <pt x="85" y="764" on="1"/>
      </contour>
      <contour>
        <pt x="52" y="598" on="1"/>
        <pt x="1035" y="598" on="1"/>
        <pt x="1008" y="461" on="1"/>
        <pt x="25" y="461" on="1"/>
      </contour>
    </TTGlyph>
    <TTGlyph name="eth.sc" xMin="4" yMin="0" xMax="993" yMax="1210">
      <contour>
        <pt x="993" y="1210" on="0"/>
        <pt x="993" y="821" on="1"/>
        <pt x="993" y="724" on="0"/>
        <pt x="969" y="605" on="1"/>
        <pt x="929" y="407" on="0"/>
        <pt x="760" y="135" on="0"/>
        <pt x="522" y="0" on="0"/>
        <pt x="379" y="0" on="1"/>
        <pt x="46" y="0" on="1"/>
        <pt x="155" y="545" on="1"/>
        <pt x="4" y="545" on="1"/>
        <pt x="31" y="681" on="1"/>
        <pt x="182" y="681" on="1"/>
        <pt x="288" y="1210" on="1"/>
        <pt x="602" y="1210" on="1"/>
      </contour>
      <contour>
        <pt x="412" y="1074" on="1"/>
        <pt x="334" y="681" on="1"/>
        <pt x="595" y="681" on="1"/>
        <pt x="568" y="545" on="1"/>
        <pt x="307" y="545" on="1"/>
        <pt x="225" y="136" on="1"/>
        <pt x="406" y="136" on="1"/>
        <pt x="556" y="136" on="0"/>
        <pt x="760" y="356" on="0"/>
        <pt x="810" y="607" on="1"/>
        <pt x="834" y="729" on="0"/>
        <pt x="834" y="815" on="1"/>
        <pt x="834" y="953" on="0"/>
        <pt x="713" y="1074" on="0"/>
        <pt x="590" y="1074" on="1"/>
      </contour>
    </TTGlyph>
    <TTGlyph name="exclam" xMin="84" yMin="-18" xMax="794" yMax="1362">
      <contour>
        <pt x="599" y="1362" on="1"/>
        <pt x="794" y="1362" on="1"/>
        <pt x="568" y="529" on="1"/>
        <pt x="491" y="529" on="1"/>
      </contour>
      <contour>
        <pt x="147" y="-17" on="0"/>
        <pt x="84" y="47" on="0"/>
        <pt x="84" y="95" on="1"/>
        <pt x="84" y="111" on="0"/>
        <pt x="86" y="120" on="1"/>
        <pt x="98" y="177" on="0"/>
        <pt x="187" y="253" on="0"/>
        <pt x="243" y="253" on="1"/>
        <pt x="294" y="253" on="0"/>
        <pt x="357" y="188" on="0"/>
        <pt x="357" y="138" on="1"/>
        <pt x="357" y="121" on="0"/>
        <pt x="355" y="112" on="1"/>
        <pt x="343" y="56" on="0"/>
        <pt x="254" y="-17" on="0"/>
        <pt x="197" y="-18" on="1"/>
      </contour>
    </TTGlyph>
    <TTGlyph name="exclamdown" xMin="266" yMin="-303" xMax="976" yMax="1077">
      <contour>
        <pt x="461" y="-303" on="1"/>
        <pt x="266" y="-303" on="1"/>
        <pt x="492" y="530" on="1"/>
        <pt x="569" y="530" on="1"/>
      </contour>
      <contour>
        <pt x="913" y="1076" on="0"/>
        <pt x="976" y="1012" on="0"/>
        <pt x="976" y="964" on="1"/>
        <pt x="976" y="948" on="0"/>
        <pt x="974" y="939" on="1"/>
        <pt x="962" y="882" on="0"/>
        <pt x="873" y="806" on="0"/>
        <pt x="817" y="806" on="1"/>
        <pt x="766" y="806" on="0"/>
        <pt x="703" y="871" on="0"/>
        <pt x="703" y="921" on="1"/>
        <pt x="703" y="938" on="0"/>
        <pt x="705" y="947" on="1"/>
        <pt x="717" y="1003" on="0"/>
        <pt x="806" y="1076" on="0"/>
        <pt x="863" y="1077" on="1"/>
      </contour>
    </TTGlyph>
    <TTGlyph name="f" xMin="79" yMin="-329" xMax="1113" yMax="1536">
      <contour>
        <pt x="205" y="-176" on="0"/>
        <pt x="356" y="3" on="0"/>
        <pt x="383" y="139" on="1"/>
        <pt x="513" y="789" on="1"/>
        <pt x="206" y="789" on="1"/>
        <pt x="227" y="891" on="1"/>
        <pt x="534" y="891" on="1"/>
        <pt x="601" y="1227" on="1"/>
        <pt x="630" y="1374" on="0"/>
        <pt x="806" y="1536" on="0"/>
        <pt x="936" y="1536" on="1"/>
        <pt x="1018" y="1536" on="0"/>
        <pt x="1113" y="1500" on="1"/>
        <pt x="1077" y="1407" on="1"/>
        <pt x="1047" y="1419" on="0"/>
        <pt x="970" y="1433" on="0"/>
        <pt x="934" y="1433" on="1"/>
        <pt x="847" y="1433" on="0"/>
        <pt x="734" y="1322" on="0"/>
        <pt x="714" y="1224" on="1"/>
        <pt x="648" y="891" on="1"/>
        <pt x="985" y="891" on="1"/>
        <pt x="964" y="789" on="1"/>
        <pt x="627" y="789" on="1"/>
        <pt x="497" y="135" on="1"/>
        <pt x="462" y="-38" on="0"/>
        <pt x="269" y="-255" on="0"/>
        <pt x="112" y="-329" on="1"/>
        <pt x="79" y="-241" on="1"/>
      </contour>
    </TTGlyph>
    <TTGlyph name="f.sc" xMin="-21" yMin="0" xMax="940" yMax="1210">
      <component glyphName="F.hex" x="-105" y="0" flags="0x0"/>
    </TTGlyph>
    <TTGlyph name="five" xMin="-19" yMin="-322" xMax="977" yMax="1210">
      <contour>
        <pt x="200" y="-166" on="0"/>
        <pt x="488" y="-61" on="0"/>
        <pt x="652" y="105" on="0"/>
        <pt x="676" y="227" on="1"/>
        <pt x="682" y="256" on="0"/>
        <pt x="682" y="285" on="1"/>
        <pt x="682" y="381" on="0"/>
        <pt x="545" y="503" on="0"/>
        <pt x="404" y="503" on="1"/>
        <pt x="339" y="503" on="0"/>
        <pt x="227" y="493" on="0"/>
        <pt x="158" y="483" on="1"/>
        <pt x="300" y="1210" on="1"/>
        <pt x="977" y="1210" on="1"/>
        <pt x="949" y="1074" on="1"/>
        <pt x="423" y="1074" on="1"/>
        <pt x="331" y="632" on="1"/>
        <pt x="406" y="637" on="0"/>
        <pt x="455" y="637" on="1"/>
        <pt x="588" y="637" on="0"/>
        <pt x="763" y="554" on="0"/>
        <pt x="847" y="410" on="0"/>
        <pt x="847" y="318" on="1"/>
        <pt x="847" y="274" on="0"/>
        <pt x="838" y="227" on="1"/>
        <pt x="794" y="3" on="0"/>
        <pt x="375" y="-273" on="0"/>
        <pt x="-17" y="-322" on="1"/>
        <pt x="-19" y="-198" on="1"/>
      </contour>
    </TTGlyph>
    <TTGlyph name="florin" xMin="206" yMin="0" xMax="1113" yMax="1536">
      <contour>
        <pt x="513" y="789" on="1"/>
        <pt x="206" y="789" on="1"/>
        <pt x="227" y="891" on="1"/>
        <pt x="534" y="891" on="1"/>
        <pt x="601" y="1227" on="1"/>
        <pt x="630" y="1374" on="0"/>
        <pt x="806" y="1536" on="0"/>
        <pt x="936" y="1536" on="1"/>
        <pt x="1018" y="1536" on="0"/>
        <pt x="1113" y="1500" on="1"/>
        <pt x="1077" y="1407" on="1"/>
        <pt x="1047" y="1419" on="0"/>
        <pt x="970" y="1433" on="0"/>
        <pt x="934" y="1433" on="1"/>
        <pt x="848" y="1433" on="0"/>
        <pt x="734" y="1324" on="0"/>
        <pt x="714" y="1224" on="1"/>
        <pt x="648" y="891" on="1"/>
        <pt x="985" y="891" on="1"/>
        <pt x="964" y="789" on="1"/>
        <pt x="627" y="789" on="1"/>
        <pt x="470" y="0" on="1"/>
        <pt x="356" y="0" on="1"/>
      </contour>
    </TTGlyph>
    <TTGlyph name="four" xMin="8" yMin="-151" xMax="904" yMax="1210">
      <contour>
        <pt x="576" y="151" on="1"/>
        <pt x="8" y="151" on="1"/>
        <pt x="27" y="248" on="1"/>
        <pt x="649" y="1210" on="1"/>
        <pt x="805" y="1210" on="1"/>
        <pt x="199" y="284" on="1"/>
        <pt x="602" y="284" on="1"/>
        <pt x="687" y="709" on="1"/>
        <pt x="838" y="709" on="1"/>
        <pt x="753" y="284" on="1"/>
        <pt x="904" y="284" on="1"/>
        <pt x="878" y="151" on="1"/>
        <pt x="727" y="151" on="1"/>
        <pt x="666" y="-151" on="1"/>
        <pt x="515" y="-151" on="1"/>
      </contour>
    </TTGlyph>
    <TTGlyph name="g" xMin="-22" yMin="-318" xMax="988" yMax="1075">
      <contour>
        <pt x="230" y="136" on="0"/>
        <pt x="104" y="272" on="0"/>
        <pt x="104" y="401" on="1"/>
        <pt x="104" y="466" on="0"/>
        <pt x="118" y="533" on="1"/>
        <pt x="153" y="706" on="0"/>
        <pt x="322" y="950" on="0"/>
        <pt x="552" y="1074" on="0"/>
        <pt x="679" y="1075" on="1"/>
        <pt x="826" y="1074" on="0"/>
        <pt x="988" y="1019" on="1"/>
        <pt x="807" y="97" on="1"/>
        <pt x="780" y="-37" on="0"/>
        <pt x="647" y="-224" on="0"/>
        <pt x="456" y="-318" on="0"/>
        <pt x="342" y="-318" on="1"/>
        <pt x="147" y="-318" on="0"/>
        <pt x="-22" y="-187" on="1"/>
        <pt x="32" y="-107" on="1"/>
        <pt x="103" y="-160" on="0"/>
        <pt x="253" y="-215" on="0"/>
        <pt x="342" y="-215" on="1"/>
        <pt x="481" y="-215" on="0"/>
        <pt x="663" y="-55" on="0"/>
        <pt x="694" y="95" on="1"/>
        <pt x="751" y="380" on="1"/>
        <pt x="684" y="308" on="1"/>
        <pt x="604" y="225" on="0"/>
        <pt x="439" y="136" on="0"/>
        <pt x="350" y="136" on="1"/>
      </contour>
      <contour>
        <pt x="448" y="238" on="0"/>
        <pt x="582" y="319" on="0"/>
        <pt x="667" y="404" on="1"/>
        <pt x="776" y="505" on="1"/>
        <pt x="869" y="953" on="1"/>
        <pt x="830" y="964" on="0"/>
        <pt x="734" y="978" on="0"/>
        <pt x="688" y="978" on="1"/>
        <pt x="579" y="978" on="0"/>
        <pt x="396" y="877" on="0"/>
        <pt x="266" y="677" on="0"/>
        <pt x="237" y="533" on="1"/>
        <pt x="223" y="460" on="0"/>
        <pt x="223" y="410" on="1"/>
        <pt x="223" y="321" on="0"/>
        <pt x="302" y="238" on="0"/>
        <pt x="380" y="238" on="1"/>
      </contour>
    </TTGlyph>
    <TTGlyph name="g.sc" xMin="119" yMin="-21" xMax="1016" yMax="1231">
      <contour>
        <pt x="301" y="-21" on="0"/>
        <pt x="119" y="173" on="0"/>
        <pt x="119" y="371" on="1"/>
        <pt x="119" y="480" on="0"/>
        <pt x="145" y="609" on="1"/>
        <pt x="208" y="922" on="0"/>
        <pt x="502" y="1231" on="0"/>
        <pt x="727" y="1231" on="1"/>
        <pt x="808" y="1231" on="0"/>
        <pt x="949" y="1186" on="0"/>
        <pt x="1016" y="1144" on="1"/>
        <pt x="947" y="1029" on="1"/>
        <pt x="890" y="1059" on="0"/>
        <pt x="775" y="1095" on="0"/>
        <pt x="708" y="1095" on="1"/>
        <pt x="563" y="1095" on="0"/>
        <pt x="353" y="875" on="0"/>
        <pt x="299" y="601" on="1"/>
        <pt x="273" y="469" on="0"/>
        <pt x="273" y="381" on="1"/>
        <pt x="273" y="243" on="0"/>
        <pt x="390" y="115" on="0"/>
        <pt x="510" y="115" on="1"/>
        <pt x="583" y="115" on="0"/>
        <pt x="675" y="140" on="1"/>
        <pt x="744" y="469" on="1"/>
        <pt x="506" y="469" on="1"/>
        <pt x="534" y="605" on="1"/>
        <pt x="924" y="605" on="1"/>
        <pt x="815" y="45" on="1"/>
        <pt x="733" y="13" on="0"/>
        <pt x="567" y="-21" on="0"/>
        <pt x="476" y="-21" on="1"/>
      </contour>
    </TTGlyph>
    <TTGlyph name="gbreve" xMin="-127" yMin="-318" xMax="948" yMax="1591">
      <component glyphName="g" x="-105" y="0" flags="0x0"/>
      <component glyphName="uni0306" x="-86" y="0" flags="0x0"/>
    </TTGlyph>
    <TTGlyph name="gbreve.sc" xMin="14" yMin="-21" xMax="1004" yMax="1748">
      <component glyphName="g.sc" x="-105" y="0" flags="0x0"/>
      <component glyphName="uni0306" x="-30" y="157" flags="0x4"/>
    </TTGlyph>
    <TTGlyph name="gcaron" xMin="-127" yMin="-318" xMax="982" yMax="1643">
      <component glyphName="g" x="-105" y="0" flags="0x0"/>
      <component glyphName="uni030C" x="-86" y="0" flags="0x0"/>
    </TTGlyph>
    <TTGlyph name="gcaron.sc" xMin="14" yMin="-21" xMax="1038" yMax="1800">
      <component glyphName="g.sc" x="-105" y="0" flags="0x0"/>
      <component glyphName="uni030C" x="-30" y="157" flags="0x4"/>
    </TTGlyph>
    <TTGlyph name="gcircumflex" xMin="-127" yMin="-318" xMax="903" yMax="1643">
      <component glyphName="g" x="-105" y="0" flags="0x0"/>
      <component glyphName="uni0302" x="-86" y="0" flags="0x0"/>
    </TTGlyph>
    <TTGlyph name="gcircumflex.sc" xMin="14" yMin="-21" xMax="959" yMax="1800">
      <component glyphName="g.sc" x="-105" y="0" flags="0x0"/>
      <component glyphName="uni0302" x="-30" y="157" flags="0x4"/>
    </TTGlyph>
    <TTGlyph name="gdotaccent" xMin="-127" yMin="-318" xMax="883" yMax="1533">
      <component glyphName="g" x="-105" y="0" flags="0x0"/>
      <component glyphName="uni0307" x="-86" y="0" flags="0x0"/>
    </TTGlyph>
    <TTGlyph name="gdotaccent.sc" xMin="14" yMin="-21" xMax="911" yMax="1690">
      <component glyphName="g.sc" x="-105" y="0" flags="0x0"/>
      <component glyphName="uni0307" x="-30" y="157" flags="0x4"/>
    </TTGlyph>
    <TTGlyph name="germandbls" xMin="-217" yMin="-329" xMax="967" yMax="1532">
      <contour>
        <pt x="-91" y="-175" on="0"/>
        <pt x="61" y="3" on="0"/>
        <pt x="88" y="139" on="1"/>
        <pt x="295" y="1170" on="1"/>
        <pt x="318" y="1286" on="0"/>
        <pt x="431" y="1449" on="0"/>
        <pt x="596" y="1532" on="0"/>
        <pt x="695" y="1532" on="1"/>
        <pt x="823" y="1532" on="0"/>
        <pt x="967" y="1401" on="0"/>
        <pt x="967" y="1286" on="1"/>
        <pt x="967" y="1248" on="0"/>
        <pt x="958" y="1204" on="1"/>
        <pt x="945" y="1137" on="0"/>
        <pt x="882" y="1025" on="0"/>
        <pt x="809" y="944" on="0"/>
        <pt x="753" y="890" on="1"/>
        <pt x="692" y="832" on="0"/>
        <pt x="632" y="758" on="0"/>
        <pt x="624" y="716" on="1"/>
        <pt x="622" y="708" on="0"/>
        <pt x="622" y="693" on="1"/>
        <pt x="622" y="663" on="0"/>
        <pt x="654" y="616" on="0"/>
        <pt x="701" y="582" on="0"/>
        <pt x="744" y="556" on="1"/>
        <pt x="800" y="523" on="0"/>
        <pt x="869" y="469" on="0"/>
        <pt x="918" y="383" on="0"/>
        <pt x="918" y="324" on="1"/>
        <pt x="918" y="296" on="0"/>
        <pt x="912" y="263" on="1"/>
        <pt x="897" y="190" on="0"/>
        <pt x="796" y="61" on="0"/>
        <pt x="637" y="-19" on="0"/>
        <pt x="541" y="-19" on="1"/>
        <pt x="486" y="-19" on="0"/>
        <pt x="401" y="8" on="0"/>
        <pt x="351" y="35" on="1"/>
        <pt x="389" y="110" on="1"/>
        <pt x="425" y="93" on="0"/>
        <pt x="492" y="78" on="0"/>
        <pt x="534" y="78" on="1"/>
        <pt x="603" y="78" on="0"/>
        <pt x="715" y="134" on="0"/>
        <pt x="787" y="225" on="0"/>
        <pt x="797" y="275" on="1"/>
        <pt x="801" y="294" on="0"/>
        <pt x="801" y="313" on="1"/>
        <pt x="801" y="353" on="0"/>
        <pt x="764" y="411" on="0"/>
        <pt x="709" y="450" on="0"/>
        <pt x="662" y="476" on="1"/>
        <pt x="610" y="505" on="0"/>
        <pt x="549" y="549" on="0"/>
        <pt x="506" y="619" on="0"/>
        <pt x="506" y="670" on="1"/>
        <pt x="506" y="694" on="0"/>
        <pt x="512" y="724" on="1"/>
        <pt x="521" y="769" on="0"/>
        <pt x="564" y="841" on="0"/>
        <pt x="615" y="893" on="0"/>
        <pt x="661" y="933" on="1"/>
        <pt x="711" y="976" on="0"/>
        <pt x="775" y="1042" on="0"/>
        <pt x="829" y="1137" on="0"/>
        <pt x="842" y="1200" on="1"/>
        <pt x="850" y="1242" on="0"/>
        <pt x="850" y="1273" on="1"/>
        <pt x="850" y="1350" on="0"/>
        <pt x="765" y="1432" on="0"/>
        <pt x="679" y="1432" on="1"/>
        <pt x="576" y="1432" on="0"/>
        <pt x="433" y="1293" on="0"/>
        <pt x="406" y="1163" on="1"/>
        <pt x="200" y="135" on="1"/>
        <pt x="166" y="-38" on="0"/>
        <pt x="-27" y="-255" on="0"/>
        <pt x="-184" y="-329" on="1"/>
        <pt x="-217" y="-241" on="1"/>
      </contour>
    </TTGlyph>
    <TTGlyph name="germandbls.sc" xMin="0" yMin="-303" xMax="908" yMax="1229">
      <contour>
        <pt x="219" y="-17" on="0"/>
        <pt x="71" y="35" on="0"/>
        <pt x="0" y="83" on="1"/>
        <pt x="66" y="195" on="1"/>
        <pt x="120" y="162" on="0"/>
        <pt x="255" y="119" on="0"/>
        <pt x="319" y="119" on="1"/>
        <pt x="424" y="119" on="0"/>
        <pt x="571" y="217" on="0"/>
        <pt x="588" y="301" on="1"/>
        <pt x="591" y="319" on="0"/>
        <pt x="591" y="335" on="1"/>
        <pt x="591" y="379" on="0"/>
        <pt x="544" y="455" on="0"/>
        <pt x="474" y="517" on="0"/>
        <pt x="414" y="560" on="1"/>
        <pt x="343" y="612" on="0"/>
        <pt x="256" y="691" on="0"/>
        <pt x="195" y="800" on="0"/>
        <pt x="195" y="868" on="1"/>
        <pt x="195" y="893" on="0"/>
        <pt x="202" y="931" on="1"/>
        <pt x="218" y="1009" on="0"/>
        <pt x="322" y="1145" on="0"/>
        <pt x="490" y="1229" on="0"/>
        <pt x="596" y="1229" on="1"/>
        <pt x="688" y="1229" on="0"/>
        <pt x="848" y="1175" on="0"/>
        <pt x="908" y="1138" on="1"/>
        <pt x="838" y="1029" on="1"/>
        <pt x="713" y="1093" on="0"/>
        <pt x="592" y="1093" on="1"/>
        <pt x="528" y="1093" on="0"/>
        <pt x="426" y="1045" on="0"/>
        <pt x="364" y="970" on="0"/>
        <pt x="356" y="928" on="1"/>
        <pt x="353" y="910" on="0"/>
        <pt x="353" y="894" on="1"/>
        <pt x="353" y="849" on="0"/>
        <pt x="400" y="772" on="0"/>
        <pt x="469" y="712" on="0"/>
        <pt x="530" y="666" on="1"/>
        <pt x="601" y="614" on="0"/>
        <pt x="688" y="535" on="0"/>
        <pt x="749" y="425" on="0"/>
        <pt x="749" y="357" on="1"/>
        <pt x="749" y="325" on="0"/>
        <pt x="742" y="293" on="1"/>
        <pt x="723" y="199" on="0"/>
        <pt x="588" y="46" on="0"/>
        <pt x="479" y="7" on="1"/>
        <pt x="479" y="-46" on="0"/>
        <pt x="470" y="-87" on="1"/>
        <pt x="449" y="-195" on="0"/>
        <pt x="298" y="-303" on="0"/>
        <pt x="193" y="-303" on="1"/>
        <pt x="132" y="-303" on="0"/>
        <pt x="71" y="-286" on="1"/>
        <pt x="103" y="-162" on="1"/>
        <pt x="131" y="-166" on="0"/>
        <pt x="181" y="-166" on="1"/>
        <pt x="249" y="-166" on="0"/>
        <pt x="326" y="-107" on="0"/>
        <pt x="338" y="-47" on="1"/>
        <pt x="347" y="-16" on="1"/>
        <pt x="333" y="-17" on="0"/>
        <pt x="309" y="-17" on="1"/>
      </contour>
    </TTGlyph>
    <TTGlyph name="grave" xMin="513" yMin="756" xMax="804" yMax="1362">
      <contour>
        <pt x="513" y="1362" on="1"/>
        <pt x="787" y="1362" on="1"/>
        <pt x="804" y="756" on="1"/>
        <pt x="678" y="756" on="1"/>
      </contour>
    </TTGlyph>
    <TTGlyph name="gravecomb" xMin="440" yMin="1248" xMax="766" yMax="1643">
      <contour>
        <pt x="624" y="1248" on="1"/>
        <pt x="440" y="1643" on="1"/>
        <pt x="700" y="1643" on="1"/>
        <pt x="766" y="1248" on="1"/>
      </contour>
    </TTGlyph>
    <TTGlyph name="gravecomb.case" xMin="486" yMin="1475" xMax="812" yMax="1870">
      <contour>
        <pt x="670" y="1475" on="1"/>
        <pt x="486" y="1870" on="1"/>
        <pt x="746" y="1870" on="1"/>
        <pt x="812" y="1475" on="1"/>
      </contour>
    </TTGlyph>
    <TTGlyph name="greater" xMin="32" yMin="-68" xMax="978" yMax="1432">
      <contour>
        <pt x="801" y="671" on="1"/>
        <pt x="292" y="1231" on="1"/>
        <pt x="332" y="1432" on="1"/>
        <pt x="978" y="717" on="1"/>
        <pt x="964" y="647" on="1"/>
        <pt x="32" y="-68" on="1"/>
        <pt x="68" y="110" on="1"/>
      </contour>
    </TTGlyph>
    <TTGlyph name="h" xMin="61" yMin="0" xMax="954" yMax="1513">
      <contour>
        <pt x="363" y="1513" on="1"/>
        <pt x="476" y="1513" on="1"/>
        <pt x="339" y="826" on="1"/>
        <pt x="408" y="893" on="1"/>
        <pt x="504" y="981" on="0"/>
        <pt x="656" y="1068" on="0"/>
        <pt x="745" y="1069" on="1"/>
        <pt x="847" y="1068" on="0"/>
        <pt x="954" y="968" on="0"/>
        <pt x="954" y="870" on="1"/>
        <pt x="954" y="827" on="0"/>
        <pt x="944" y="780" on="1"/>
        <pt x="788" y="0" on="1"/>
        <pt x="675" y="0" on="1"/>
        <pt x="832" y="784" on="1"/>
        <pt x="839" y="819" on="0"/>
        <pt x="839" y="851" on="1"/>
        <pt x="839" y="908" on="0"/>
        <pt x="781" y="964" on="0"/>
        <pt x="717" y="964" on="1"/>
        <pt x="650" y="964" on="0"/>
        <pt x="519" y="886" on="0"/>
        <pt x="426" y="802" on="1"/>
        <pt x="315" y="709" on="1"/>
        <pt x="174" y="0" on="1"/>
        <pt x="61" y="0" on="1"/>
      </contour>
    </TTGlyph>
    <TTGlyph name="h.sc" xMin="46" yMin="0" xMax="1045" yMax="1210">
      <contour>
        <pt x="288" y="1210" on="1"/>
        <pt x="440" y="1210" on="1"/>
        <pt x="334" y="681" on="1"/>
        <pt x="787" y="681" on="1"/>
        <pt x="893" y="1210" on="1"/>
        <pt x="1045" y="1210" on="1"/>
        <pt x="803" y="0" on="1"/>
        <pt x="651" y="0" on="1"/>
        <pt x="760" y="545" on="1"/>
        <pt x="307" y="545" on="1"/>
        <pt x="198" y="0" on="1"/>
        <pt x="46" y="0" on="1"/>
      </contour>
    </TTGlyph>
    <TTGlyph name="h.short" xMin="61" yMin="0" xMax="954" yMax="1362">
      <contour>
        <pt x="333" y="1362" on="1"/>
        <pt x="446" y="1362" on="1"/>
        <pt x="339" y="826" on="1"/>
        <pt x="408" y="893" on="1"/>
        <pt x="504" y="981" on="0"/>
        <pt x="656" y="1068" on="0"/>
        <pt x="745" y="1069" on="1"/>
        <pt x="847" y="1068" on="0"/>
        <pt x="954" y="968" on="0"/>
        <pt x="954" y="870" on="1"/>
        <pt x="954" y="827" on="0"/>
        <pt x="944" y="780" on="1"/>
        <pt x="788" y="0" on="1"/>
        <pt x="675" y="0" on="1"/>
        <pt x="832" y="784" on="1"/>
        <pt x="839" y="819" on="0"/>
        <pt x="839" y="851" on="1"/>
        <pt x="839" y="908" on="0"/>
        <pt x="781" y="964" on="0"/>
        <pt x="717" y="964" on="1"/>
        <pt x="650" y="964" on="0"/>
        <pt x="519" y="886" on="0"/>
        <pt x="426" y="802" on="1"/>
        <pt x="315" y="709" on="1"/>
        <pt x="174" y="0" on="1"/>
        <pt x="61" y="0" on="1"/>
      </contour>
    </TTGlyph>
    <TTGlyph name="hbar" xMin="61" yMin="0" xMax="954" yMax="1513">
      <contour>
        <pt x="309" y="1242" on="1"/>
        <pt x="158" y="1242" on="1"/>
        <pt x="179" y="1345" on="1"/>
        <pt x="330" y="1345" on="1"/>
        <pt x="363" y="1513" on="1"/>
        <pt x="476" y="1513" on="1"/>
        <pt x="443" y="1345" on="1"/>
        <pt x="703" y="1345" on="1"/>
        <pt x="682" y="1242" on="1"/>
        <pt x="422" y="1242" on="1"/>
        <pt x="339" y="826" on="1"/>
        <pt x="408" y="893" on="1"/>
        <pt x="504" y="981" on="0"/>
        <pt x="656" y="1068" on="0"/>
        <pt x="745" y="1069" on="1"/>
        <pt x="847" y="1068" on="0"/>
        <pt x="954" y="968" on="0"/>
        <pt x="954" y="870" on="1"/>
        <pt x="954" y="827" on="0"/>
        <pt x="944" y="780" on="1"/>
        <pt x="788" y="0" on="1"/>
        <pt x="675" y="0" on="1"/>
        <pt x="832" y="784" on="1"/>
        <pt x="839" y="819" on="0"/>
        <pt x="839" y="851" on="1"/>
        <pt x="839" y="908" on="0"/>
        <pt x="781" y="964" on="0"/>
        <pt x="717" y="964" on="1"/>
        <pt x="650" y="964" on="0"/>
        <pt x="519" y="886" on="0"/>
        <pt x="426" y="802" on="1"/>
        <pt x="315" y="709" on="1"/>
        <pt x="174" y="0" on="1"/>
        <pt x="61" y="0" on="1"/>
      </contour>
    </TTGlyph>
    <TTGlyph name="hbar.sc" xMin="46" yMin="0" xMax="1165" yMax="1210">
      <contour>
        <pt x="230" y="923" on="1"/>
        <pt x="79" y="923" on="1"/>
        <pt x="106" y="1059" on="1"/>
        <pt x="257" y="1059" on="1"/>
        <pt x="288" y="1210" on="1"/>
        <pt x="440" y="1210" on="1"/>
        <pt x="409" y="1059" on="1"/>
        <pt x="862" y="1059" on="1"/>
        <pt x="893" y="1210" on="1"/>
        <pt x="1045" y="1210" on="1"/>
        <pt x="1014" y="1059" on="1"/>
        <pt x="1165" y="1059" on="1"/>
        <pt x="1138" y="923" on="1"/>
        <pt x="987" y="923" on="1"/>
        <pt x="803" y="0" on="1"/>
        <pt x="651" y="0" on="1"/>
        <pt x="760" y="545" on="1"/>
        <pt x="307" y="545" on="1"/>
        <pt x="198" y="0" on="1"/>
        <pt x="46" y="0" on="1"/>
      </contour>
      <contour>
        <pt x="787" y="681" on="1"/>
        <pt x="835" y="923" on="1"/>
        <pt x="382" y="923" on="1"/>
        <pt x="334" y="681" on="1"/>
      </contour>
    </TTGlyph>
    <TTGlyph name="hcircumflex" xMin="-44" yMin="0" xMax="930" yMax="1870">
      <component glyphName="h.short" x="-105" y="0" flags="0x0"/>
      <component glyphName="uni0302.case" x="-105" y="0" flags="0x0"/>
    </TTGlyph>
    <TTGlyph name="hcircumflex.sc" xMin="-59" yMin="0" xMax="940" yMax="1800">
      <component glyphName="h.sc" x="-105" y="0" flags="0x0"/>
      <component glyphName="uni0302" x="-74" y="157" flags="0x4"/>
    </TTGlyph>
    <TTGlyph name="hyphen" xMin="169" yMin="619" xMax="946" yMax="719">
      <contour>
        <pt x="189" y="719" on="1"/>
        <pt x="946" y="719" on="1"/>
        <pt x="926" y="619" on="1"/>
        <pt x="169" y="619" on="1"/>
      </contour>
    </TTGlyph>
    <TTGlyph name="i" xMin="-87" yMin="0" xMax="657" yMax="1533">
      <component glyphName="dotlessi" x="-105" y="0" flags="0x0"/>
      <component glyphName="uni0307" x="-167" y="0" flags="0x0"/>
    </TTGlyph>
    <TTGlyph name="i.sans" xMin="-21" yMin="0" xMax="434" yMax="1533">
      <component glyphName="dotlessi.sans" x="-105" y="0" flags="0x0"/>
      <component glyphName="uni0307" x="-390" y="0" flags="0x0"/>
    </TTGlyph>
    <TTGlyph name="i.sans.prop" xMin="263" yMin="0" xMax="718" yMax="1533">
      <component glyphName="dotlessi.sans.prop" x="-105" y="0" flags="0x0"/>
      <component glyphName="uni0307" x="-106" y="0" flags="0x0"/>
    </TTGlyph>
    <TTGlyph name="i.sc" xMin="46" yMin="0" xMax="893" yMax="1210">
      <contour>
        <pt x="70" y="121" on="1"/>
        <pt x="300" y="136" on="1"/>
        <pt x="487" y="1074" on="1"/>
        <pt x="263" y="1089" on="1"/>
        <pt x="288" y="1210" on="1"/>
        <pt x="893" y="1210" on="1"/>
        <pt x="868" y="1089" on="1"/>
        <pt x="638" y="1074" on="1"/>
        <pt x="451" y="136" on="1"/>
        <pt x="675" y="121" on="1"/>
        <pt x="651" y="0" on="1"/>
        <pt x="46" y="0" on="1"/>
      </contour>
    </TTGlyph>
    <TTGlyph name="iacute" xMin="-87" yMin="0" xMax="898" yMax="1643">
      <component glyphName="dotlessi" x="-105" y="0" flags="0x0"/>
      <component glyphName="acutecomb" x="-167" y="0" flags="0x0"/>
    </TTGlyph>
    <TTGlyph name="iacute.sc" xMin="-59" yMin="0" xMax="916" yMax="1800">
      <component glyphName="i.sc" x="-105" y="0" flags="0x0"/>
      <component glyphName="acutecomb" x="-149" y="157" flags="0x4"/>
    </TTGlyph>
    <TTGlyph name="ibreve" xMin="-87" yMin="0" xMax="867" yMax="1591">
      <component glyphName="dotlessi" x="-105" y="0" flags="0x0"/>
      <component glyphName="uni0306" x="-167" y="0" flags="0x0"/>
    </TTGlyph>
    <TTGlyph name="ibreve.sc" xMin="-59" yMin="0" xMax="885" yMax="1748">
      <component glyphName="i.sc" x="-105" y="0" flags="0x0"/>
      <component glyphName="uni0306" x="-149" y="157" flags="0x4"/>
    </TTGlyph>
    <TTGlyph name="icircumflex" xMin="-87" yMin="0" xMax="822" yMax="1643">
      <component glyphName="dotlessi" x="-105" y="0" flags="0x0"/>
      <component glyphName="uni0302" x="-167" y="0" flags="0x0"/>
    </TTGlyph>
    <TTGlyph name="icircumflex.sc" xMin="-59" yMin="0" xMax="840" yMax="1800">
      <component glyphName="i.sc" x="-105" y="0" flags="0x0"/>
      <component glyphName="uni0302" x="-149" y="157" flags="0x4"/>
    </TTGlyph>
    <TTGlyph name="idieresis" xMin="-87" yMin="0" xMax="830" yMax="1522">
      <component glyphName="dotlessi" x="-105" y="0" flags="0x0"/>
      <component glyphName="uni0308" x="-167" y="0" flags="0x0"/>
    </TTGlyph>
    <TTGlyph name="idieresis.sc" xMin="-59" yMin="0" xMax="848" yMax="1679">
      <component glyphName="i.sc" x="-105" y="0" flags="0x0"/>
      <component glyphName="uni0308" x="-149" y="157" flags="0x4"/>
    </TTGlyph>
    <TTGlyph name="igrave" xMin="-87" yMin="0" xMax="599" yMax="1643">
      <component glyphName="dotlessi" x="-105" y="0" flags="0x0"/>
      <component glyphName="gravecomb" x="-167" y="0" flags="0x0"/>
    </TTGlyph>
    <TTGlyph name="igrave.sc" xMin="-59" yMin="0" xMax="788" yMax="1800">
      <component glyphName="i.sc" x="-105" y="0" flags="0x0"/>
      <component glyphName="gravecomb" x="-149" y="157" flags="0x4"/>
    </TTGlyph>
    <TTGlyph name="ij.sc" xMin="-59" yMin="-23" xMax="1712" yMax="1210">
      <component glyphName="i.sc" x="-105" y="0" flags="0x0"/>
      <component glyphName="j.sc" x="803" y="0" flags="0x0"/>
    </TTGlyph>
    <TTGlyph name="imacron" xMin="-87" yMin="0" xMax="832" yMax="1482">
      <component glyphName="dotlessi" x="-105" y="0" flags="0x0"/>
      <component glyphName="uni0304" x="-167" y="0" flags="0x0"/>
    </TTGlyph>
    <TTGlyph name="imacron.sc" xMin="-59" yMin="0" xMax="850" yMax="1639">
      <component glyphName="i.sc" x="-105" y="0" flags="0x0"/>
      <component glyphName="uni0304" x="-149" y="157" flags="0x4"/>
    </TTGlyph>
    <TTGlyph name="iogonek" xMin="18" yMin="-303" xMax="762" yMax="1533">
      <contour>
        <pt x="683" y="-1" on="1"/>
        <pt x="595" y="-24" on="0"/>
        <pt x="495" y="-111" on="0"/>
        <pt x="495" y="-159" on="1"/>
        <pt x="495" y="-180" on="0"/>
        <pt x="526" y="-200" on="0"/>
        <pt x="560" y="-200" on="1"/>
        <pt x="586" y="-200" on="0"/>
        <pt x="634" y="-187" on="1"/>
        <pt x="639" y="-283" on="1"/>
        <pt x="577" y="-303" on="0"/>
        <pt x="519" y="-303" on="1"/>
        <pt x="451" y="-303" on="0"/>
        <pt x="372" y="-246" on="0"/>
        <pt x="372" y="-194" on="1"/>
        <pt x="372" y="-181" on="0"/>
        <pt x="375" y="-164" on="1"/>
        <pt x="396" y="-60" on="0"/>
        <pt x="542" y="2" on="1"/>
        <pt x="18" y="0" on="1"/>
        <pt x="35" y="85" on="1"/>
        <pt x="311" y="99" on="1"/>
        <pt x="484" y="963" on="1"/>
        <pt x="229" y="963" on="1"/>
        <pt x="246" y="1049" on="1"/>
        <pt x="566" y="1063" on="1"/>
        <pt x="618" y="1063" on="1"/>
        <pt x="425" y="99" on="1"/>
        <pt x="697" y="85" on="1"/>
      </contour>
      <contour>
        <pt x="584" y="1307" on="0"/>
        <pt x="531" y="1357" on="0"/>
        <pt x="531" y="1397" on="1"/>
        <pt x="531" y="1434" on="0"/>
        <pt x="567" y="1497" on="0"/>
        <pt x="628" y="1533" on="0"/>
        <pt x="664" y="1533" on="1"/>
        <pt x="708" y="1533" on="0"/>
        <pt x="762" y="1478" on="0"/>
        <pt x="762" y="1436" on="1"/>
        <pt x="762" y="1429" on="0"/>
        <pt x="760" y="1415" on="1"/>
        <pt x="749" y="1368" on="0"/>
        <pt x="675" y="1307" on="0"/>
        <pt x="626" y="1307" on="1"/>
      </contour>
    </TTGlyph>
    <TTGlyph name="iogonek.sc" xMin="46" yMin="-303" xMax="893" yMax="1210">
      <contour>
        <pt x="70" y="121" on="1"/>
        <pt x="300" y="136" on="1"/>
        <pt x="487" y="1074" on="1"/>
        <pt x="263" y="1089" on="1"/>
        <pt x="288" y="1210" on="1"/>
        <pt x="893" y="1210" on="1"/>
        <pt x="868" y="1089" on="1"/>
        <pt x="638" y="1074" on="1"/>
        <pt x="451" y="136" on="1"/>
        <pt x="675" y="121" on="1"/>
        <pt x="654" y="-1" on="1"/>
        <pt x="566" y="-24" on="0"/>
        <pt x="466" y="-111" on="0"/>
        <pt x="466" y="-159" on="1"/>
        <pt x="466" y="-180" on="0"/>
        <pt x="497" y="-200" on="0"/>
        <pt x="531" y="-200" on="1"/>
        <pt x="557" y="-200" on="0"/>
        <pt x="605" y="-187" on="1"/>
        <pt x="610" y="-283" on="1"/>
        <pt x="548" y="-303" on="0"/>
        <pt x="490" y="-303" on="1"/>
        <pt x="422" y="-303" on="0"/>
        <pt x="343" y="-246" on="0"/>
        <pt x="343" y="-194" on="1"/>
        <pt x="343" y="-181" on="0"/>
        <pt x="346" y="-164" on="1"/>
        <pt x="367" y="-60" on="0"/>
        <pt x="513" y="2" on="1"/>
        <pt x="46" y="0" on="1"/>
      </contour>
    </TTGlyph>
    <TTGlyph name="itilde" xMin="-87" yMin="0" xMax="893" yMax="1562">
      <component glyphName="dotlessi" x="-105" y="0" flags="0x0"/>
      <component glyphName="tildecomb" x="-167" y="0" flags="0x0"/>
    </TTGlyph>
    <TTGlyph name="itilde.sc" xMin="-59" yMin="0" xMax="911" yMax="1719">
      <component glyphName="i.sc" x="-105" y="0" flags="0x0"/>
      <component glyphName="tildecomb" x="-149" y="157" flags="0x4"/>
    </TTGlyph>
    <TTGlyph name="j" xMin="-192" yMin="-303" xMax="623" yMax="1533">
      <component glyphName="uni0237" x="-105" y="0" flags="0x0"/>
      <component glyphName="uni0307" x="-201" y="0" flags="0x0"/>
    </TTGlyph>
    <TTGlyph name="j.sans" xMin="-192" yMin="-303" xMax="623" yMax="1533">
      <component glyphName="uni0237" x="-105" y="0" flags="0x0"/>
      <component glyphName="uni0307" x="-201" y="0" flags="0x0"/>
    </TTGlyph>
    <TTGlyph name="j.sans.prop" xMin="-192" yMin="-303" xMax="623" yMax="1533">
      <component glyphName="uni0237" x="-105" y="0" flags="0x0"/>
      <component glyphName="uni0307" x="-201" y="0" flags="0x0"/>
    </TTGlyph>
    <TTGlyph name="j.sc" xMin="-14" yMin="-23" xMax="909" yMax="1210">
      <contour>
        <pt x="194" y="-23" on="0"/>
        <pt x="44" y="86" on="0"/>
        <pt x="-14" y="193" on="1"/>
        <pt x="101" y="268" on="1"/>
        <pt x="146" y="191" on="0"/>
        <pt x="247" y="113" on="0"/>
        <pt x="320" y="113" on="1"/>
        <pt x="421" y="113" on="0"/>
        <pt x="564" y="250" on="0"/>
        <pt x="590" y="378" on="1"/>
        <pt x="729" y="1074" on="1"/>
        <pt x="306" y="1074" on="1"/>
        <pt x="334" y="1210" on="1"/>
        <pt x="909" y="1210" on="1"/>
        <pt x="743" y="380" on="1"/>
        <pt x="718" y="255" on="0"/>
        <pt x="593" y="73" on="0"/>
        <pt x="413" y="-23" on="0"/>
        <pt x="306" y="-23" on="1"/>
      </contour>
    </TTGlyph>
    <TTGlyph name="jcircumflex" xMin="-192" yMin="-303" xMax="788" yMax="1643">
      <component glyphName="uni0237" x="-105" y="0" flags="0x0"/>
      <component glyphName="uni0302" x="-201" y="0" flags="0x0"/>
    </TTGlyph>
    <TTGlyph name="jcircumflex.sc" xMin="-119" yMin="-23" xMax="870" yMax="1800">
      <component glyphName="j.sc" x="-105" y="0" flags="0x0"/>
      <component glyphName="uni0302" x="-119" y="157" flags="0x4"/>
    </TTGlyph>
    <TTGlyph name="k" xMin="61" yMin="0" xMax="954" yMax="1513">
      <contour>
        <pt x="61" y="0" on="1"/>
        <pt x="363" y="1513" on="1"/>
        <pt x="476" y="1513" on="1"/>
        <pt x="291" y="589" on="1"/>
        <pt x="297" y="589" on="1"/>
        <pt x="819" y="1054" on="1"/>
        <pt x="954" y="1054" on="1"/>
        <pt x="378" y="558" on="1"/>
        <pt x="769" y="0" on="1"/>
        <pt x="619" y="0" on="1"/>
        <pt x="275" y="507" on="1"/>
        <pt x="174" y="0" on="1"/>
      </contour>
    </TTGlyph>
    <TTGlyph name="k.sc" xMin="46" yMin="0" xMax="1031" yMax="1210">
      <contour>
        <pt x="46" y="0" on="1"/>
        <pt x="288" y="1210" on="1"/>
        <pt x="440" y="1210" on="1"/>
        <pt x="329" y="659" on="1"/>
        <pt x="857" y="1210" on="1"/>
        <pt x="1031" y="1210" on="1"/>
        <pt x="461" y="630" on="1"/>
        <pt x="820" y="0" on="1"/>
        <pt x="631" y="0" on="1"/>
        <pt x="314" y="581" on="1"/>
        <pt x="198" y="0" on="1"/>
      </contour>
    </TTGlyph>
    <TTGlyph name="l" xMin="18" yMin="0" xMax="710" yMax="1521">
      <contour>
        <pt x="35" y="85" on="1"/>
        <pt x="311" y="99" on="1"/>
        <pt x="576" y="1422" on="1"/>
        <pt x="321" y="1422" on="1"/>
        <pt x="338" y="1507" on="1"/>
        <pt x="658" y="1521" on="1"/>
        <pt x="710" y="1521" on="1"/>
        <pt x="425" y="99" on="1"/>
        <pt x="697" y="85" on="1"/>
        <pt x="680" y="0" on="1"/>
        <pt x="18" y="0" on="1"/>
      </contour>
    </TTGlyph>
    <TTGlyph name="l.sans" xMin="84" yMin="0" xMax="500" yMax="1513">
      <contour>
        <pt x="386" y="1513" on="1"/>
        <pt x="500" y="1513" on="1"/>
        <pt x="198" y="0" on="1"/>
        <pt x="84" y="0" on="1"/>
      </contour>
    </TTGlyph>
    <TTGlyph name="l.sans.prop" xMin="368" yMin="0" xMax="783" yMax="1513">
      <contour>
        <pt x="670" y="1513" on="1"/>
        <pt x="783" y="1513" on="1"/>
        <pt x="481" y="0" on="1"/>
        <pt x="368" y="0" on="1"/>
      </contour>
    </TTGlyph>
    <TTGlyph name="l.sc" xMin="46" yMin="0" xMax="754" yMax="1210">
      <contour>
        <pt x="288" y="1210" on="1"/>
        <pt x="440" y="1210" on="1"/>
        <pt x="225" y="136" on="1"/>
        <pt x="754" y="136" on="1"/>
        <pt x="727" y="0" on="1"/>
        <pt x="46" y="0" on="1"/>
      </contour>
    </TTGlyph>
    <TTGlyph name="lacute" xMin="-87" yMin="0" xMax="974" yMax="2021">
      <component glyphName="l" x="-105" y="0" flags="0x0"/>
      <component glyphName="acutecomb.case" x="-137" y="151" flags="0x4"/>
    </TTGlyph>
    <TTGlyph name="lacute.sc" xMin="-59" yMin="0" xMax="708" yMax="1800">
      <component glyphName="l.sc" x="-105" y="0" flags="0x0"/>
      <component glyphName="acutecomb" x="-357" y="157" flags="0x4"/>
    </TTGlyph>
    <TTGlyph name="lcaron.sc" xMin="-59" yMin="0" xMax="649" yMax="1210">
      <component glyphName="l.sc" x="-105" y="0" flags="0x0"/>
    </TTGlyph>
    <TTGlyph name="less" xMin="143" yMin="-70" xMax="1089" yMax="1430">
      <contour>
        <pt x="319" y="692" on="1"/>
        <pt x="829" y="131" on="1"/>
        <pt x="789" y="-70" on="1"/>
        <pt x="143" y="645" on="1"/>
        <pt x="157" y="715" on="1"/>
        <pt x="1089" y="1430" on="1"/>
        <pt x="1053" y="1252" on="1"/>
      </contour>
    </TTGlyph>
    <TTGlyph name="lslash.sc" xMin="-59" yMin="0" xMax="649" yMax="1210">
      <component glyphName="l.sc" x="-105" y="0" flags="0x0"/>
    </TTGlyph>
    <TTGlyph name="m" xMin="61" yMin="0" xMax="1266" yMax="1069">
      <contour>
        <pt x="271" y="1054" on="1"/>
        <pt x="384" y="1054" on="1"/>
        <pt x="343" y="846" on="1"/>
        <pt x="396" y="914" on="1"/>
        <pt x="465" y="993" on="0"/>
        <pt x="586" y="1068" on="0"/>
        <pt x="658" y="1069" on="1"/>
        <pt x="734" y="1068" on="0"/>
        <pt x="808" y="987" on="0"/>
        <pt x="808" y="913" on="1"/>
        <pt x="808" y="877" on="0"/>
        <pt x="801" y="842" on="1"/>
        <pt x="855" y="914" on="1"/>
        <pt x="922" y="993" on="0"/>
        <pt x="1043" y="1068" on="0"/>
        <pt x="1116" y="1069" on="1"/>
        <pt x="1192" y="1068" on="0"/>
        <pt x="1266" y="987" on="0"/>
        <pt x="1266" y="913" on="1"/>
        <pt x="1266" y="880" on="0"/>
        <pt x="1258" y="837" on="1"/>
        <pt x="1091" y="0" on="1"/>
        <pt x="977" y="0" on="1"/>
        <pt x="1145" y="841" on="1"/>
        <pt x="1150" y="864" on="0"/>
        <pt x="1150" y="890" on="1"/>
        <pt x="1150" y="928" on="0"/>
        <pt x="1114" y="966" on="0"/>
        <pt x="1076" y="967" on="1"/>
        <pt x="1029" y="966" on="0"/>
        <pt x="929" y="889" on="0"/>
        <pt x="863" y="810" on="1"/>
        <pt x="775" y="711" on="1"/>
        <pt x="633" y="0" on="1"/>
        <pt x="519" y="0" on="1"/>
        <pt x="687" y="841" on="1"/>
        <pt x="693" y="870" on="0"/>
        <pt x="693" y="891" on="1"/>
        <pt x="693" y="966" on="0"/>
        <pt x="618" y="967" on="1"/>
        <pt x="571" y="966" on="0"/>
        <pt x="471" y="889" on="0"/>
        <pt x="404" y="810" on="1"/>
        <pt x="316" y="711" on="1"/>
        <pt x="174" y="0" on="1"/>
        <pt x="61" y="0" on="1"/>
      </contour>
    </TTGlyph>
    <TTGlyph name="m.sc" xMin="31" yMin="0" xMax="1268" yMax="1210">
      <contour>
        <pt x="621" y="199" on="1"/>
        <pt x="1054" y="1210" on="1"/>
        <pt x="1268" y="1210" on="1"/>
        <pt x="1120" y="0" on="1"/>
        <pt x="977" y="0" on="1"/>
        <pt x="1097" y="995" on="1"/>
        <pt x="672" y="0" on="1"/>
        <pt x="479" y="0" on="1"/>
        <pt x="451" y="994" on="1"/>
        <pt x="175" y="0" on="1"/>
        <pt x="31" y="0" on="1"/>
        <pt x="368" y="1210" on="1"/>
        <pt x="593" y="1210" on="1"/>
      </contour>
    </TTGlyph>
    <TTGlyph name="macron" xMin="314" yMin="1368" xMax="894" yMax="1482">
      <component glyphName="uni0304" x="-105" y="0" flags="0x0"/>
    </TTGlyph>
    <TTGlyph name="minus" xMin="59" yMin="630" xMax="1062" yMax="732">
      <contour>
        <pt x="79" y="732" on="1"/>
        <pt x="1062" y="732" on="1"/>
        <pt x="1042" y="630" on="1"/>
        <pt x="59" y="630" on="1"/>
      </contour>
    </TTGlyph>
    <TTGlyph name="multiply" xMin="76" yMin="264" xMax="1045" yMax="1097">
      <contour>
        <pt x="76" y="341" on="1"/>
        <pt x="484" y="681" on="1"/>
        <pt x="212" y="1021" on="1"/>
        <pt x="304" y="1097" on="1"/>
        <pt x="576" y="758" on="1"/>
        <pt x="983" y="1097" on="1"/>
        <pt x="1045" y="1021" on="1"/>
        <pt x="637" y="681" on="1"/>
        <pt x="909" y="341" on="1"/>
        <pt x="816" y="264" on="1"/>
        <pt x="545" y="604" on="1"/>
        <pt x="137" y="264" on="1"/>
      </contour>
    </TTGlyph>
    <TTGlyph name="n" xMin="61" yMin="0" xMax="954" yMax="1069">
      <contour>
        <pt x="271" y="1054" on="1"/>
        <pt x="384" y="1054" on="1"/>
        <pt x="339" y="826" on="1"/>
        <pt x="408" y="893" on="1"/>
        <pt x="505" y="982" on="0"/>
        <pt x="655" y="1068" on="0"/>
        <pt x="745" y="1069" on="1"/>
        <pt x="847" y="1068" on="0"/>
        <pt x="954" y="968" on="0"/>
        <pt x="954" y="870" on="1"/>
        <pt x="954" y="827" on="0"/>
        <pt x="944" y="780" on="1"/>
        <pt x="788" y="0" on="1"/>
        <pt x="675" y="0" on="1"/>
        <pt x="832" y="784" on="1"/>
        <pt x="839" y="819" on="0"/>
        <pt x="839" y="851" on="1"/>
        <pt x="839" y="908" on="0"/>
        <pt x="781" y="964" on="0"/>
        <pt x="717" y="964" on="1"/>
        <pt x="650" y="964" on="0"/>
        <pt x="519" y="886" on="0"/>
        <pt x="426" y="802" on="1"/>
        <pt x="315" y="709" on="1"/>
        <pt x="174" y="0" on="1"/>
        <pt x="61" y="0" on="1"/>
      </contour>
    </TTGlyph>
    <TTGlyph name="n.sc" xMin="46" yMin="0" xMax="1045" yMax="1210">
      <contour>
        <pt x="288" y="1210" on="1"/>
        <pt x="449" y="1210" on="1"/>
        <pt x="731" y="342" on="1"/>
        <pt x="905" y="1210" on="1"/>
        <pt x="1045" y="1210" on="1"/>
        <pt x="803" y="0" on="1"/>
        <pt x="670" y="0" on="1"/>
        <pt x="371" y="927" on="1"/>
        <pt x="186" y="0" on="1"/>
        <pt x="46" y="0" on="1"/>
      </contour>
    </TTGlyph>
    <TTGlyph name="nacute" xMin="-44" yMin="0" xMax="960" yMax="1643">
      <component glyphName="n" x="-105" y="0" flags="0x0"/>
      <component glyphName="acutecomb" x="-105" y="0" flags="0x0"/>
    </TTGlyph>
    <TTGlyph name="nacute.sc" xMin="-59" yMin="0" xMax="991" yMax="1800">
      <component glyphName="n.sc" x="-105" y="0" flags="0x0"/>
      <component glyphName="acutecomb" x="-74" y="157" flags="0x4"/>
    </TTGlyph>
    <TTGlyph name="ncaron" xMin="-44" yMin="0" xMax="963" yMax="1643">
      <component glyphName="n" x="-105" y="0" flags="0x0"/>
      <component glyphName="uni030C" x="-105" y="0" flags="0x0"/>
    </TTGlyph>
    <TTGlyph name="ncaron.sc" xMin="-59" yMin="0" xMax="994" yMax="1800">
      <component glyphName="n.sc" x="-105" y="0" flags="0x0"/>
      <component glyphName="uni030C" x="-74" y="157" flags="0x4"/>
    </TTGlyph>
    <TTGlyph name="nine" xMin="87" yMin="-315" xMax="966" yMax="1227">
      <contour>
        <pt x="262" y="-144" on="0"/>
        <pt x="507" y="-1" on="0"/>
        <pt x="682" y="242" on="0"/>
        <pt x="739" y="432" on="1"/>
        <pt x="664" y="372" on="0"/>
        <pt x="511" y="306" on="0"/>
        <pt x="425" y="306" on="1"/>
        <pt x="346" y="306" on="0"/>
        <pt x="213" y="375" on="0"/>
        <pt x="131" y="521" on="0"/>
        <pt x="131" y="629" on="1"/>
        <pt x="131" y="695" on="0"/>
        <pt x="145" y="762" on="1"/>
        <pt x="172" y="896" on="0"/>
        <pt x="315" y="1107" on="0"/>
        <pt x="522" y="1227" on="0"/>
        <pt x="641" y="1227" on="1"/>
        <pt x="799" y="1227" on="0"/>
        <pt x="966" y="1023" on="0"/>
        <pt x="966" y="826" on="1"/>
        <pt x="966" y="714" on="0"/>
        <pt x="937" y="567" on="1"/>
        <pt x="885" y="308" on="0"/>
        <pt x="672" y="-51" on="0"/>
        <pt x="336" y="-269" on="0"/>
        <pt x="96" y="-315" on="1"/>
        <pt x="87" y="-190" on="1"/>
      </contour>
      <contour>
        <pt x="298" y="691" on="0"/>
        <pt x="298" y="642" on="1"/>
        <pt x="298" y="543" on="0"/>
        <pt x="391" y="443" on="0"/>
        <pt x="476" y="443" on="1"/>
        <pt x="607" y="443" on="0"/>
        <pt x="772" y="591" on="1"/>
        <pt x="778" y="607" on="1"/>
        <pt x="804" y="740" on="0"/>
        <pt x="804" y="832" on="1"/>
        <pt x="804" y="961" on="0"/>
        <pt x="712" y="1091" on="0"/>
        <pt x="622" y="1091" on="1"/>
        <pt x="548" y="1091" on="0"/>
        <pt x="420" y="1004" on="0"/>
        <pt x="329" y="850" on="0"/>
        <pt x="310" y="751" on="1"/>
      </contour>
    </TTGlyph>
    <TTGlyph name="ntilde" xMin="-44" yMin="0" xMax="955" yMax="1562">
      <component glyphName="n" x="-105" y="0" flags="0x0"/>
      <component glyphName="tildecomb" x="-105" y="0" flags="0x0"/>
    </TTGlyph>
    <TTGlyph name="ntilde.sc" xMin="-59" yMin="0" xMax="986" yMax="1719">
      <component glyphName="n.sc" x="-105" y="0" flags="0x0"/>
      <component glyphName="tildecomb" x="-74" y="157" flags="0x4"/>
    </TTGlyph>
    <TTGlyph name="numbersign" xMin="49" yMin="-38" xMax="1077" yMax="1399">
      <contour>
        <pt x="242" y="390" on="1"/>
        <pt x="49" y="390" on="1"/>
        <pt x="75" y="522" on="1"/>
        <pt x="268" y="522" on="1"/>
        <pt x="336" y="862" on="1"/>
        <pt x="143" y="862" on="1"/>
        <pt x="170" y="995" on="1"/>
        <pt x="363" y="995" on="1"/>
        <pt x="443" y="1399" on="1"/>
        <pt x="586" y="1399" on="1"/>
        <pt x="506" y="995" on="1"/>
        <pt x="741" y="995" on="1"/>
        <pt x="821" y="1399" on="1"/>
        <pt x="964" y="1399" on="1"/>
        <pt x="884" y="995" on="1"/>
        <pt x="1077" y="995" on="1"/>
        <pt x="1050" y="862" on="1"/>
        <pt x="857" y="862" on="1"/>
        <pt x="789" y="522" on="1"/>
        <pt x="982" y="522" on="1"/>
        <pt x="956" y="390" on="1"/>
        <pt x="763" y="390" on="1"/>
        <pt x="677" y="-38" on="1"/>
        <pt x="534" y="-38" on="1"/>
        <pt x="620" y="390" on="1"/>
        <pt x="385" y="390" on="1"/>
        <pt x="299" y="-38" on="1"/>
        <pt x="156" y="-38" on="1"/>
      </contour>
      <contour>
        <pt x="646" y="522" on="1"/>
        <pt x="714" y="862" on="1"/>
        <pt x="479" y="862" on="1"/>
        <pt x="411" y="522" on="1"/>
      </contour>
    </TTGlyph>
    <TTGlyph name="o" xMin="99" yMin="-19" xMax="961" yMax="1073">
      <contour>
        <pt x="267" y="-19" on="0"/>
        <pt x="99" y="179" on="0"/>
        <pt x="99" y="355" on="1"/>
        <pt x="99" y="439" on="0"/>
        <pt x="118" y="531" on="1"/>
        <pt x="150" y="689" on="0"/>
        <pt x="295" y="934" on="0"/>
        <pt x="507" y="1073" on="0"/>
        <pt x="634" y="1073" on="1"/>
        <pt x="799" y="1072" on="0"/>
        <pt x="961" y="875" on="0"/>
        <pt x="961" y="705" on="1"/>
        <pt x="961" y="621" on="0"/>
        <pt x="941" y="523" on="1"/>
        <pt x="909" y="364" on="0"/>
        <pt x="757" y="118" on="0"/>
        <pt x="543" y="-19" on="0"/>
        <pt x="424" y="-19" on="1"/>
      </contour>
      <contour>
        <pt x="527" y="80" on="0"/>
        <pt x="684" y="190" on="0"/>
        <pt x="799" y="393" on="0"/>
        <pt x="827" y="531" on="1"/>
        <pt x="847" y="631" on="0"/>
        <pt x="847" y="708" on="1"/>
        <pt x="847" y="837" on="0"/>
        <pt x="736" y="974" on="0"/>
        <pt x="622" y="974" on="1"/>
        <pt x="477" y="974" on="0"/>
        <pt x="275" y="737" on="0"/>
        <pt x="232" y="523" on="1"/>
        <pt x="214" y="430" on="0"/>
        <pt x="214" y="356" on="1"/>
        <pt x="214" y="222" on="0"/>
        <pt x="328" y="81" on="0"/>
        <pt x="436" y="80" on="1"/>
      </contour>
    </TTGlyph>
    <TTGlyph name="o.sc" xMin="90" yMin="-19" xMax="1001" yMax="1229">
      <contour>
        <pt x="90" y="-19" on="0"/>
        <pt x="90" y="360" on="1"/>
        <pt x="90" y="470" on="0"/>
        <pt x="118" y="609" on="1"/>
        <pt x="179" y="916" on="0"/>
        <pt x="457" y="1229" on="0"/>
        <pt x="665" y="1229" on="1"/>
        <pt x="837" y="1229" on="0"/>
        <pt x="1001" y="1041" on="0"/>
        <pt x="1001" y="856" on="1"/>
        <pt x="1001" y="746" on="0"/>
        <pt x="972" y="601" on="1"/>
        <pt x="931" y="397" on="0"/>
        <pt x="772" y="119" on="0"/>
        <pt x="554" y="-19" on="0"/>
        <pt x="424" y="-19" on="1"/>
      </contour>
      <contour>
        <pt x="577" y="113" on="0"/>
        <pt x="762" y="346" on="0"/>
        <pt x="814" y="609" on="1"/>
        <pt x="845" y="761" on="0"/>
        <pt x="845" y="864" on="1"/>
        <pt x="845" y="988" on="0"/>
        <pt x="749" y="1097" on="0"/>
        <pt x="647" y="1097" on="1"/>
        <pt x="552" y="1097" on="0"/>
        <pt x="414" y="1001" on="0"/>
        <pt x="312" y="783" on="0"/>
        <pt x="276" y="601" on="1"/>
        <pt x="247" y="453" on="0"/>
        <pt x="247" y="360" on="1"/>
        <pt x="247" y="229" on="0"/>
        <pt x="346" y="113" on="0"/>
        <pt x="442" y="113" on="1"/>
      </contour>
    </TTGlyph>
    <TTGlyph name="oacute" xMin="-6" yMin="-19" xMax="960" yMax="1643">
      <component glyphName="o" x="-105" y="0" flags="0x0"/>
      <component glyphName="acutecomb" x="-105" y="0" flags="0x0"/>
    </TTGlyph>
    <TTGlyph name="oacute.sc" xMin="-15" yMin="-19" xMax="991" yMax="1800">
      <component glyphName="o.sc" x="-105" y="0" flags="0x0"/>
      <component glyphName="acutecomb" x="-74" y="157" flags="0x4"/>
    </TTGlyph>
    <TTGlyph name="obreve" xMin="-6" yMin="-19" xMax="929" yMax="1591">
      <component glyphName="o" x="-105" y="0" flags="0x0"/>
      <component glyphName="uni0306" x="-105" y="0" flags="0x0"/>
    </TTGlyph>
    <TTGlyph name="obreve.sc" xMin="-15" yMin="-19" xMax="960" yMax="1748">
      <component glyphName="o.sc" x="-105" y="0" flags="0x0"/>
      <component glyphName="uni0306" x="-74" y="157" flags="0x4"/>
    </TTGlyph>
    <TTGlyph name="ocircumflex" xMin="-6" yMin="-19" xMax="884" yMax="1643">
      <component glyphName="o" x="-105" y="0" flags="0x0"/>
      <component glyphName="uni0302" x="-105" y="0" flags="0x0"/>
    </TTGlyph>
    <TTGlyph name="ocircumflex.sc" xMin="-15" yMin="-19" xMax="915" yMax="1800">
      <component glyphName="o.sc" x="-105" y="0" flags="0x0"/>
      <component glyphName="uni0302" x="-74" y="157" flags="0x4"/>
    </TTGlyph>
    <TTGlyph name="odieresis" xMin="-6" yMin="-19" xMax="892" yMax="1522">
      <component glyphName="o" x="-105" y="0" flags="0x0"/>
      <component glyphName="uni0308" x="-105" y="0" flags="0x0"/>
    </TTGlyph>
    <TTGlyph name="odieresis.sc" xMin="-15" yMin="-19" xMax="923" yMax="1679">
      <component glyphName="o.sc" x="-105" y="0" flags="0x0"/>
      <component glyphName="uni0308" x="-74" y="157" flags="0x4"/>
    </TTGlyph>
    <TTGlyph name="ogonek" xMin="144" yMin="-303" xMax="455" yMax="41">
      <component glyphName="uni0328" x="-105" y="0" flags="0x0"/>
    </TTGlyph>
    <TTGlyph name="ograve" xMin="-6" yMin="-19" xMax="856" yMax="1643">
      <component glyphName="o" x="-105" y="0" flags="0x0"/>
      <component glyphName="gravecomb" x="-105" y="0" flags="0x0"/>
    </TTGlyph>
    <TTGlyph name="ograve.sc" xMin="-15" yMin="-19" xMax="896" yMax="1800">
      <component glyphName="o.sc" x="-105" y="0" flags="0x0"/>
      <component glyphName="gravecomb" x="-74" y="157" flags="0x4"/>
    </TTGlyph>
    <TTGlyph name="ohungarumlaut.sc" xMin="-15" yMin="-19" xMax="896" yMax="1229">
      <component glyphName="o.sc" x="-105" y="0" flags="0x0"/>
    </TTGlyph>
    <TTGlyph name="omacron" xMin="-6" yMin="-19" xMax="894" yMax="1482">
      <component glyphName="o" x="-105" y="0" flags="0x0"/>
      <component glyphName="uni0304" x="-105" y="0" flags="0x0"/>
    </TTGlyph>
    <TTGlyph name="omacron.sc" xMin="-15" yMin="-19" xMax="925" yMax="1639">
      <component glyphName="o.sc" x="-105" y="0" flags="0x0"/>
      <component glyphName="uni0304" x="-74" y="157" flags="0x4"/>
    </TTGlyph>
    <TTGlyph name="one" xMin="82" yMin="0" xMax="830" yMax="1233">
      <contour>
        <pt x="99" y="85" on="1"/>
        <pt x="409" y="99" on="1"/>
        <pt x="612" y="1112" on="1"/>
        <pt x="276" y="1018" on="1"/>
        <pt x="273" y="1114" on="1"/>
        <pt x="681" y="1233" on="1"/>
        <pt x="750" y="1233" on="1"/>
        <pt x="523" y="99" on="1"/>
        <pt x="830" y="85" on="1"/>
        <pt x="813" y="0" on="1"/>
        <pt x="82" y="0" on="1"/>
      </contour>
    </TTGlyph>
    <TTGlyph name="oslash.sc" xMin="-15" yMin="-19" xMax="896" yMax="1229">
      <component glyphName="o.sc" x="-105" y="0" flags="0x0"/>
    </TTGlyph>
    <TTGlyph name="otilde" xMin="-6" yMin="-19" xMax="955" yMax="1562">
      <component glyphName="o" x="-105" y="0" flags="0x0"/>
      <component glyphName="tildecomb" x="-105" y="0" flags="0x0"/>
    </TTGlyph>
    <TTGlyph name="otilde.sc" xMin="-15" yMin="-19" xMax="986" yMax="1719">
      <component glyphName="o.sc" x="-105" y="0" flags="0x0"/>
      <component glyphName="tildecomb" x="-74" y="157" flags="0x4"/>
    </TTGlyph>
    <TTGlyph name="p" xMin="0" yMin="-303" xMax="976" yMax="1069">
      <contour>
        <pt x="271" y="1054" on="1"/>
        <pt x="384" y="1054" on="1"/>
        <pt x="339" y="826" on="1"/>
        <pt x="406" y="898" on="1"/>
        <pt x="485" y="980" on="0"/>
        <pt x="650" y="1068" on="0"/>
        <pt x="739" y="1069" on="1"/>
        <pt x="855" y="1068" on="0"/>
        <pt x="976" y="918" on="0"/>
        <pt x="976" y="777" on="1"/>
        <pt x="976" y="701" on="0"/>
        <pt x="956" y="599" on="1"/>
        <pt x="916" y="399" on="0"/>
        <pt x="742" y="120" on="0"/>
        <pt x="509" y="-21" on="0"/>
        <pt x="380" y="-21" on="1"/>
        <pt x="331" y="-21" on="0"/>
        <pt x="235" y="-7" on="0"/>
        <pt x="179" y="6" on="1"/>
        <pt x="113" y="-303" on="1"/>
        <pt x="0" y="-303" on="1"/>
      </contour>
      <contour>
        <pt x="480" y="76" on="0"/>
        <pt x="667" y="194" on="0"/>
        <pt x="803" y="428" on="0"/>
        <pt x="837" y="599" on="1"/>
        <pt x="858" y="704" on="0"/>
        <pt x="858" y="776" on="1"/>
        <pt x="858" y="875" on="0"/>
        <pt x="783" y="966" on="0"/>
        <pt x="709" y="967" on="1"/>
        <pt x="641" y="966" on="0"/>
        <pt x="505" y="884" on="0"/>
        <pt x="422" y="802" on="1"/>
        <pt x="314" y="701" on="1"/>
        <pt x="190" y="101" on="1"/>
        <pt x="227" y="90" on="0"/>
        <pt x="324" y="76" on="0"/>
        <pt x="371" y="76" on="1"/>
      </contour>
    </TTGlyph>
    <TTGlyph name="p.sc" xMin="46" yMin="0" xMax="966" yMax="1210">
      <contour>
        <pt x="288" y="1210" on="1"/>
        <pt x="591" y="1210" on="1"/>
        <pt x="777" y="1210" on="0"/>
        <pt x="966" y="1050" on="0"/>
        <pt x="966" y="906" on="1"/>
        <pt x="966" y="860" on="0"/>
        <pt x="955" y="802" on="1"/>
        <pt x="931" y="679" on="0"/>
        <pt x="793" y="495" on="0"/>
        <pt x="566" y="393" on="0"/>
        <pt x="414" y="393" on="1"/>
        <pt x="351" y="393" on="0"/>
        <pt x="282" y="402" on="1"/>
        <pt x="198" y="0" on="1"/>
        <pt x="46" y="0" on="1"/>
      </contour>
      <contour>
        <pt x="379" y="529" on="0"/>
        <pt x="425" y="529" on="1"/>
        <pt x="597" y="529" on="0"/>
        <pt x="768" y="663" on="0"/>
        <pt x="796" y="802" on="1"/>
        <pt x="806" y="854" on="0"/>
        <pt x="806" y="888" on="1"/>
        <pt x="806" y="979" on="0"/>
        <pt x="695" y="1074" on="0"/>
        <pt x="574" y="1074" on="1"/>
        <pt x="412" y="1074" on="1"/>
        <pt x="301" y="535" on="1"/>
      </contour>
    </TTGlyph>
    <TTGlyph name="parenleft" xMin="279" yMin="-289" xMax="1092" yMax="1501">
      <contour>
        <pt x="476" y="1418" on="0"/>
        <pt x="1091" y="1501" on="1"/>
        <pt x="1092" y="1372" on="1"/>
        <pt x="904" y="1339" on="0"/>
        <pt x="660" y="1136" on="0"/>
        <pt x="519" y="824" on="0"/>
        <pt x="475" y="601" on="1"/>
        <pt x="435" y="406" on="0"/>
        <pt x="435" y="271" on="1"/>
        <pt x="435" y="89" on="0"/>
        <pt x="593" y="-129" on="0"/>
        <pt x="777" y="-164" on="1"/>
        <pt x="741" y="-289" on="1"/>
        <pt x="499" y="-255" on="0"/>
        <pt x="279" y="52" on="0"/>
        <pt x="279" y="298" on="1"/>
        <pt x="279" y="439" on="0"/>
        <pt x="313" y="609" on="1"/>
      </contour>
    </TTGlyph>
    <TTGlyph name="parenright" xMin="155" yMin="-291" xMax="968" yMax="1499">
      <contour>
        <pt x="771" y="-208" on="0"/>
        <pt x="156" y="-291" on="1"/>
        <pt x="155" y="-162" on="1"/>
        <pt x="343" y="-129" on="0"/>
        <pt x="587" y="74" on="0"/>
        <pt x="728" y="386" on="0"/>
        <pt x="772" y="609" on="1"/>
        <pt x="812" y="804" on="0"/>
        <pt x="812" y="940" on="1"/>
        <pt x="812" y="1122" on="0"/>
        <pt x="654" y="1339" on="0"/>
        <pt x="470" y="1374" on="1"/>
        <pt x="507" y="1499" on="1"/>
        <pt x="748" y="1465" on="0"/>
        <pt x="968" y="1158" on="0"/>
        <pt x="968" y="913" on="1"/>
        <pt x="968" y="771" on="0"/>
        <pt x="934" y="601" on="1"/>
      </contour>
    </TTGlyph>
    <TTGlyph name="percent" xMin="-56" yMin="-19" xMax="1177" yMax="1380">
      <contour>
        <pt x="1018" y="1210" on="1"/>
        <pt x="1177" y="1210" on="1"/>
        <pt x="103" y="151" on="1"/>
        <pt x="-56" y="151" on="1"/>
      </contour>
      <contour>
        <pt x="603" y="-19" on="0"/>
        <pt x="509" y="90" on="0"/>
        <pt x="509" y="189" on="1"/>
        <pt x="509" y="233" on="0"/>
        <pt x="520" y="290" on="1"/>
        <pt x="548" y="433" on="0"/>
        <pt x="695" y="588" on="0"/>
        <pt x="802" y="588" on="1"/>
        <pt x="888" y="588" on="0"/>
        <pt x="981" y="481" on="0"/>
        <pt x="981" y="383" on="1"/>
        <pt x="981" y="339" on="0"/>
        <pt x="970" y="282" on="1"/>
        <pt x="941" y="138" on="0"/>
        <pt x="795" y="-19" on="0"/>
        <pt x="689" y="-19" on="1"/>
      </contour>
      <contour>
        <pt x="750" y="104" on="0"/>
        <pt x="821" y="193" on="0"/>
        <pt x="840" y="290" on="1"/>
        <pt x="851" y="348" on="0"/>
        <pt x="851" y="381" on="1"/>
        <pt x="851" y="427" on="0"/>
        <pt x="817" y="467" on="0"/>
        <pt x="784" y="467" on="1"/>
        <pt x="685" y="467" on="0"/>
        <pt x="648" y="282" on="1"/>
        <pt x="637" y="230" on="0"/>
        <pt x="637" y="189" on="1"/>
        <pt x="637" y="143" on="0"/>
        <pt x="670" y="104" on="0"/>
        <pt x="703" y="104" on="1"/>
      </contour>
      <contour>
        <pt x="232" y="773" on="0"/>
        <pt x="138" y="883" on="0"/>
        <pt x="138" y="982" on="1"/>
        <pt x="138" y="1025" on="0"/>
        <pt x="149" y="1082" on="1"/>
        <pt x="177" y="1225" on="0"/>
        <pt x="325" y="1380" on="0"/>
        <pt x="432" y="1380" on="1"/>
        <pt x="517" y="1380" on="0"/>
        <pt x="610" y="1273" on="0"/>
        <pt x="610" y="1176" on="1"/>
        <pt x="610" y="1125" on="0"/>
        <pt x="599" y="1074" on="1"/>
        <pt x="570" y="930" on="0"/>
        <pt x="424" y="773" on="0"/>
        <pt x="318" y="773" on="1"/>
      </contour>
      <contour>
        <pt x="432" y="896" on="0"/>
        <pt x="469" y="1082" on="1"/>
        <pt x="480" y="1140" on="0"/>
        <pt x="480" y="1173" on="1"/>
        <pt x="480" y="1219" on="0"/>
        <pt x="447" y="1259" on="0"/>
        <pt x="413" y="1259" on="1"/>
        <pt x="314" y="1259" on="0"/>
        <pt x="277" y="1074" on="1"/>
        <pt x="266" y="1016" on="0"/>
        <pt x="266" y="982" on="1"/>
        <pt x="266" y="936" on="0"/>
        <pt x="299" y="896" on="0"/>
        <pt x="333" y="896" on="1"/>
      </contour>
    </TTGlyph>
    <TTGlyph name="period" xMin="84" yMin="-18" xMax="357" yMax="253">
      <contour>
        <pt x="147" y="-17" on="0"/>
        <pt x="84" y="47" on="0"/>
        <pt x="84" y="95" on="1"/>
        <pt x="84" y="111" on="0"/>
        <pt x="86" y="120" on="1"/>
        <pt x="98" y="177" on="0"/>
        <pt x="187" y="253" on="0"/>
        <pt x="243" y="253" on="1"/>
        <pt x="294" y="253" on="0"/>
        <pt x="357" y="188" on="0"/>
        <pt x="357" y="138" on="1"/>
        <pt x="357" y="121" on="0"/>
        <pt x="355" y="112" on="1"/>
        <pt x="343" y="56" on="0"/>
        <pt x="254" y="-17" on="0"/>
        <pt x="197" y="-18" on="1"/>
      </contour>
    </TTGlyph>
    <TTGlyph name="periodcentered" xMin="471" yMin="584" xMax="645" yMax="753">
      <contour>
        <pt x="512" y="584" on="0"/>
        <pt x="471" y="625" on="0"/>
        <pt x="471" y="655" on="1"/>
        <pt x="471" y="661" on="0"/>
        <pt x="473" y="673" on="1"/>
        <pt x="480" y="710" on="0"/>
        <pt x="533" y="753" on="0"/>
        <pt x="570" y="753" on="1"/>
        <pt x="603" y="753" on="0"/>
        <pt x="645" y="714" on="0"/>
        <pt x="645" y="683" on="1"/>
        <pt x="645" y="677" on="0"/>
        <pt x="643" y="665" on="1"/>
        <pt x="635" y="628" on="0"/>
        <pt x="581" y="584" on="0"/>
        <pt x="544" y="585" on="1"/>
      </contour>
    </TTGlyph>
    <TTGlyph name="pi" xMin="61" yMin="0" xMax="998" yMax="1054">
      <contour>
        <pt x="788" y="0" on="1"/>
        <pt x="675" y="0" on="1"/>
        <pt x="865" y="952" on="1"/>
        <pt x="364" y="952" on="1"/>
        <pt x="174" y="0" on="1"/>
        <pt x="61" y="0" on="1"/>
        <pt x="271" y="1054" on="1"/>
        <pt x="998" y="1054" on="1"/>
      </contour>
    </TTGlyph>
    <TTGlyph name="plus" xMin="59" yMin="189" xMax="1062" yMax="1172">
      <contour>
        <pt x="494" y="630" on="1"/>
        <pt x="59" y="630" on="1"/>
        <pt x="79" y="732" on="1"/>
        <pt x="514" y="732" on="1"/>
        <pt x="602" y="1172" on="1"/>
        <pt x="715" y="1172" on="1"/>
        <pt x="627" y="732" on="1"/>
        <pt x="1062" y="732" on="1"/>
        <pt x="1042" y="630" on="1"/>
        <pt x="607" y="630" on="1"/>
        <pt x="518" y="189" on="1"/>
        <pt x="405" y="189" on="1"/>
      </contour>
    </TTGlyph>
    <TTGlyph name="plusminus" xMin="-169" yMin="17" xMax="987" yMax="1323">
      <component glyphName="minus" x="-228" y="-613" flags="0x4"/>
      <component glyphName="plus" x="-75" y="151" flags="0x4"/>
    </TTGlyph>
    <TTGlyph name="q" xMin="83" yMin="-303" xMax="988" yMax="1075">
      <contour>
        <pt x="720" y="228" on="1"/>
        <pt x="653" y="157" on="1"/>
        <pt x="572" y="75" on="0"/>
        <pt x="408" y="-15" on="0"/>
        <pt x="320" y="-15" on="1"/>
        <pt x="204" y="-15" on="0"/>
        <pt x="83" y="135" on="0"/>
        <pt x="83" y="277" on="1"/>
        <pt x="83" y="354" on="0"/>
        <pt x="103" y="457" on="1"/>
        <pt x="143" y="656" on="0"/>
        <pt x="317" y="934" on="0"/>
        <pt x="550" y="1074" on="0"/>
        <pt x="679" y="1075" on="1"/>
        <pt x="758" y="1074" on="0"/>
        <pt x="919" y="1043" on="0"/>
        <pt x="988" y="1019" on="1"/>
        <pt x="727" y="-303" on="1"/>
        <pt x="614" y="-303" on="1"/>
      </contour>
      <contour>
        <pt x="418" y="87" on="0"/>
        <pt x="552" y="168" on="0"/>
        <pt x="637" y="252" on="1"/>
        <pt x="745" y="353" on="1"/>
        <pt x="869" y="953" on="1"/>
        <pt x="830" y="964" on="0"/>
        <pt x="734" y="978" on="0"/>
        <pt x="688" y="978" on="1"/>
        <pt x="579" y="978" on="0"/>
        <pt x="393" y="861" on="0"/>
        <pt x="256" y="628" on="0"/>
        <pt x="222" y="458" on="1"/>
        <pt x="201" y="353" on="0"/>
        <pt x="201" y="280" on="1"/>
        <pt x="201" y="180" on="0"/>
        <pt x="276" y="87" on="0"/>
        <pt x="350" y="87" on="1"/>
      </contour>
    </TTGlyph>
    <TTGlyph name="q.sc" xMin="90" yMin="-310" xMax="1001" yMax="1229">
      <contour>
        <pt x="470" y="-310" on="0"/>
        <pt x="348" y="-182" on="0"/>
        <pt x="348" y="-51" on="1"/>
        <pt x="348" y="-26" on="0"/>
        <pt x="349" y="-13" on="1"/>
        <pt x="90" y="27" on="0"/>
        <pt x="90" y="359" on="1"/>
        <pt x="90" y="470" on="0"/>
        <pt x="118" y="609" on="1"/>
        <pt x="179" y="916" on="0"/>
        <pt x="457" y="1229" on="0"/>
        <pt x="665" y="1229" on="1"/>
        <pt x="837" y="1229" on="0"/>
        <pt x="1001" y="1041" on="0"/>
        <pt x="1001" y="856" on="1"/>
        <pt x="1001" y="746" on="0"/>
        <pt x="972" y="601" on="1"/>
        <pt x="916" y="324" on="0"/>
        <pt x="663" y="10" on="0"/>
        <pt x="487" y="-18" on="1"/>
        <pt x="486" y="-26" on="0"/>
        <pt x="486" y="-41" on="1"/>
        <pt x="486" y="-111" on="0"/>
        <pt x="557" y="-174" on="0"/>
        <pt x="631" y="-174" on="1"/>
        <pt x="668" y="-174" on="0"/>
        <pt x="754" y="-162" on="1"/>
        <pt x="756" y="-286" on="1"/>
        <pt x="685" y="-310" on="0"/>
        <pt x="582" y="-310" on="1"/>
      </contour>
      <contour>
        <pt x="577" y="113" on="0"/>
        <pt x="762" y="346" on="0"/>
        <pt x="814" y="609" on="1"/>
        <pt x="845" y="761" on="0"/>
        <pt x="845" y="864" on="1"/>
        <pt x="845" y="988" on="0"/>
        <pt x="749" y="1097" on="0"/>
        <pt x="647" y="1097" on="1"/>
        <pt x="552" y="1097" on="0"/>
        <pt x="414" y="1001" on="0"/>
        <pt x="312" y="783" on="0"/>
        <pt x="276" y="601" on="1"/>
        <pt x="247" y="453" on="0"/>
        <pt x="247" y="360" on="1"/>
        <pt x="247" y="229" on="0"/>
        <pt x="346" y="113" on="0"/>
        <pt x="442" y="113" on="1"/>
      </contour>
    </TTGlyph>
    <TTGlyph name="question" xMin="84" yMin="-18" xMax="1019" yMax="1380">
      <contour>
        <pt x="578" y="631" on="0"/>
        <pt x="730" y="762" on="0"/>
        <pt x="823" y="900" on="0"/>
        <pt x="839" y="978" on="1"/>
        <pt x="847" y="1018" on="0"/>
        <pt x="847" y="1049" on="1"/>
        <pt x="847" y="1143" on="0"/>
        <pt x="721" y="1244" on="0"/>
        <pt x="597" y="1244" on="1"/>
        <pt x="534" y="1244" on="0"/>
        <pt x="372" y="1212" on="0"/>
        <pt x="309" y="1192" on="1"/>
        <pt x="290" y="1303" on="1"/>
        <pt x="371" y="1337" on="0"/>
        <pt x="557" y="1380" on="0"/>
        <pt x="644" y="1380" on="1"/>
        <pt x="761" y="1380" on="0"/>
        <pt x="930" y="1304" on="0"/>
        <pt x="1019" y="1165" on="0"/>
        <pt x="1019" y="1071" on="1"/>
        <pt x="1019" y="1030" on="0"/>
        <pt x="1010" y="983" on="1"/>
        <pt x="980" y="832" on="0"/>
        <pt x="728" y="570" on="0"/>
        <pt x="527" y="452" on="1"/>
        <pt x="462" y="551" on="1"/>
      </contour>
      <contour>
        <pt x="147" y="-17" on="0"/>
        <pt x="84" y="47" on="0"/>
        <pt x="84" y="95" on="1"/>
        <pt x="84" y="111" on="0"/>
        <pt x="86" y="120" on="1"/>
        <pt x="98" y="177" on="0"/>
        <pt x="187" y="253" on="0"/>
        <pt x="243" y="253" on="1"/>
        <pt x="294" y="253" on="0"/>
        <pt x="357" y="188" on="0"/>
        <pt x="357" y="138" on="1"/>
        <pt x="357" y="121" on="0"/>
        <pt x="355" y="112" on="1"/>
        <pt x="343" y="56" on="0"/>
        <pt x="254" y="-17" on="0"/>
        <pt x="197" y="-18" on="1"/>
      </contour>
    </TTGlyph>
    <TTGlyph name="questiondown" xMin="41" yMin="-321" xMax="976" yMax="1077">
      <contour>
        <pt x="482" y="428" on="0"/>
        <pt x="330" y="297" on="0"/>
        <pt x="237" y="159" on="0"/>
        <pt x="221" y="81" on="1"/>
        <pt x="213" y="41" on="0"/>
        <pt x="213" y="10" on="1"/>
        <pt x="213" y="-84" on="0"/>
        <pt x="339" y="-185" on="0"/>
        <pt x="463" y="-185" on="1"/>
        <pt x="526" y="-185" on="0"/>
        <pt x="688" y="-153" on="0"/>
        <pt x="751" y="-133" on="1"/>
        <pt x="770" y="-244" on="1"/>
        <pt x="689" y="-278" on="0"/>
        <pt x="503" y="-321" on="0"/>
        <pt x="416" y="-321" on="1"/>
        <pt x="299" y="-321" on="0"/>
        <pt x="130" y="-245" on="0"/>
        <pt x="41" y="-106" on="0"/>
        <pt x="41" y="-12" on="1"/>
        <pt x="41" y="30" on="0"/>
        <pt x="50" y="76" on="1"/>
        <pt x="80" y="227" on="0"/>
        <pt x="332" y="489" on="0"/>
        <pt x="533" y="607" on="1"/>
        <pt x="598" y="508" on="1"/>
      </contour>
      <contour>
        <pt x="913" y="1076" on="0"/>
        <pt x="976" y="1012" on="0"/>
        <pt x="976" y="964" on="1"/>
        <pt x="976" y="948" on="0"/>
        <pt x="974" y="939" on="1"/>
        <pt x="962" y="882" on="0"/>
        <pt x="873" y="806" on="0"/>
        <pt x="817" y="806" on="1"/>
        <pt x="766" y="806" on="0"/>
        <pt x="703" y="871" on="0"/>
        <pt x="703" y="921" on="1"/>
        <pt x="703" y="938" on="0"/>
        <pt x="705" y="947" on="1"/>
        <pt x="717" y="1003" on="0"/>
        <pt x="806" y="1076" on="0"/>
        <pt x="863" y="1077" on="1"/>
      </contour>
    </TTGlyph>
    <TTGlyph name="quotedbl" xMin="194" yMin="756" xMax="932" yMax="1362">
      <component glyphName="quotesingle" x="-321" y="0" flags="0x0"/>
      <component glyphName="quotesingle" x="111" y="0" flags="0x0"/>
    </TTGlyph>
    <TTGlyph name="quotedblbase" xMin="-247" yMin="-315" xMax="811" yMax="323">
      <component glyphName="quoteright" x="-548" y="-1059" flags="0x4"/>
      <component glyphName="quoteright" x="-45" y="-1059" flags="0x4"/>
    </TTGlyph>
    <TTGlyph name="quotedblleft" xMin="157" yMin="800" xMax="1214" yMax="1438">
      <contour>
        <pt x="742" y="800" on="0"/>
        <pt x="660" y="884" on="0"/>
        <pt x="660" y="963" on="1"/>
        <pt x="660" y="996" on="0"/>
        <pt x="667" y="1031" on="1"/>
        <pt x="700" y="1197" on="0"/>
        <pt x="973" y="1404" on="0"/>
        <pt x="1205" y="1438" on="1"/>
        <pt x="1214" y="1319" on="1"/>
        <pt x="1069" y="1291" on="0"/>
        <pt x="891" y="1198" on="0"/>
        <pt x="881" y="1149" on="1"/>
        <pt x="878" y="1131" on="0"/>
        <pt x="899" y="1104" on="0"/>
        <pt x="924" y="1091" on="1"/>
        <pt x="956" y="1075" on="0"/>
        <pt x="990" y="1019" on="0"/>
        <pt x="990" y="985" on="1"/>
        <pt x="990" y="969" on="0"/>
        <pt x="987" y="954" on="1"/>
        <pt x="973" y="885" on="0"/>
        <pt x="876" y="800" on="0"/>
        <pt x="806" y="800" on="1"/>
      </contour>
      <contour>
        <pt x="239" y="800" on="0"/>
        <pt x="157" y="884" on="0"/>
        <pt x="157" y="963" on="1"/>
        <pt x="157" y="996" on="0"/>
        <pt x="164" y="1031" on="1"/>
        <pt x="197" y="1197" on="0"/>
        <pt x="470" y="1404" on="0"/>
        <pt x="702" y="1438" on="1"/>
        <pt x="711" y="1319" on="1"/>
        <pt x="566" y="1291" on="0"/>
        <pt x="388" y="1198" on="0"/>
        <pt x="378" y="1149" on="1"/>
        <pt x="375" y="1131" on="0"/>
        <pt x="396" y="1104" on="0"/>
        <pt x="421" y="1091" on="1"/>
        <pt x="453" y="1075" on="0"/>
        <pt x="487" y="1019" on="0"/>
        <pt x="487" y="985" on="1"/>
        <pt x="487" y="969" on="0"/>
        <pt x="484" y="954" on="1"/>
        <pt x="470" y="885" on="0"/>
        <pt x="373" y="800" on="0"/>
        <pt x="303" y="800" on="1"/>
      </contour>
    </TTGlyph>
    <TTGlyph name="quotedblright" xMin="-35" yMin="744" xMax="1023" yMax="1382">
      <component glyphName="quoteright" x="-336" y="0" flags="0x0"/>
      <component glyphName="quoteright" x="167" y="0" flags="0x0"/>
    </TTGlyph>
    <TTGlyph name="quoteleft" xMin="429" yMin="800" xMax="983" yMax="1438">
      <contour>
        <pt x="511" y="800" on="0"/>
        <pt x="429" y="884" on="0"/>
        <pt x="429" y="963" on="1"/>
        <pt x="429" y="996" on="0"/>
        <pt x="436" y="1031" on="1"/>
        <pt x="469" y="1197" on="0"/>
        <pt x="742" y="1404" on="0"/>
        <pt x="974" y="1438" on="1"/>
        <pt x="983" y="1319" on="1"/>
        <pt x="838" y="1291" on="0"/>
        <pt x="660" y="1198" on="0"/>
        <pt x="650" y="1149" on="1"/>
        <pt x="647" y="1131" on="0"/>
        <pt x="668" y="1104" on="0"/>
        <pt x="693" y="1091" on="1"/>
        <pt x="725" y="1075" on="0"/>
        <pt x="759" y="1019" on="0"/>
        <pt x="759" y="985" on="1"/>
        <pt x="759" y="969" on="0"/>
        <pt x="756" y="954" on="1"/>
        <pt x="742" y="885" on="0"/>
        <pt x="645" y="800" on="0"/>
        <pt x="575" y="800" on="1"/>
      </contour>
    </TTGlyph>
    <TTGlyph name="quoteright" xMin="301" yMin="744" xMax="856" yMax="1382">
      <contour>
        <pt x="774" y="1382" on="0"/>
        <pt x="856" y="1298" on="0"/>
        <pt x="856" y="1219" on="1"/>
        <pt x="856" y="1186" on="0"/>
        <pt x="849" y="1151" on="1"/>
        <pt x="816" y="985" on="0"/>
        <pt x="543" y="778" on="0"/>
        <pt x="310" y="744" on="1"/>
        <pt x="301" y="863" on="1"/>
        <pt x="403" y="883" on="0"/>
        <pt x="554" y="942" on="0"/>
        <pt x="635" y="1009" on="0"/>
        <pt x="635" y="1042" on="1"/>
        <pt x="635" y="1069" on="0"/>
        <pt x="591" y="1091" on="1"/>
        <pt x="559" y="1107" on="0"/>
        <pt x="525" y="1164" on="0"/>
        <pt x="525" y="1199" on="1"/>
        <pt x="525" y="1213" on="0"/>
        <pt x="528" y="1228" on="1"/>
        <pt x="542" y="1297" on="0"/>
        <pt x="640" y="1382" on="0"/>
        <pt x="710" y="1382" on="1"/>
      </contour>
    </TTGlyph>
    <TTGlyph name="quotesinglbase" xMin="-16" yMin="-315" xMax="539" yMax="323">
      <component glyphName="quoteright" x="-317" y="-1059" flags="0x4"/>
    </TTGlyph>
    <TTGlyph name="quotesingle" xMin="515" yMin="756" xMax="821" yMax="1362">
      <contour>
        <pt x="572" y="1362" on="1"/>
        <pt x="821" y="1362" on="1"/>
        <pt x="636" y="756" on="1"/>
        <pt x="515" y="756" on="1"/>
      </contour>
    </TTGlyph>
    <TTGlyph name="r" xMin="61" yMin="0" xMax="872" yMax="1069">
      <contour>
        <pt x="811" y="1068" on="0"/>
        <pt x="872" y="1057" on="1"/>
        <pt x="840" y="947" on="1"/>
        <pt x="775" y="959" on="0"/>
        <pt x="734" y="959" on="1"/>
        <pt x="649" y="959" on="0"/>
        <pt x="502" y="861" on="0"/>
        <pt x="410" y="764" on="1"/>
        <pt x="305" y="659" on="1"/>
        <pt x="174" y="0" on="1"/>
        <pt x="61" y="0" on="1"/>
        <pt x="271" y="1054" on="1"/>
        <pt x="384" y="1054" on="1"/>
        <pt x="330" y="784" on="1"/>
        <pt x="398" y="865" on="1"/>
        <pt x="486" y="963" on="0"/>
        <pt x="654" y="1068" on="0"/>
        <pt x="759" y="1069" on="1"/>
      </contour>
    </TTGlyph>
    <TTGlyph name="r.sc" xMin="46" yMin="0" xMax="974" yMax="1210">
      <contour>
        <pt x="288" y="1210" on="1"/>
        <pt x="591" y="1210" on="1"/>
        <pt x="781" y="1210" on="0"/>
        <pt x="974" y="1064" on="0"/>
        <pt x="974" y="933" on="1"/>
        <pt x="974" y="895" on="0"/>
        <pt x="965" y="851" on="1"/>
        <pt x="937" y="714" on="0"/>
        <pt x="752" y="534" on="0"/>
        <pt x="599" y="508" on="1"/>
        <pt x="835" y="0" on="1"/>
        <pt x="648" y="0" on="1"/>
        <pt x="436" y="492" on="1"/>
        <pt x="296" y="492" on="1"/>
        <pt x="198" y="0" on="1"/>
        <pt x="46" y="0" on="1"/>
      </contour>
      <contour>
        <pt x="761" y="628" on="0"/>
        <pt x="806" y="851" on="1"/>
        <pt x="813" y="890" on="0"/>
        <pt x="813" y="912" on="1"/>
        <pt x="813" y="992" on="0"/>
        <pt x="699" y="1074" on="0"/>
        <pt x="574" y="1074" on="1"/>
        <pt x="412" y="1074" on="1"/>
        <pt x="323" y="628" on="1"/>
        <pt x="494" y="628" on="1"/>
      </contour>
    </TTGlyph>
    <TTGlyph name="racute" xMin="-44" yMin="0" xMax="885" yMax="1643">
      <component glyphName="r" x="-105" y="0" flags="0x0"/>
      <component glyphName="acutecomb" x="-180" y="0" flags="0x0"/>
    </TTGlyph>
    <TTGlyph name="racute.sc" xMin="-59" yMin="0" xMax="957" yMax="1800">
      <component glyphName="r.sc" x="-105" y="0" flags="0x0"/>
      <component glyphName="acutecomb" x="-108" y="157" flags="0x4"/>
    </TTGlyph>
    <TTGlyph name="rcaron" xMin="-44" yMin="0" xMax="888" yMax="1643">
      <component glyphName="r" x="-105" y="0" flags="0x0"/>
      <component glyphName="uni030C" x="-180" y="0" flags="0x0"/>
    </TTGlyph>
    <TTGlyph name="rcaron.sc" xMin="-59" yMin="0" xMax="960" yMax="1800">
      <component glyphName="r.sc" x="-105" y="0" flags="0x0"/>
      <component glyphName="uni030C" x="-108" y="157" flags="0x4"/>
    </TTGlyph>
    <TTGlyph name="ring" xMin="362" yMin="1216" xMax="855" yMax="1675">
      <component glyphName="uni030A" x="-105" y="0" flags="0x0"/>
    </TTGlyph>
</ttFont>
